<mxfile host="Electron" agent="Mozilla/5.0 (Windows NT 10.0; Win64; x64) AppleWebKit/537.36 (KHTML, like Gecko) draw.io/26.2.15 Chrome/134.0.6998.205 Electron/35.2.1 Safari/537.36" version="26.2.15">
  <diagram name="Page-1" id="2YBvvXClWsGukQMizWep">
    <mxGraphModel dx="1722" dy="1001" grid="1" gridSize="10" guides="1" tooltips="1" connect="1" arrows="1" fold="1" page="1" pageScale="1" pageWidth="850" pageHeight="1100" math="0" shadow="0">
      <root>
        <mxCell id="0" />
        <mxCell id="1" parent="0" />
        <mxCell id="S3-eN4drHJ-bPGYd0D6c-3" value="Zero Knowledge Architecture" style="text;html=1;fontSize=24;fontStyle=0;verticalAlign=middle;align=center;fillColor=none;strokeColor=none;fontColor=light-dark(#10BFFF,#EDEDED);labelBorderColor=none;labelBackgroundColor=none;textShadow=0;" parent="1" vertex="1">
          <mxGeometry x="251" width="340" height="40" as="geometry" />
        </mxCell>
        <mxCell id="S3-eN4drHJ-bPGYd0D6c-5" value="&lt;font style=&quot;font-size: 18px; color: rgb(49, 177, 153);&quot;&gt;Authentication Flow&lt;/font&gt;" style="text;html=1;fontSize=24;fontStyle=0;verticalAlign=middle;align=center;fillColor=none;strokeColor=none;fontColor=light-dark(#10BFFF,#EDEDED);labelBorderColor=none;labelBackgroundColor=none;textShadow=0;" parent="1" vertex="1">
          <mxGeometry x="296" y="318.78" width="250" height="40" as="geometry" />
        </mxCell>
        <mxCell id="S3-eN4drHJ-bPGYd0D6c-7" value="Client" style="rounded=0;whiteSpace=wrap;html=1;" parent="1" vertex="1">
          <mxGeometry x="6" y="379" width="120" height="30" as="geometry" />
        </mxCell>
        <mxCell id="S3-eN4drHJ-bPGYd0D6c-8" value="Server" style="rounded=0;whiteSpace=wrap;html=1;" parent="1" vertex="1">
          <mxGeometry x="361" y="379" width="120" height="30" as="geometry" />
        </mxCell>
        <mxCell id="S3-eN4drHJ-bPGYd0D6c-9" value="DB" style="rounded=0;whiteSpace=wrap;html=1;" parent="1" vertex="1">
          <mxGeometry x="716" y="379" width="120" height="30" as="geometry" />
        </mxCell>
        <mxCell id="S3-eN4drHJ-bPGYd0D6c-10" value="" style="endArrow=none;html=1;rounded=0;" parent="1" edge="1">
          <mxGeometry width="50" height="50" relative="1" as="geometry">
            <mxPoint x="66" y="520" as="sourcePoint" />
            <mxPoint x="65.89999999999999" y="409" as="targetPoint" />
          </mxGeometry>
        </mxCell>
        <mxCell id="S3-eN4drHJ-bPGYd0D6c-11" value="" style="shape=image;verticalLabelPosition=bottom;labelBackgroundColor=#ffffff;verticalAlign=top;aspect=fixed;imageAspect=0;image=data:image/svg+xml,PHN2ZyB4bWxuczpkYz0iaHR0cDovL3B1cmwub3JnL2RjL2VsZW1lbnRzLzEuMS8iIHhtbG5zOmNjPSJodHRwOi8vY3JlYXRpdmVjb21tb25zLm9yZy9ucyMiIHhtbG5zOnJkZj0iaHR0cDovL3d3dy53My5vcmcvMTk5OS8wMi8yMi1yZGYtc3ludGF4LW5zIyIgeG1sbnM6c3ZnPSJodHRwOi8vd3d3LnczLm9yZy8yMDAwL3N2ZyIgeG1sbnM9Imh0dHA6Ly93d3cudzMub3JnLzIwMDAvc3ZnIiB4bWxuczpzb2RpcG9kaT0iaHR0cDovL3NvZGlwb2RpLnNvdXJjZWZvcmdlLm5ldC9EVEQvc29kaXBvZGktMC5kdGQiIHhtbG5zOmlua3NjYXBlPSJodHRwOi8vd3d3Lmlua3NjYXBlLm9yZy9uYW1lc3BhY2VzL2lua3NjYXBlIiB2ZXJzaW9uPSIxLjEiIGlkPSJzdmcxMDQ1NzIiIGlua3NjYXBlOnZlcnNpb249IjAuOTIuMyAoMjQwNTU0NiwgMjAxOC0wMy0xMSkiIHNvZGlwb2RpOmRvY25hbWU9InNxbC5zdmciIHg9IjBweCIgeT0iMHB4IiB2aWV3Qm94PSIwIDAgNDYuMDMgNjEuMDIiIHhtbDpzcGFjZT0icHJlc2VydmUiIHdpZHRoPSI0Ni4wMjk5OTkiIGhlaWdodD0iNjEuMDIiPjxtZXRhZGF0YSBpZD0ibWV0YWRhdGExMDQ4Ij48cmRmOlJERj48Y2M6V29yayByZGY6YWJvdXQ9IiI+PGRjOmZvcm1hdD5pbWFnZS9zdmcreG1sPC9kYzpmb3JtYXQ+PGRjOnR5cGUgcmRmOnJlc291cmNlPSJodHRwOi8vcHVybC5vcmcvZGMvZGNtaXR5cGUvU3RpbGxJbWFnZSIvPjxkYzp0aXRsZS8+PC9jYzpXb3JrPjwvcmRmOlJERj48L21ldGFkYXRhPjxkZWZzIGlkPSJkZWZzMTA0NiI+JiN4YTsJJiN4YTsmI3hhOwkmI3hhOyYjeGE7CSYjeGE7JiN4YTsJJiN4YTsmI3hhOwkmI3hhOyYjeGE7CSYjeGE7JiN4YTsJJiN4YTsmI3hhOwkmI3hhOyYjeGE7CSYjeGE7JiN4YTsJCSYjeGE7CSYjeGE7CQkmI3hhOwkmI3hhOwkJJiN4YTsJJiN4YTsJCSYjeGE7CSYjeGE7CQkmI3hhOwkmI3hhOwkJJiN4YTsJJiN4YTsJCSYjeGE7CSYjeGE7CQkmI3hhOwk8L2RlZnM+JiN4YTs8ZmlsdGVyIGlkPSJmaWx0ZXJfMiI+JiN4YTsJPGZlR2F1c3NpYW5CbHVyIGlkPSJmZUdhdXNzaWFuQmx1cjEwNDQ4OSIgc3RkRGV2aWF0aW9uPSIyIi8+JiN4YTs8L2ZpbHRlcj4mI3hhOzxzb2RpcG9kaTpuYW1lZHZpZXcgYm9yZGVyY29sb3I9IiM2NjY2NjYiIGJvcmRlcm9wYWNpdHk9IjEiIGZpdC1tYXJnaW4tYm90dG9tPSIwIiBmaXQtbWFyZ2luLWxlZnQ9IjAiIGZpdC1tYXJnaW4tcmlnaHQ9IjAiIGZpdC1tYXJnaW4tdG9wPSIwIiBncmlkdG9sZXJhbmNlPSIxMCIgZ3VpZGV0b2xlcmFuY2U9IjEwIiBpZD0ibmFtZWR2aWV3MTA0NTc0IiBpbmtzY2FwZTpjdXJyZW50LWxheWVyPSJzdmcxMDQ1NzIiIGlua3NjYXBlOmN4PSIwLjI3NDc3MzkyIiBpbmtzY2FwZTpjeT0iMjcuOTI1ODA5IiBpbmtzY2FwZTpwYWdlb3BhY2l0eT0iMCIgaW5rc2NhcGU6cGFnZXNoYWRvdz0iMiIgaW5rc2NhcGU6d2luZG93LWhlaWdodD0iMTAxNyIgaW5rc2NhcGU6d2luZG93LW1heGltaXplZD0iMSIgaW5rc2NhcGU6d2luZG93LXdpZHRoPSIxOTIwIiBpbmtzY2FwZTp3aW5kb3cteD0iLTgiIGlua3NjYXBlOndpbmRvdy15PSItOCIgaW5rc2NhcGU6em9vbT0iNy42MDUyNjMyIiBvYmplY3R0b2xlcmFuY2U9IjEwIiBwYWdlY29sb3I9IiNmZmZmZmYiIHNob3dncmlkPSJmYWxzZSI+JiN4YTsJPC9zb2RpcG9kaTpuYW1lZHZpZXc+JiN4YTsmI3hhOzxwYXRoIGlkPSJwYXRoMTA0NTAyIiBpbmtzY2FwZTpjb25uZWN0b3ItY3VydmF0dXJlPSIwIiBzdHlsZT0iZmlsbDojMDA3MmM2IiBkPSJtIDAsOC4zNCB2IDQ0LjM0IGMgMCw0LjYxIDEwLjMxLDguMzQgMjMuMDIsOC4zNCBWIDguMzQgWiIvPiYjeGE7JiN4YTs8cGF0aCBpZD0icGF0aDEwNDUxMCIgaW5rc2NhcGU6Y29ubmVjdG9yLWN1cnZhdHVyZT0iMCIgc3R5bGU9ImZpbGw6IzAwNzJjNiIgZD0ibSAyMi43LDYxLjAyIGggMC4zMiBjIDEyLjcxLDAgMjMuMDEsLTMuNzMgMjMuMDEsLTguMzQgViA4LjM0IEggMjIuNyBaIi8+JiN4YTsmI3hhOzxwYXRoIGlkPSJwYXRoMTA0NTE4IiBpbmtzY2FwZTpjb25uZWN0b3ItY3VydmF0dXJlPSIwIiBzdHlsZT0iZmlsbDojZmZmZmZmO2ZpbGwtb3BhY2l0eTowLjE1IiBkPSJtIDIyLjcsNjEuMDIgaCAwLjMyIGMgMTIuNzEsMCAyMy4wMSwtMy43MyAyMy4wMSwtOC4zNCBWIDguMzQgSCAyMi43IFoiLz4mI3hhOyYjeGE7PHBhdGggaWQ9InBhdGgxMDQ1MjYiIGlua3NjYXBlOmNvbm5lY3Rvci1jdXJ2YXR1cmU9IjAiIHN0eWxlPSJmaWxsOiNmZmZmZmYiIGQ9Im0gNDYuMDMsOC4zMyBjIDAsNC42MSAtMTAuMyw4LjM0IC0yMy4wMSw4LjM0IEMgMTAuMzEsMTYuNjcgMCwxMi45NCAwLDguMzMgMCwzLjczIDEwLjMxLDAgMjMuMDIsMCAzNS43MywwIDQ2LjAzLDMuNzMgNDYuMDMsOC4zMyBaIi8+JiN4YTsmI3hhOzxwYXRoIGlkPSJwYXRoMTA0NTM0IiBpbmtzY2FwZTpjb25uZWN0b3ItY3VydmF0dXJlPSIwIiBzdHlsZT0iZmlsbDojN2ZiYTAwIiBkPSJtIDQxLjMyLDcuODUgYyAwLDMuMDQgLTguMTksNS41IC0xOC4zMSw1LjUgLTEwLjExLDAgLTE4LjMxLC0yLjQ2IC0xOC4zMSwtNS41IDAsLTMuMDQgOC4yLC01LjUgMTguMzEsLTUuNSAxMC4xMiwwIDE4LjMxLDIuNDYgMTguMzEsNS41IHoiLz4mI3hhOyYjeGE7PHBhdGggaWQ9InBhdGgxMDQ1NDIiIGlua3NjYXBlOmNvbm5lY3Rvci1jdXJ2YXR1cmU9IjAiIHN0eWxlPSJmaWxsOiNiOGQ0MzIiIGQ9Im0gMzcuNSwxMS4yMSBjIDIuMzksLTAuOTMgMy44MywtMi4wOSAzLjgzLC0zLjM2IDAsLTMuMDQgLTguMTksLTUuNSAtMTguMzEsLTUuNSAtMTAuMTEsMCAtMTguMzEsMi40NiAtMTguMzEsNS41IDAsMS4yNyAxLjQ0LDIuNDMgMy44NCwzLjM2IDMuMzUsLTEuMyA4LjU4LC0yLjE0IDE0LjQ3LC0yLjE0IDUuOSwwIDExLjEzLDAuODQgMTQuNDgsMi4xNCB6Ii8+JiN4YTsmI3hhOzxwYXRoIGlkPSJwYXRoMTA0NTUwIiBpbmtzY2FwZTpjb25uZWN0b3ItY3VydmF0dXJlPSIwIiBzdHlsZT0iZmlsbDojZmZmZmZmIiBkPSJtIDE1LjcxLDM5LjExIGMgMCwxLjM4IC0wLjUsMi40NSAtMS41LDMuMjEgLTEsMC43NSAtMi4zOCwxLjEzIC00LjE0LDEuMTMgLTEuNSwwIC0yLjc1LC0wLjI3IC0zLjc2LC0wLjgxIFYgMzkuNCBjIDEuMTYsMC45OCAyLjQ0LDEuNDggMy44NCwxLjQ4IDAuNjcsMCAxLjIsLTAuMTQgMS41NiwtMC40MSAwLjM3LC0wLjI3IDAuNTYsLTAuNjMgMC41NiwtMS4wNyAwLC0wLjQ0IC0wLjE4LC0wLjgyIC0wLjUzLC0xLjE1IEMgMTEuMzgsMzcuOTMgMTAuNjYsMzcuNTEgOS41NywzNyA3LjM2LDM1Ljk2IDYuMjUsMzQuNTQgNi4yNSwzMi43NCBjIDAsLTEuMyAwLjQ4LC0yLjM1IDEuNDUsLTMuMTMgMC45NiwtMC43OSAyLjI1LC0xLjE4IDMuODUsLTEuMTggMS40MiwwIDIuNTksMC4xOCAzLjUyLDAuNTUgdiAzLjAzIEMgMTQuMDksMzEuMzQgMTIuOTgsMzEgMTEuNzMsMzEgYyAtMC42MywwIC0xLjEyLDAuMTMgLTEuNDksMC40IC0wLjM2LDAuMjcgLTAuNTQsMC42MiAtMC41NCwxLjA3IDAsMC40NiAwLjE0LDAuODMgMC40NCwxLjEzIDAuMjksMC4yOSAwLjg5LDAuNjUgMS44LDEuMDkgMS4zNiwwLjY0IDIuMzMsMS4yOSAyLjkxLDEuOTUgMC41NywwLjY2IDAuODYsMS40OSAwLjg2LDIuNDcgeiIvPiYjeGE7JiN4YTs8cGF0aCBpZD0icGF0aDEwNDU1OCIgaW5rc2NhcGU6Y29ubmVjdG9yLWN1cnZhdHVyZT0iMCIgc3R5bGU9ImZpbGw6I2ZmZmZmZiIgZD0ibSAzMS4zMywzNS44NCBjIDAsMS43MSAtMC4zOSwzLjE5IC0xLjE2LDQuNDUgLTAuNzgsMS4yNSAtMS44NywyLjEzIC0zLjI4LDIuNjQgbCA0LjIxLDMuOSBoIC00LjI1IGwgLTMuMDEsLTMuMzcgYyAtMS4yOSwtMC4wNSAtMi40NiwtMC4zOSAtMy40OSwtMS4wMyAtMS4wNCwtMC42MyAtMS44NCwtMS41IC0yLjQsLTIuNjEgLTAuNTcsLTEuMSAtMC44NSwtMi4zMyAtMC44NSwtMy42OSAwLC0xLjUgMC4zMSwtMi44NSAwLjkyLC00LjAyIDAuNjEsLTEuMTggMS40NywtMi4wOSAyLjU3LC0yLjcyIDEuMTEsLTAuNjQgMi4zOCwtMC45NiAzLjgxLC0wLjk2IDEuMzQsMCAyLjU0LDAuMzEgMy41OSwwLjkzIDEuMDYsMC42MSAxLjg4LDEuNDggMi40NywyLjYyIDAuNTgsMS4xMyAwLjg3LDIuNDIgMC44NywzLjg2IHogbSAtMy40NCwwLjE4IGMgMCwtMS40NyAtMC4zMiwtMi42MyAtMC45NiwtMy40OSAtMC42NSwtMC44NSAtMS41MiwtMS4yOCAtMi42NCwtMS4yOCAtMS4xMywwIC0yLjA0LDAuNDMgLTIuNzIsMS4yOSAtMC42OCwwLjg1IC0xLjAzLDEuOTkgLTEuMDMsMy40MiAwLDEuNDIgMC4zNCwyLjU1IDEuMDEsMy40IDAuNjcsMC44NCAxLjU1LDEuMjcgMi42NiwxLjI3IDEuMTMsMCAyLjAyLC0wLjQxIDIuNjgsLTEuMjMgMC42NywtMC44MiAxLC0xLjk1IDEsLTMuMzggeiIvPiYjeGE7JiN4YTs8cGF0aCBpZD0icGF0aDEwNDU2NiIgaW5rc2NhcGU6Y29ubmVjdG9yLWN1cnZhdHVyZT0iMCIgc3R5bGU9ImZpbGw6I2ZmZmZmZiIgZD0iTSA0Mi4zOSw0My4yIEggMzMuNzQgViAyOC42NyBoIDMuMjcgdiAxMS44OCBoIDUuMzggeiIvPiYjeGE7PC9zdmc+;" parent="1" vertex="1">
          <mxGeometry x="814" y="360" width="30" height="39.78" as="geometry" />
        </mxCell>
        <mxCell id="S3-eN4drHJ-bPGYd0D6c-13" value="" style="shape=image;verticalLabelPosition=bottom;labelBackgroundColor=#ffffff;verticalAlign=top;aspect=fixed;imageAspect=0;image=data:image/svg+xml,PHN2ZyB4bWxuczpjYz0iaHR0cDovL2NyZWF0aXZlY29tbW9ucy5vcmcvbnMjIiB4bWxuczpkYz0iaHR0cDovL3B1cmwub3JnL2RjL2VsZW1lbnRzLzEuMS8iIHhtbG5zOmlua3NjYXBlPSJodHRwOi8vd3d3Lmlua3NjYXBlLm9yZy9uYW1lc3BhY2VzL2lua3NjYXBlIiB4bWxuczpyZGY9Imh0dHA6Ly93d3cudzMub3JnLzE5OTkvMDIvMjItcmRmLXN5bnRheC1ucyMiIHhtbG5zOnNvZGlwb2RpPSJodHRwOi8vc29kaXBvZGkuc291cmNlZm9yZ2UubmV0L0RURC9zb2RpcG9kaS0wLmR0ZCIgeG1sbnM6c3ZnPSJodHRwOi8vd3d3LnczLm9yZy8yMDAwL3N2ZyIgeG1sbnM9Imh0dHA6Ly93d3cudzMub3JnLzIwMDAvc3ZnIiB4bWxuczp4bGluaz0iaHR0cDovL3d3dy53My5vcmcvMTk5OS94bGluayIgdmVyc2lvbj0iMS4xIiBpZD0ic3ZnMTE2MjAzIiBpbmtzY2FwZTp2ZXJzaW9uPSIwLjkyLjMgKDI0MDU1NDYsIDIwMTgtMDMtMTEpIiBzb2RpcG9kaTpkb2NuYW1lPSJhc3BfbmV0LnN2ZyIgeD0iMHB4IiB5PSIwcHgiIHZpZXdCb3g9IjAgMCA1Ny4wNiA1Ny4wNiIgc3R5bGU9ImVuYWJsZS1iYWNrZ3JvdW5kOm5ldyAwIDAgNTcuMDYgNTcuMDY7IiB4bWw6c3BhY2U9InByZXNlcnZlIj4mI3hhOzxzb2RpcG9kaTpuYW1lZHZpZXcgYm9yZGVyY29sb3I9IiM2NjY2NjYiIGJvcmRlcm9wYWNpdHk9IjEiIGZpdC1tYXJnaW4tYm90dG9tPSIwIiBmaXQtbWFyZ2luLWxlZnQ9IjAiIGZpdC1tYXJnaW4tcmlnaHQ9IjAiIGZpdC1tYXJnaW4tdG9wPSIwIiBncmlkdG9sZXJhbmNlPSIxMCIgZ3VpZGV0b2xlcmFuY2U9IjEwIiBpZD0ibmFtZWR2aWV3MTE2MjA1IiBpbmtzY2FwZTpjdXJyZW50LWxheWVyPSJzdmcxMTYyMDMiIGlua3NjYXBlOmN4PSIzOC4wMzk5ODMiIGlua3NjYXBlOmN5PSIzOC4wMzk5ODMiIGlua3NjYXBlOnBhZ2VvcGFjaXR5PSIwIiBpbmtzY2FwZTpwYWdlc2hhZG93PSIyIiBpbmtzY2FwZTp3aW5kb3ctaGVpZ2h0PSIxMDE3IiBpbmtzY2FwZTp3aW5kb3ctbWF4aW1pemVkPSIxIiBpbmtzY2FwZTp3aW5kb3ctd2lkdGg9IjE5MjAiIGlua3NjYXBlOndpbmRvdy14PSItOCIgaW5rc2NhcGU6d2luZG93LXk9Ii04IiBpbmtzY2FwZTp6b29tPSIxMS4xMDQwMDEiIG9iamVjdHRvbGVyYW5jZT0iMTAiIHBhZ2Vjb2xvcj0iI2ZmZmZmZiIgc2hvd2dyaWQ9ImZhbHNlIj4mI3hhOwk8L3NvZGlwb2RpOm5hbWVkdmlldz4mI3hhOzxnIGlkPSJnMTE2MjAxIiB0cmFuc2Zvcm09InRyYW5zbGF0ZSgtMC43NSwtMC43NSkiPiYjeGE7CTx0aXRsZSBpZD0idGl0bGUxMTYxNTEiPlBhZ2UtMTwvdGl0bGU+JiN4YTsJPGcgaWQ9Imdyb3VwMTAxNi0xIiB0cmFuc2Zvcm09InRyYW5zbGF0ZSgwLjc1LC0wLjc1KSI+JiN4YTsJCTx0aXRsZSBpZD0idGl0bGUxMTYxNTMiPkFTUC5ORVQ8L3RpdGxlPiYjeGE7CQk8ZyBpZD0ic2hhcGUxMDE3LTIiPiYjeGE7CQkJPHRpdGxlIGlkPSJ0aXRsZTExNjE1NSI+Y2lyY2xlNzE4MDwvdGl0bGU+JiN4YTsJCQk8Y2lyY2xlIGlkPSJlbGxpcHNlMTE2MTU3IiBzdHlsZT0iZmlsbDojNjMzQkEzOyIgY3g9IjI4LjUzIiBjeT0iMzAuMDMiIHI9IjI4LjUzIi8+JiN4YTsJCTwvZz4mI3hhOwkJPGcgaWQ9InNoYXBlMTAxOC00IiB0cmFuc2Zvcm09InRyYW5zbGF0ZSg4Ljc1NzE3LC04LjczNDY3KSI+JiN4YTsJCQk8dGl0bGUgaWQ9InRpdGxlMTE2MTYwIj5wYXRoNzE4MjwvdGl0bGU+JiN4YTsJCQk8cGF0aCBpZD0icGF0aDExNjE2MiIgaW5rc2NhcGU6Y29ubmVjdG9yLWN1cnZhdHVyZT0iMCIgc3R5bGU9ImZpbGw6IzVDMkQ5MTsiIGQ9Ik0wLDE4LjIzYy0xMS4xNCwxMS4xNC0xMS4xNCwyOS4xOSwwLDQwLjMzICAgICBzMjkuMTksMTEuMTQsNDAuMzMsMGwwLDBMMCwxOC4yM3oiLz4mI3hhOwkJPC9nPiYjeGE7CQk8ZyBpZD0ic2hhcGUxMDE5LTYiIHRyYW5zZm9ybT0idHJhbnNsYXRlKDExLjg4LC0xNC40KSI+JiN4YTsJCQk8dGl0bGUgaWQ9InRpdGxlMTE2MTY1Ij5wYXRoNzE4NDwvdGl0bGU+JiN4YTsJCQk8cGF0aCBpZD0icGF0aDExNjE2NyIgaW5rc2NhcGU6Y29ubmVjdG9yLWN1cnZhdHVyZT0iMCIgc3R5bGU9ImZpbGw6I0ZGRkZGRjsiIGQ9Ik0wLjkzLDU4LjU2Yy0wLjI1LDAtMC40OS0wLjEtMC42Ni0wLjI4ICAgICBDMC4wOSw1OC4xMSwwLDU3Ljg3LDAsNTcuNjJjMC0wLjI1LDAuMDktMC40OSwwLjI3LTAuNjdjMC4xNy0wLjE4LDAuNDEtMC4yOCwwLjY2LTAuMjhjMC4yNSwwLDAuNDksMC4xLDAuNjcsMC4yOCAgICAgYzAuMTgsMC4xNywwLjI4LDAuNDIsMC4yOCwwLjY3QzEuODcsNTguMTQsMS40NSw1OC41NiwwLjkzLDU4LjU2eiIvPiYjeGE7CQk8L2c+JiN4YTsJCTxnIGlkPSJzaGFwZTEwMjAtOCIgdHJhbnNmb3JtPSJ0cmFuc2xhdGUoMTUuMjAyNSwtMTQuNTY1KSI+JiN4YTsJCQk8dGl0bGUgaWQ9InRpdGxlMTE2MTcwIj5wYXRoNzE4NjwvdGl0bGU+JiN4YTsJCQk8cGF0aCBpZD0icGF0aDExNjE3MiIgaW5rc2NhcGU6Y29ubmVjdG9yLWN1cnZhdHVyZT0iMCIgc3R5bGU9ImZpbGw6I0ZGRkZGRjsiIGQ9Ik05LjY2LDU4LjU2SDcuOTNsLTYuMTYtOS41NyAgICAgYy0wLjE1LTAuMjQtMC4yOC0wLjQ5LTAuMzgtMC43NUgxLjMzYzAuMDYsMC41NCwwLjA4LDEuMDksMC4wNywxLjY0djguNjhIMHYtMTJoMS44Mmw2LDkuNDFjMC4yNSwwLjM5LDAuNDEsMC42NSwwLjQ5LDAuOCAgICAgYy0wLjA3LTAuNTgtMC4wOS0xLjE3LTAuMDgtMS43NnYtOC40NWgxLjRMOS42Niw1OC41NnoiLz4mI3hhOwkJPC9nPiYjeGE7CQk8ZyBpZD0ic2hhcGUxMDIxLTEwIiB0cmFuc2Zvcm09InRyYW5zbGF0ZSgyNi44MDUsLTE0LjU2NSkiPiYjeGE7CQkJPHRpdGxlIGlkPSJ0aXRsZTExNjE3NSI+cGF0aDcxODg8L3RpdGxlPiYjeGE7CQkJPHBhdGggaWQ9InBhdGgxMTYxNzciIGlua3NjYXBlOmNvbm5lY3Rvci1jdXJ2YXR1cmU9IjAiIHN0eWxlPSJmaWxsOiNGRkZGRkY7IiBkPSJNNi4zNSw1OC41Nkgwdi0xMmg2LjA4djEuMjdIMS40djMuOThoNC4zMyAgICAgdjEuMjZIMS40djQuMTloNC45NVY1OC41NnoiLz4mI3hhOwkJPC9nPiYjeGE7CQk8ZyBpZD0ic2hhcGUxMDIyLTEyIiB0cmFuc2Zvcm09InRyYW5zbGF0ZSgzNC4yMzc1LC0xNC41NjUpIj4mI3hhOwkJCTx0aXRsZSBpZD0idGl0bGUxMTYxODAiPnBhdGg3MTkwPC90aXRsZT4mI3hhOwkJCTxwYXRoIGlkPSJwYXRoMTE2MTgyIiBpbmtzY2FwZTpjb25uZWN0b3ItY3VydmF0dXJlPSIwIiBzdHlsZT0iZmlsbDojRkZGRkZGOyIgZD0iTTguMzEsNDcuODNINC44NXYxMC43M2gtMS40VjQ3LjgzSDB2LTEuMjcgICAgIGg4LjMyTDguMzEsNDcuODN6Ii8+JiN4YTsJCTwvZz4mI3hhOwkJPGcgaWQ9InNoYXBlMTAyMy0xNCIgdHJhbnNmb3JtPSJ0cmFuc2xhdGUoMTUuNDIsLTMwLjAwNzUpIj4mI3hhOwkJCTx0aXRsZSBpZD0idGl0bGUxMTYxODUiPnBhdGg3MTkyPC90aXRsZT4mI3hhOwkJCTxwYXRoIGlkPSJwYXRoMTE2MTg3IiBpbmtzY2FwZTpjb25uZWN0b3ItY3VydmF0dXJlPSIwIiBzdHlsZT0iZmlsbDojRkZGRkZGOyIgZD0iTTEwLjY2LDU4LjU2SDkuMTFsLTEuMy0zLjM2SDIuNzZsLTEuMTksMy4zNkgwICAgICBsNC42LTEyaDEuNDVMMTAuNjYsNTguNTZ6IE03LjM4LDUzLjk0TDUuNSw0OC44M2MtMC4wOS0wLjI2LTAuMTUtMC41My0wLjE5LTAuOGMtMC4wNCwwLjI3LTAuMTEsMC41NC0wLjIsMC44bC0xLjg2LDUuMTEgICAgIEw3LjM4LDUzLjk0eiIvPiYjeGE7CQk8L2c+JiN4YTsJCTxnIGlkPSJzaGFwZTEwMjQtMTYiIHRyYW5zZm9ybT0idHJhbnNsYXRlKDI3LjI5MjUsLTI5LjgzNSkiPiYjeGE7CQkJPHRpdGxlIGlkPSJ0aXRsZTExNjE5MCI+cGF0aDcxOTQ8L3RpdGxlPiYjeGE7CQkJPHBhdGggaWQ9InBhdGgxMTYxOTIiIGlua3NjYXBlOmNvbm5lY3Rvci1jdXJ2YXR1cmU9IjAiIHN0eWxlPSJmaWxsOiNGRkZGRkY7IiBkPSJNMCw1Ny45di0xLjY1YzAuMjEsMC4xOCwwLjQ0LDAuMzMsMC42OCwwLjQ1ICAgICBjMC4yNywwLjE0LDAuNTQsMC4yNSwwLjgzLDAuMzRDMS44LDU3LjEzLDIuMSw1Ny4yLDIuNCw1Ny4yNWMwLjI3LDAuMDUsMC41NSwwLjA3LDAuODIsMC4wN2MwLjY4LDAuMDUsMS4zNS0wLjEyLDEuOTMtMC40OCAgICAgYzAuNjYtMC41NSwwLjg0LTEuNDksMC40My0yLjI1Yy0wLjE2LTAuMjUtMC4zNi0wLjQ3LTAuNTktMC42NWMtMC4yOC0wLjIyLTAuNTgtMC40MS0wLjktMC41N2wtMS4xLTAuNTQgICAgIGMtMC40Mi0wLjIxLTAuODEtMC40Mi0xLjE3LTAuNjRjLTAuMzQtMC4yMS0wLjY2LTAuNDYtMC45NC0wLjc1Yy0wLjI2LTAuMjUtMC40Ny0wLjU0LTAuNjMtMC44NmMtMC4zNS0wLjg0LTAuMy0xLjc5LDAuMTItMi41OSAgICAgYzAuMjQtMC40LDAuNTYtMC43NCwwLjk1LTAuOTljMC40MS0wLjI3LDAuODYtMC40NywxLjMzLTAuNTljMC40OS0wLjEyLDAuOTktMC4xOSwxLjUtMC4xOWMwLjg4LTAuMDYsMS43NiwwLjA5LDIuNTgsMC40MnYxLjU5ICAgICBjLTAuODEtMC41Mi0xLjc2LTAuNzktMi43Mi0wLjc1Yy0wLjMxLDAtMC42MiwwLjAzLTAuOTIsMC4wOWMtMC4yOSwwLjA2LTAuNTcsMC4xNy0wLjgyLDAuMzJjLTAuMjMsMC4xNC0wLjQzLDAuMzMtMC41OCwwLjU2ICAgICBjLTAuMTYsMC4yNS0wLjI0LDAuNTQtMC4yMywwLjgzYy0wLjAxLDAuMjgsMC4wNSwwLjU1LDAuMTcsMC44YzAuMTMsMC4yNCwwLjMsMC40NCwwLjUxLDAuNjFjMC4yNSwwLjIsMC41MiwwLjM4LDAuODEsMC41MyAgICAgYzAuMzIsMC4xNywwLjY5LDAuMzYsMS4xMSwwLjU3YzAuNDIsMC4yLDAuODMsMC40MywxLjIzLDAuNjdjMC4zNiwwLjIxLDAuNywwLjQ2LDEuMDEsMC43NWMwLjI4LDAuMjcsMC41MiwwLjU5LDAuNjksMC45NCAgICAgYzAuMTcsMC4zNywwLjI2LDAuNzgsMC4yNSwxLjE5YzAuMDIsMC41Mi0wLjEsMS4wNC0wLjM0LDEuNWMtMC4yMywwLjQtMC41NSwwLjc0LTAuOTQsMC45OWMtMC40MiwwLjI3LTAuODgsMC40Ni0xLjM2LDAuNTYgICAgIGMtMC41MywwLjEyLTEuMDgsMC4xNy0xLjYyLDAuMTdjLTAuMjMsMC0wLjQ3LTAuMDEtMC43LTAuMDRDMiw1OC40OSwxLjcxLDU4LjQ0LDEuNDIsNTguMzhjLTAuMjgtMC4wNi0wLjU1LTAuMTMtMC44Mi0wLjIyICAgICBDMC4zOSw1OC4xLDAuMTksNTguMDEsMCw1Ny45eiIvPiYjeGE7CQk8L2c+JiN4YTsJCTxnIGlkPSJzaGFwZTEwMjUtMTgiIHRyYW5zZm9ybT0idHJhbnNsYXRlKDM2LjI2MjUsLTMwLjAzNzUpIj4mI3hhOwkJCTx0aXRsZSBpZD0idGl0bGUxMTYxOTUiPnBhdGg3MTk2PC90aXRsZT4mI3hhOwkJCTxwYXRoIGlkPSJwYXRoMTE2MTk3IiBpbmtzY2FwZTpjb25uZWN0b3ItY3VydmF0dXJlPSIwIiBzdHlsZT0iZmlsbDojRkZGRkZGOyIgZD0iTTEuNCw1NC4wNnY0LjVIMHYtMTJoMy4yOSAgICAgYzEuMDgtMC4wNywyLjE1LDAuMjYsMywwLjk0YzAuNzMsMC42OCwxLjEyLDEuNjUsMS4wNiwyLjY0YzAuMDMsMS4wNi0wLjQsMi4wOC0xLjE4LDIuNzlDNS4yOSw1My42OSw0LjE2LDU0LjA4LDMsNTQuMDIgICAgIEwxLjQsNTQuMDZ6IE0xLjQsNDcuODd2NC45MmgxLjVjMC44MSwwLjA2LDEuNjEtMC4xOCwyLjI1LTAuNjdjMC41Mi0wLjQ4LDAuOC0xLjE3LDAuNzUtMS44OGMwLTEuNTgtMC45My0yLjM3LTIuOC0yLjM3SDEuNHoiLz4mI3hhOwkJPC9nPiYjeGE7CTwvZz4mI3hhOzwvZz4mI3hhOzwvc3ZnPg==;" parent="1" vertex="1">
          <mxGeometry x="456" y="359" width="47" height="47" as="geometry" />
        </mxCell>
        <mxCell id="S3-eN4drHJ-bPGYd0D6c-16" value="" style="shape=image;verticalLabelPosition=bottom;verticalAlign=top;aspect=fixed;imageAspect=0;image=data:image/svg+xml,PHN2ZyB4bWxuczpjYz0iaHR0cDovL2NyZWF0aXZlY29tbW9ucy5vcmcvbnMjIiB4bWxuczpkYz0iaHR0cDovL3B1cmwub3JnL2RjL2VsZW1lbnRzLzEuMS8iIHhtbG5zOmlua3NjYXBlPSJodHRwOi8vd3d3Lmlua3NjYXBlLm9yZy9uYW1lc3BhY2VzL2lua3NjYXBlIiB4bWxuczpyZGY9Imh0dHA6Ly93d3cudzMub3JnLzE5OTkvMDIvMjItcmRmLXN5bnRheC1ucyMiIHhtbG5zOnNvZGlwb2RpPSJodHRwOi8vc29kaXBvZGkuc291cmNlZm9yZ2UubmV0L0RURC9zb2RpcG9kaS0wLmR0ZCIgeG1sbnM6c3ZnPSJodHRwOi8vd3d3LnczLm9yZy8yMDAwL3N2ZyIgeG1sbnM9Imh0dHA6Ly93d3cudzMub3JnLzIwMDAvc3ZnIiB4bWxuczp4bGluaz0iaHR0cDovL3d3dy53My5vcmcvMTk5OS94bGluayIgdmVyc2lvbj0iMS4xIiBpZD0ic3ZnMzg3MjcwIiBpbmtzY2FwZTp2ZXJzaW9uPSIwLjkyLjMgKDI0MDU1NDYsIDIwMTgtMDMtMTEpIiBzb2RpcG9kaTpkb2NuYW1lPSJ1c2VyX2dlbmVyaWMuc3ZnIiB4PSIwcHgiIHk9IjBweCIgdmlld0JveD0iMCAwIDMwLjUyIDM0LjExIiBzdHlsZT0iZW5hYmxlLWJhY2tncm91bmQ6bmV3IDAgMCAzMC41MiAzNC4xMTsiIHhtbDpzcGFjZT0icHJlc2VydmUiPiYjeGE7PHNvZGlwb2RpOm5hbWVkdmlldyBib3JkZXJjb2xvcj0iIzY2NjY2NiIgYm9yZGVyb3BhY2l0eT0iMSIgZml0LW1hcmdpbi1ib3R0b209IjAiIGZpdC1tYXJnaW4tbGVmdD0iMCIgZml0LW1hcmdpbi1yaWdodD0iMCIgZml0LW1hcmdpbi10b3A9IjAiIGdyaWR0b2xlcmFuY2U9IjEwIiBndWlkZXRvbGVyYW5jZT0iMTAiIGlkPSJuYW1lZHZpZXczODcyNzIiIGlua3NjYXBlOmN1cnJlbnQtbGF5ZXI9InN2ZzM4NzI3MCIgaW5rc2NhcGU6Y3g9IjIwLjM0MzczMiIgaW5rc2NhcGU6Y3k9IjIyLjczOTk4NSIgaW5rc2NhcGU6cGFnZW9wYWNpdHk9IjAiIGlua3NjYXBlOnBhZ2VzaGFkb3c9IjIiIGlua3NjYXBlOndpbmRvdy1oZWlnaHQ9IjEwMTciIGlua3NjYXBlOndpbmRvdy1tYXhpbWl6ZWQ9IjEiIGlua3NjYXBlOndpbmRvdy13aWR0aD0iMTkyMCIgaW5rc2NhcGU6d2luZG93LXg9Ii04IiBpbmtzY2FwZTp3aW5kb3cteT0iLTgiIGlua3NjYXBlOnpvb209IjE4LjI2MDMzMiIgb2JqZWN0dG9sZXJhbmNlPSIxMCIgcGFnZWNvbG9yPSIjZmZmZmZmIiBzaG93Z3JpZD0iZmFsc2UiPiYjeGE7CTwvc29kaXBvZGk6bmFtZWR2aWV3PiYjeGE7PGcgaWQ9ImczODcyNjgiIHRyYW5zZm9ybT0idHJhbnNsYXRlKC0wLjczNTk1NzIyLC0wLjc0OTk5ODgyKSI+JiN4YTsJPHRpdGxlIGlkPSJ0aXRsZTM4NzI1MyI+UGFnZS0xPC90aXRsZT4mI3hhOwk8ZyBpZD0iZ3JvdXA1ODc4LTEiIHRyYW5zZm9ybT0idHJhbnNsYXRlKDEuNSwtMS41KSI+JiN4YTsJCTx0aXRsZSBpZD0idGl0bGUzODcyNTUiPlVzZXIgKEdlbmVyaWMpPC90aXRsZT4mI3hhOwkJPGcgaWQ9InNoYXBlNTg3OS0yIiB0cmFuc2Zvcm09InRyYW5zbGF0ZSg1LjQzLC0xNC40OSkiPiYjeGE7CQkJPHRpdGxlIGlkPSJ0aXRsZTM4NzI1NyI+Y2lyY2xlODAxMTwvdGl0bGU+JiN4YTsJCQkmI3hhOwkJCQk8Y2lyY2xlIGlkPSJlbGxpcHNlMzg3MjU5IiBzdHlsZT0iZmlsbDojRkZGRkZGO3N0cm9rZTojNTU2QThBO3N0cm9rZS13aWR0aDoxLjU7c3Ryb2tlLWxpbmVjYXA6c3F1YXJlO3N0cm9rZS1taXRlcmxpbWl0OjM7IiBjeD0iOS4wNiIgY3k9IjI2LjU1IiByPSI5LjA2Ii8+JiN4YTsJCTwvZz4mI3hhOwkJPGcgaWQ9InNoYXBlNTg4MC00Ij4mI3hhOwkJCTx0aXRsZSBpZD0idGl0bGUzODcyNjIiPnBhdGg4MDEzPC90aXRsZT4mI3hhOwkJCSYjeGE7CQkJCTxwYXRoIGlkPSJwYXRoMzg3MjY0IiBpbmtzY2FwZTpjb25uZWN0b3ItY3VydmF0dXJlPSIwIiBzdHlsZT0iZmlsbDojRkZGRkZGO3N0cm9rZTojNTU2QThBO3N0cm9rZS13aWR0aDoxLjU7c3Ryb2tlLWxpbmVjYXA6c3F1YXJlO3N0cm9rZS1taXRlcmxpbWl0OjM7IiBkPSIgICAgIE0wLDM1LjYxYzAuMTUtOC4wMSw2Ljc2LTE0LjM3LDE0Ljc2LTE0LjIzYzcuOCwwLjE0LDE0LjA4LDYuNDMsMTQuMjMsMTQuMjNIMHoiLz4mI3hhOwkJPC9nPiYjeGE7CTwvZz4mI3hhOzwvZz4mI3hhOzwvc3ZnPg==;imageBackground=none;imageBorder=none;" parent="1" vertex="1">
          <mxGeometry x="106" y="358.78" width="36.47" height="40" as="geometry" />
        </mxCell>
        <mxCell id="S3-eN4drHJ-bPGYd0D6c-17" value="" style="endArrow=none;html=1;rounded=0;" parent="1" edge="1">
          <mxGeometry width="50" height="50" relative="1" as="geometry">
            <mxPoint x="421" y="520" as="sourcePoint" />
            <mxPoint x="421" y="409" as="targetPoint" />
          </mxGeometry>
        </mxCell>
        <mxCell id="S3-eN4drHJ-bPGYd0D6c-18" value="" style="endArrow=none;html=1;rounded=0;" parent="1" edge="1">
          <mxGeometry width="50" height="50" relative="1" as="geometry">
            <mxPoint x="776" y="520" as="sourcePoint" />
            <mxPoint x="775.71" y="409" as="targetPoint" />
          </mxGeometry>
        </mxCell>
        <mxCell id="S3-eN4drHJ-bPGYd0D6c-19" value="" style="endArrow=classic;html=1;rounded=0;" parent="1" edge="1">
          <mxGeometry width="50" height="50" relative="1" as="geometry">
            <mxPoint x="66" y="452" as="sourcePoint" />
            <mxPoint x="421" y="452" as="targetPoint" />
          </mxGeometry>
        </mxCell>
        <mxCell id="S3-eN4drHJ-bPGYd0D6c-20" value="&lt;font style=&quot;color: rgb(255, 102, 255);&quot;&gt;Authenticate Request&lt;/font&gt; &lt;font style=&quot;color: rgb(93, 93, 93);&quot;&gt;[Username, PasswordHash]&lt;/font&gt;" style="text;html=1;align=center;verticalAlign=middle;resizable=0;points=[];autosize=1;strokeColor=none;fillColor=none;" parent="1" vertex="1">
          <mxGeometry x="65" y="420" width="290" height="30" as="geometry" />
        </mxCell>
        <mxCell id="S3-eN4drHJ-bPGYd0D6c-21" value="" style="endArrow=classic;html=1;rounded=0;" parent="1" edge="1">
          <mxGeometry width="50" height="50" relative="1" as="geometry">
            <mxPoint x="421" y="492" as="sourcePoint" />
            <mxPoint x="66" y="492" as="targetPoint" />
          </mxGeometry>
        </mxCell>
        <mxCell id="S3-eN4drHJ-bPGYd0D6c-23" value="&lt;font style=&quot;color: rgb(255, 102, 255);&quot;&gt;Authenticate Response&lt;/font&gt;&amp;nbsp;&lt;font style=&quot;color: rgb(93, 93, 93);&quot;&gt;[AuthToken]&lt;/font&gt;" style="text;html=1;align=center;verticalAlign=middle;resizable=0;points=[];autosize=1;strokeColor=none;fillColor=none;" parent="1" vertex="1">
          <mxGeometry x="211" y="462" width="210" height="30" as="geometry" />
        </mxCell>
        <mxCell id="S3-eN4drHJ-bPGYd0D6c-25" value="" style="endArrow=classic;html=1;rounded=0;" parent="1" edge="1">
          <mxGeometry width="50" height="50" relative="1" as="geometry">
            <mxPoint x="421" y="462" as="sourcePoint" />
            <mxPoint x="776" y="462" as="targetPoint" />
          </mxGeometry>
        </mxCell>
        <mxCell id="S3-eN4drHJ-bPGYd0D6c-26" value="Fetch User by Username &amp;amp; Password Hash" style="text;html=1;align=center;verticalAlign=middle;resizable=0;points=[];autosize=1;strokeColor=none;fillColor=none;" parent="1" vertex="1">
          <mxGeometry x="456" y="430" width="260" height="30" as="geometry" />
        </mxCell>
        <mxCell id="S3-eN4drHJ-bPGYd0D6c-27" value="" style="endArrow=classic;html=1;rounded=0;" parent="1" edge="1">
          <mxGeometry width="50" height="50" relative="1" as="geometry">
            <mxPoint x="776" y="476.65999999999997" as="sourcePoint" />
            <mxPoint x="421" y="476.65999999999997" as="targetPoint" />
          </mxGeometry>
        </mxCell>
        <mxCell id="S3-eN4drHJ-bPGYd0D6c-39" value="&lt;font color=&quot;#31b199&quot;&gt;&lt;span style=&quot;font-size: 18px;&quot;&gt;VaultEntry Create/Update Flow&lt;/span&gt;&lt;/font&gt;" style="text;html=1;fontSize=24;fontStyle=0;verticalAlign=middle;align=center;fillColor=none;strokeColor=none;fontColor=light-dark(#10BFFF,#EDEDED);labelBorderColor=none;labelBackgroundColor=none;textShadow=0;" parent="1" vertex="1">
          <mxGeometry x="296" y="530" width="250" height="40" as="geometry" />
        </mxCell>
        <mxCell id="S3-eN4drHJ-bPGYd0D6c-41" value="Client" style="rounded=0;whiteSpace=wrap;html=1;" parent="1" vertex="1">
          <mxGeometry x="6" y="590.22" width="120" height="30" as="geometry" />
        </mxCell>
        <mxCell id="S3-eN4drHJ-bPGYd0D6c-42" value="Server" style="rounded=0;whiteSpace=wrap;html=1;" parent="1" vertex="1">
          <mxGeometry x="361" y="590.22" width="120" height="30" as="geometry" />
        </mxCell>
        <mxCell id="S3-eN4drHJ-bPGYd0D6c-43" value="DB" style="rounded=0;whiteSpace=wrap;html=1;" parent="1" vertex="1">
          <mxGeometry x="716" y="590.22" width="120" height="30" as="geometry" />
        </mxCell>
        <mxCell id="S3-eN4drHJ-bPGYd0D6c-44" value="" style="endArrow=none;html=1;rounded=0;" parent="1" edge="1">
          <mxGeometry width="50" height="50" relative="1" as="geometry">
            <mxPoint x="66" y="760" as="sourcePoint" />
            <mxPoint x="65.89999999999999" y="620.22" as="targetPoint" />
          </mxGeometry>
        </mxCell>
        <mxCell id="S3-eN4drHJ-bPGYd0D6c-45" value="" style="shape=image;verticalLabelPosition=bottom;labelBackgroundColor=#ffffff;verticalAlign=top;aspect=fixed;imageAspect=0;image=data:image/svg+xml,PHN2ZyB4bWxuczpkYz0iaHR0cDovL3B1cmwub3JnL2RjL2VsZW1lbnRzLzEuMS8iIHhtbG5zOmNjPSJodHRwOi8vY3JlYXRpdmVjb21tb25zLm9yZy9ucyMiIHhtbG5zOnJkZj0iaHR0cDovL3d3dy53My5vcmcvMTk5OS8wMi8yMi1yZGYtc3ludGF4LW5zIyIgeG1sbnM6c3ZnPSJodHRwOi8vd3d3LnczLm9yZy8yMDAwL3N2ZyIgeG1sbnM9Imh0dHA6Ly93d3cudzMub3JnLzIwMDAvc3ZnIiB4bWxuczpzb2RpcG9kaT0iaHR0cDovL3NvZGlwb2RpLnNvdXJjZWZvcmdlLm5ldC9EVEQvc29kaXBvZGktMC5kdGQiIHhtbG5zOmlua3NjYXBlPSJodHRwOi8vd3d3Lmlua3NjYXBlLm9yZy9uYW1lc3BhY2VzL2lua3NjYXBlIiB2ZXJzaW9uPSIxLjEiIGlkPSJzdmcxMDQ1NzIiIGlua3NjYXBlOnZlcnNpb249IjAuOTIuMyAoMjQwNTU0NiwgMjAxOC0wMy0xMSkiIHNvZGlwb2RpOmRvY25hbWU9InNxbC5zdmciIHg9IjBweCIgeT0iMHB4IiB2aWV3Qm94PSIwIDAgNDYuMDMgNjEuMDIiIHhtbDpzcGFjZT0icHJlc2VydmUiIHdpZHRoPSI0Ni4wMjk5OTkiIGhlaWdodD0iNjEuMDIiPjxtZXRhZGF0YSBpZD0ibWV0YWRhdGExMDQ4Ij48cmRmOlJERj48Y2M6V29yayByZGY6YWJvdXQ9IiI+PGRjOmZvcm1hdD5pbWFnZS9zdmcreG1sPC9kYzpmb3JtYXQ+PGRjOnR5cGUgcmRmOnJlc291cmNlPSJodHRwOi8vcHVybC5vcmcvZGMvZGNtaXR5cGUvU3RpbGxJbWFnZSIvPjxkYzp0aXRsZS8+PC9jYzpXb3JrPjwvcmRmOlJERj48L21ldGFkYXRhPjxkZWZzIGlkPSJkZWZzMTA0NiI+JiN4YTsJJiN4YTsmI3hhOwkmI3hhOyYjeGE7CSYjeGE7JiN4YTsJJiN4YTsmI3hhOwkmI3hhOyYjeGE7CSYjeGE7JiN4YTsJJiN4YTsmI3hhOwkmI3hhOyYjeGE7CSYjeGE7JiN4YTsJCSYjeGE7CSYjeGE7CQkmI3hhOwkmI3hhOwkJJiN4YTsJJiN4YTsJCSYjeGE7CSYjeGE7CQkmI3hhOwkmI3hhOwkJJiN4YTsJJiN4YTsJCSYjeGE7CSYjeGE7CQkmI3hhOwk8L2RlZnM+JiN4YTs8ZmlsdGVyIGlkPSJmaWx0ZXJfMiI+JiN4YTsJPGZlR2F1c3NpYW5CbHVyIGlkPSJmZUdhdXNzaWFuQmx1cjEwNDQ4OSIgc3RkRGV2aWF0aW9uPSIyIi8+JiN4YTs8L2ZpbHRlcj4mI3hhOzxzb2RpcG9kaTpuYW1lZHZpZXcgYm9yZGVyY29sb3I9IiM2NjY2NjYiIGJvcmRlcm9wYWNpdHk9IjEiIGZpdC1tYXJnaW4tYm90dG9tPSIwIiBmaXQtbWFyZ2luLWxlZnQ9IjAiIGZpdC1tYXJnaW4tcmlnaHQ9IjAiIGZpdC1tYXJnaW4tdG9wPSIwIiBncmlkdG9sZXJhbmNlPSIxMCIgZ3VpZGV0b2xlcmFuY2U9IjEwIiBpZD0ibmFtZWR2aWV3MTA0NTc0IiBpbmtzY2FwZTpjdXJyZW50LWxheWVyPSJzdmcxMDQ1NzIiIGlua3NjYXBlOmN4PSIwLjI3NDc3MzkyIiBpbmtzY2FwZTpjeT0iMjcuOTI1ODA5IiBpbmtzY2FwZTpwYWdlb3BhY2l0eT0iMCIgaW5rc2NhcGU6cGFnZXNoYWRvdz0iMiIgaW5rc2NhcGU6d2luZG93LWhlaWdodD0iMTAxNyIgaW5rc2NhcGU6d2luZG93LW1heGltaXplZD0iMSIgaW5rc2NhcGU6d2luZG93LXdpZHRoPSIxOTIwIiBpbmtzY2FwZTp3aW5kb3cteD0iLTgiIGlua3NjYXBlOndpbmRvdy15PSItOCIgaW5rc2NhcGU6em9vbT0iNy42MDUyNjMyIiBvYmplY3R0b2xlcmFuY2U9IjEwIiBwYWdlY29sb3I9IiNmZmZmZmYiIHNob3dncmlkPSJmYWxzZSI+JiN4YTsJPC9zb2RpcG9kaTpuYW1lZHZpZXc+JiN4YTsmI3hhOzxwYXRoIGlkPSJwYXRoMTA0NTAyIiBpbmtzY2FwZTpjb25uZWN0b3ItY3VydmF0dXJlPSIwIiBzdHlsZT0iZmlsbDojMDA3MmM2IiBkPSJtIDAsOC4zNCB2IDQ0LjM0IGMgMCw0LjYxIDEwLjMxLDguMzQgMjMuMDIsOC4zNCBWIDguMzQgWiIvPiYjeGE7JiN4YTs8cGF0aCBpZD0icGF0aDEwNDUxMCIgaW5rc2NhcGU6Y29ubmVjdG9yLWN1cnZhdHVyZT0iMCIgc3R5bGU9ImZpbGw6IzAwNzJjNiIgZD0ibSAyMi43LDYxLjAyIGggMC4zMiBjIDEyLjcxLDAgMjMuMDEsLTMuNzMgMjMuMDEsLTguMzQgViA4LjM0IEggMjIuNyBaIi8+JiN4YTsmI3hhOzxwYXRoIGlkPSJwYXRoMTA0NTE4IiBpbmtzY2FwZTpjb25uZWN0b3ItY3VydmF0dXJlPSIwIiBzdHlsZT0iZmlsbDojZmZmZmZmO2ZpbGwtb3BhY2l0eTowLjE1IiBkPSJtIDIyLjcsNjEuMDIgaCAwLjMyIGMgMTIuNzEsMCAyMy4wMSwtMy43MyAyMy4wMSwtOC4zNCBWIDguMzQgSCAyMi43IFoiLz4mI3hhOyYjeGE7PHBhdGggaWQ9InBhdGgxMDQ1MjYiIGlua3NjYXBlOmNvbm5lY3Rvci1jdXJ2YXR1cmU9IjAiIHN0eWxlPSJmaWxsOiNmZmZmZmYiIGQ9Im0gNDYuMDMsOC4zMyBjIDAsNC42MSAtMTAuMyw4LjM0IC0yMy4wMSw4LjM0IEMgMTAuMzEsMTYuNjcgMCwxMi45NCAwLDguMzMgMCwzLjczIDEwLjMxLDAgMjMuMDIsMCAzNS43MywwIDQ2LjAzLDMuNzMgNDYuMDMsOC4zMyBaIi8+JiN4YTsmI3hhOzxwYXRoIGlkPSJwYXRoMTA0NTM0IiBpbmtzY2FwZTpjb25uZWN0b3ItY3VydmF0dXJlPSIwIiBzdHlsZT0iZmlsbDojN2ZiYTAwIiBkPSJtIDQxLjMyLDcuODUgYyAwLDMuMDQgLTguMTksNS41IC0xOC4zMSw1LjUgLTEwLjExLDAgLTE4LjMxLC0yLjQ2IC0xOC4zMSwtNS41IDAsLTMuMDQgOC4yLC01LjUgMTguMzEsLTUuNSAxMC4xMiwwIDE4LjMxLDIuNDYgMTguMzEsNS41IHoiLz4mI3hhOyYjeGE7PHBhdGggaWQ9InBhdGgxMDQ1NDIiIGlua3NjYXBlOmNvbm5lY3Rvci1jdXJ2YXR1cmU9IjAiIHN0eWxlPSJmaWxsOiNiOGQ0MzIiIGQ9Im0gMzcuNSwxMS4yMSBjIDIuMzksLTAuOTMgMy44MywtMi4wOSAzLjgzLC0zLjM2IDAsLTMuMDQgLTguMTksLTUuNSAtMTguMzEsLTUuNSAtMTAuMTEsMCAtMTguMzEsMi40NiAtMTguMzEsNS41IDAsMS4yNyAxLjQ0LDIuNDMgMy44NCwzLjM2IDMuMzUsLTEuMyA4LjU4LC0yLjE0IDE0LjQ3LC0yLjE0IDUuOSwwIDExLjEzLDAuODQgMTQuNDgsMi4xNCB6Ii8+JiN4YTsmI3hhOzxwYXRoIGlkPSJwYXRoMTA0NTUwIiBpbmtzY2FwZTpjb25uZWN0b3ItY3VydmF0dXJlPSIwIiBzdHlsZT0iZmlsbDojZmZmZmZmIiBkPSJtIDE1LjcxLDM5LjExIGMgMCwxLjM4IC0wLjUsMi40NSAtMS41LDMuMjEgLTEsMC43NSAtMi4zOCwxLjEzIC00LjE0LDEuMTMgLTEuNSwwIC0yLjc1LC0wLjI3IC0zLjc2LC0wLjgxIFYgMzkuNCBjIDEuMTYsMC45OCAyLjQ0LDEuNDggMy44NCwxLjQ4IDAuNjcsMCAxLjIsLTAuMTQgMS41NiwtMC40MSAwLjM3LC0wLjI3IDAuNTYsLTAuNjMgMC41NiwtMS4wNyAwLC0wLjQ0IC0wLjE4LC0wLjgyIC0wLjUzLC0xLjE1IEMgMTEuMzgsMzcuOTMgMTAuNjYsMzcuNTEgOS41NywzNyA3LjM2LDM1Ljk2IDYuMjUsMzQuNTQgNi4yNSwzMi43NCBjIDAsLTEuMyAwLjQ4LC0yLjM1IDEuNDUsLTMuMTMgMC45NiwtMC43OSAyLjI1LC0xLjE4IDMuODUsLTEuMTggMS40MiwwIDIuNTksMC4xOCAzLjUyLDAuNTUgdiAzLjAzIEMgMTQuMDksMzEuMzQgMTIuOTgsMzEgMTEuNzMsMzEgYyAtMC42MywwIC0xLjEyLDAuMTMgLTEuNDksMC40IC0wLjM2LDAuMjcgLTAuNTQsMC42MiAtMC41NCwxLjA3IDAsMC40NiAwLjE0LDAuODMgMC40NCwxLjEzIDAuMjksMC4yOSAwLjg5LDAuNjUgMS44LDEuMDkgMS4zNiwwLjY0IDIuMzMsMS4yOSAyLjkxLDEuOTUgMC41NywwLjY2IDAuODYsMS40OSAwLjg2LDIuNDcgeiIvPiYjeGE7JiN4YTs8cGF0aCBpZD0icGF0aDEwNDU1OCIgaW5rc2NhcGU6Y29ubmVjdG9yLWN1cnZhdHVyZT0iMCIgc3R5bGU9ImZpbGw6I2ZmZmZmZiIgZD0ibSAzMS4zMywzNS44NCBjIDAsMS43MSAtMC4zOSwzLjE5IC0xLjE2LDQuNDUgLTAuNzgsMS4yNSAtMS44NywyLjEzIC0zLjI4LDIuNjQgbCA0LjIxLDMuOSBoIC00LjI1IGwgLTMuMDEsLTMuMzcgYyAtMS4yOSwtMC4wNSAtMi40NiwtMC4zOSAtMy40OSwtMS4wMyAtMS4wNCwtMC42MyAtMS44NCwtMS41IC0yLjQsLTIuNjEgLTAuNTcsLTEuMSAtMC44NSwtMi4zMyAtMC44NSwtMy42OSAwLC0xLjUgMC4zMSwtMi44NSAwLjkyLC00LjAyIDAuNjEsLTEuMTggMS40NywtMi4wOSAyLjU3LC0yLjcyIDEuMTEsLTAuNjQgMi4zOCwtMC45NiAzLjgxLC0wLjk2IDEuMzQsMCAyLjU0LDAuMzEgMy41OSwwLjkzIDEuMDYsMC42MSAxLjg4LDEuNDggMi40NywyLjYyIDAuNTgsMS4xMyAwLjg3LDIuNDIgMC44NywzLjg2IHogbSAtMy40NCwwLjE4IGMgMCwtMS40NyAtMC4zMiwtMi42MyAtMC45NiwtMy40OSAtMC42NSwtMC44NSAtMS41MiwtMS4yOCAtMi42NCwtMS4yOCAtMS4xMywwIC0yLjA0LDAuNDMgLTIuNzIsMS4yOSAtMC42OCwwLjg1IC0xLjAzLDEuOTkgLTEuMDMsMy40MiAwLDEuNDIgMC4zNCwyLjU1IDEuMDEsMy40IDAuNjcsMC44NCAxLjU1LDEuMjcgMi42NiwxLjI3IDEuMTMsMCAyLjAyLC0wLjQxIDIuNjgsLTEuMjMgMC42NywtMC44MiAxLC0xLjk1IDEsLTMuMzggeiIvPiYjeGE7JiN4YTs8cGF0aCBpZD0icGF0aDEwNDU2NiIgaW5rc2NhcGU6Y29ubmVjdG9yLWN1cnZhdHVyZT0iMCIgc3R5bGU9ImZpbGw6I2ZmZmZmZiIgZD0iTSA0Mi4zOSw0My4yIEggMzMuNzQgViAyOC42NyBoIDMuMjcgdiAxMS44OCBoIDUuMzggeiIvPiYjeGE7PC9zdmc+;" parent="1" vertex="1">
          <mxGeometry x="814" y="571.22" width="30" height="39.78" as="geometry" />
        </mxCell>
        <mxCell id="S3-eN4drHJ-bPGYd0D6c-46" value="" style="shape=image;verticalLabelPosition=bottom;labelBackgroundColor=#ffffff;verticalAlign=top;aspect=fixed;imageAspect=0;image=data:image/svg+xml,PHN2ZyB4bWxuczpjYz0iaHR0cDovL2NyZWF0aXZlY29tbW9ucy5vcmcvbnMjIiB4bWxuczpkYz0iaHR0cDovL3B1cmwub3JnL2RjL2VsZW1lbnRzLzEuMS8iIHhtbG5zOmlua3NjYXBlPSJodHRwOi8vd3d3Lmlua3NjYXBlLm9yZy9uYW1lc3BhY2VzL2lua3NjYXBlIiB4bWxuczpyZGY9Imh0dHA6Ly93d3cudzMub3JnLzE5OTkvMDIvMjItcmRmLXN5bnRheC1ucyMiIHhtbG5zOnNvZGlwb2RpPSJodHRwOi8vc29kaXBvZGkuc291cmNlZm9yZ2UubmV0L0RURC9zb2RpcG9kaS0wLmR0ZCIgeG1sbnM6c3ZnPSJodHRwOi8vd3d3LnczLm9yZy8yMDAwL3N2ZyIgeG1sbnM9Imh0dHA6Ly93d3cudzMub3JnLzIwMDAvc3ZnIiB4bWxuczp4bGluaz0iaHR0cDovL3d3dy53My5vcmcvMTk5OS94bGluayIgdmVyc2lvbj0iMS4xIiBpZD0ic3ZnMTE2MjAzIiBpbmtzY2FwZTp2ZXJzaW9uPSIwLjkyLjMgKDI0MDU1NDYsIDIwMTgtMDMtMTEpIiBzb2RpcG9kaTpkb2NuYW1lPSJhc3BfbmV0LnN2ZyIgeD0iMHB4IiB5PSIwcHgiIHZpZXdCb3g9IjAgMCA1Ny4wNiA1Ny4wNiIgc3R5bGU9ImVuYWJsZS1iYWNrZ3JvdW5kOm5ldyAwIDAgNTcuMDYgNTcuMDY7IiB4bWw6c3BhY2U9InByZXNlcnZlIj4mI3hhOzxzb2RpcG9kaTpuYW1lZHZpZXcgYm9yZGVyY29sb3I9IiM2NjY2NjYiIGJvcmRlcm9wYWNpdHk9IjEiIGZpdC1tYXJnaW4tYm90dG9tPSIwIiBmaXQtbWFyZ2luLWxlZnQ9IjAiIGZpdC1tYXJnaW4tcmlnaHQ9IjAiIGZpdC1tYXJnaW4tdG9wPSIwIiBncmlkdG9sZXJhbmNlPSIxMCIgZ3VpZGV0b2xlcmFuY2U9IjEwIiBpZD0ibmFtZWR2aWV3MTE2MjA1IiBpbmtzY2FwZTpjdXJyZW50LWxheWVyPSJzdmcxMTYyMDMiIGlua3NjYXBlOmN4PSIzOC4wMzk5ODMiIGlua3NjYXBlOmN5PSIzOC4wMzk5ODMiIGlua3NjYXBlOnBhZ2VvcGFjaXR5PSIwIiBpbmtzY2FwZTpwYWdlc2hhZG93PSIyIiBpbmtzY2FwZTp3aW5kb3ctaGVpZ2h0PSIxMDE3IiBpbmtzY2FwZTp3aW5kb3ctbWF4aW1pemVkPSIxIiBpbmtzY2FwZTp3aW5kb3ctd2lkdGg9IjE5MjAiIGlua3NjYXBlOndpbmRvdy14PSItOCIgaW5rc2NhcGU6d2luZG93LXk9Ii04IiBpbmtzY2FwZTp6b29tPSIxMS4xMDQwMDEiIG9iamVjdHRvbGVyYW5jZT0iMTAiIHBhZ2Vjb2xvcj0iI2ZmZmZmZiIgc2hvd2dyaWQ9ImZhbHNlIj4mI3hhOwk8L3NvZGlwb2RpOm5hbWVkdmlldz4mI3hhOzxnIGlkPSJnMTE2MjAxIiB0cmFuc2Zvcm09InRyYW5zbGF0ZSgtMC43NSwtMC43NSkiPiYjeGE7CTx0aXRsZSBpZD0idGl0bGUxMTYxNTEiPlBhZ2UtMTwvdGl0bGU+JiN4YTsJPGcgaWQ9Imdyb3VwMTAxNi0xIiB0cmFuc2Zvcm09InRyYW5zbGF0ZSgwLjc1LC0wLjc1KSI+JiN4YTsJCTx0aXRsZSBpZD0idGl0bGUxMTYxNTMiPkFTUC5ORVQ8L3RpdGxlPiYjeGE7CQk8ZyBpZD0ic2hhcGUxMDE3LTIiPiYjeGE7CQkJPHRpdGxlIGlkPSJ0aXRsZTExNjE1NSI+Y2lyY2xlNzE4MDwvdGl0bGU+JiN4YTsJCQk8Y2lyY2xlIGlkPSJlbGxpcHNlMTE2MTU3IiBzdHlsZT0iZmlsbDojNjMzQkEzOyIgY3g9IjI4LjUzIiBjeT0iMzAuMDMiIHI9IjI4LjUzIi8+JiN4YTsJCTwvZz4mI3hhOwkJPGcgaWQ9InNoYXBlMTAxOC00IiB0cmFuc2Zvcm09InRyYW5zbGF0ZSg4Ljc1NzE3LC04LjczNDY3KSI+JiN4YTsJCQk8dGl0bGUgaWQ9InRpdGxlMTE2MTYwIj5wYXRoNzE4MjwvdGl0bGU+JiN4YTsJCQk8cGF0aCBpZD0icGF0aDExNjE2MiIgaW5rc2NhcGU6Y29ubmVjdG9yLWN1cnZhdHVyZT0iMCIgc3R5bGU9ImZpbGw6IzVDMkQ5MTsiIGQ9Ik0wLDE4LjIzYy0xMS4xNCwxMS4xNC0xMS4xNCwyOS4xOSwwLDQwLjMzICAgICBzMjkuMTksMTEuMTQsNDAuMzMsMGwwLDBMMCwxOC4yM3oiLz4mI3hhOwkJPC9nPiYjeGE7CQk8ZyBpZD0ic2hhcGUxMDE5LTYiIHRyYW5zZm9ybT0idHJhbnNsYXRlKDExLjg4LC0xNC40KSI+JiN4YTsJCQk8dGl0bGUgaWQ9InRpdGxlMTE2MTY1Ij5wYXRoNzE4NDwvdGl0bGU+JiN4YTsJCQk8cGF0aCBpZD0icGF0aDExNjE2NyIgaW5rc2NhcGU6Y29ubmVjdG9yLWN1cnZhdHVyZT0iMCIgc3R5bGU9ImZpbGw6I0ZGRkZGRjsiIGQ9Ik0wLjkzLDU4LjU2Yy0wLjI1LDAtMC40OS0wLjEtMC42Ni0wLjI4ICAgICBDMC4wOSw1OC4xMSwwLDU3Ljg3LDAsNTcuNjJjMC0wLjI1LDAuMDktMC40OSwwLjI3LTAuNjdjMC4xNy0wLjE4LDAuNDEtMC4yOCwwLjY2LTAuMjhjMC4yNSwwLDAuNDksMC4xLDAuNjcsMC4yOCAgICAgYzAuMTgsMC4xNywwLjI4LDAuNDIsMC4yOCwwLjY3QzEuODcsNTguMTQsMS40NSw1OC41NiwwLjkzLDU4LjU2eiIvPiYjeGE7CQk8L2c+JiN4YTsJCTxnIGlkPSJzaGFwZTEwMjAtOCIgdHJhbnNmb3JtPSJ0cmFuc2xhdGUoMTUuMjAyNSwtMTQuNTY1KSI+JiN4YTsJCQk8dGl0bGUgaWQ9InRpdGxlMTE2MTcwIj5wYXRoNzE4NjwvdGl0bGU+JiN4YTsJCQk8cGF0aCBpZD0icGF0aDExNjE3MiIgaW5rc2NhcGU6Y29ubmVjdG9yLWN1cnZhdHVyZT0iMCIgc3R5bGU9ImZpbGw6I0ZGRkZGRjsiIGQ9Ik05LjY2LDU4LjU2SDcuOTNsLTYuMTYtOS41NyAgICAgYy0wLjE1LTAuMjQtMC4yOC0wLjQ5LTAuMzgtMC43NUgxLjMzYzAuMDYsMC41NCwwLjA4LDEuMDksMC4wNywxLjY0djguNjhIMHYtMTJoMS44Mmw2LDkuNDFjMC4yNSwwLjM5LDAuNDEsMC42NSwwLjQ5LDAuOCAgICAgYy0wLjA3LTAuNTgtMC4wOS0xLjE3LTAuMDgtMS43NnYtOC40NWgxLjRMOS42Niw1OC41NnoiLz4mI3hhOwkJPC9nPiYjeGE7CQk8ZyBpZD0ic2hhcGUxMDIxLTEwIiB0cmFuc2Zvcm09InRyYW5zbGF0ZSgyNi44MDUsLTE0LjU2NSkiPiYjeGE7CQkJPHRpdGxlIGlkPSJ0aXRsZTExNjE3NSI+cGF0aDcxODg8L3RpdGxlPiYjeGE7CQkJPHBhdGggaWQ9InBhdGgxMTYxNzciIGlua3NjYXBlOmNvbm5lY3Rvci1jdXJ2YXR1cmU9IjAiIHN0eWxlPSJmaWxsOiNGRkZGRkY7IiBkPSJNNi4zNSw1OC41Nkgwdi0xMmg2LjA4djEuMjdIMS40djMuOThoNC4zMyAgICAgdjEuMjZIMS40djQuMTloNC45NVY1OC41NnoiLz4mI3hhOwkJPC9nPiYjeGE7CQk8ZyBpZD0ic2hhcGUxMDIyLTEyIiB0cmFuc2Zvcm09InRyYW5zbGF0ZSgzNC4yMzc1LC0xNC41NjUpIj4mI3hhOwkJCTx0aXRsZSBpZD0idGl0bGUxMTYxODAiPnBhdGg3MTkwPC90aXRsZT4mI3hhOwkJCTxwYXRoIGlkPSJwYXRoMTE2MTgyIiBpbmtzY2FwZTpjb25uZWN0b3ItY3VydmF0dXJlPSIwIiBzdHlsZT0iZmlsbDojRkZGRkZGOyIgZD0iTTguMzEsNDcuODNINC44NXYxMC43M2gtMS40VjQ3LjgzSDB2LTEuMjcgICAgIGg4LjMyTDguMzEsNDcuODN6Ii8+JiN4YTsJCTwvZz4mI3hhOwkJPGcgaWQ9InNoYXBlMTAyMy0xNCIgdHJhbnNmb3JtPSJ0cmFuc2xhdGUoMTUuNDIsLTMwLjAwNzUpIj4mI3hhOwkJCTx0aXRsZSBpZD0idGl0bGUxMTYxODUiPnBhdGg3MTkyPC90aXRsZT4mI3hhOwkJCTxwYXRoIGlkPSJwYXRoMTE2MTg3IiBpbmtzY2FwZTpjb25uZWN0b3ItY3VydmF0dXJlPSIwIiBzdHlsZT0iZmlsbDojRkZGRkZGOyIgZD0iTTEwLjY2LDU4LjU2SDkuMTFsLTEuMy0zLjM2SDIuNzZsLTEuMTksMy4zNkgwICAgICBsNC42LTEyaDEuNDVMMTAuNjYsNTguNTZ6IE03LjM4LDUzLjk0TDUuNSw0OC44M2MtMC4wOS0wLjI2LTAuMTUtMC41My0wLjE5LTAuOGMtMC4wNCwwLjI3LTAuMTEsMC41NC0wLjIsMC44bC0xLjg2LDUuMTEgICAgIEw3LjM4LDUzLjk0eiIvPiYjeGE7CQk8L2c+JiN4YTsJCTxnIGlkPSJzaGFwZTEwMjQtMTYiIHRyYW5zZm9ybT0idHJhbnNsYXRlKDI3LjI5MjUsLTI5LjgzNSkiPiYjeGE7CQkJPHRpdGxlIGlkPSJ0aXRsZTExNjE5MCI+cGF0aDcxOTQ8L3RpdGxlPiYjeGE7CQkJPHBhdGggaWQ9InBhdGgxMTYxOTIiIGlua3NjYXBlOmNvbm5lY3Rvci1jdXJ2YXR1cmU9IjAiIHN0eWxlPSJmaWxsOiNGRkZGRkY7IiBkPSJNMCw1Ny45di0xLjY1YzAuMjEsMC4xOCwwLjQ0LDAuMzMsMC42OCwwLjQ1ICAgICBjMC4yNywwLjE0LDAuNTQsMC4yNSwwLjgzLDAuMzRDMS44LDU3LjEzLDIuMSw1Ny4yLDIuNCw1Ny4yNWMwLjI3LDAuMDUsMC41NSwwLjA3LDAuODIsMC4wN2MwLjY4LDAuMDUsMS4zNS0wLjEyLDEuOTMtMC40OCAgICAgYzAuNjYtMC41NSwwLjg0LTEuNDksMC40My0yLjI1Yy0wLjE2LTAuMjUtMC4zNi0wLjQ3LTAuNTktMC42NWMtMC4yOC0wLjIyLTAuNTgtMC40MS0wLjktMC41N2wtMS4xLTAuNTQgICAgIGMtMC40Mi0wLjIxLTAuODEtMC40Mi0xLjE3LTAuNjRjLTAuMzQtMC4yMS0wLjY2LTAuNDYtMC45NC0wLjc1Yy0wLjI2LTAuMjUtMC40Ny0wLjU0LTAuNjMtMC44NmMtMC4zNS0wLjg0LTAuMy0xLjc5LDAuMTItMi41OSAgICAgYzAuMjQtMC40LDAuNTYtMC43NCwwLjk1LTAuOTljMC40MS0wLjI3LDAuODYtMC40NywxLjMzLTAuNTljMC40OS0wLjEyLDAuOTktMC4xOSwxLjUtMC4xOWMwLjg4LTAuMDYsMS43NiwwLjA5LDIuNTgsMC40MnYxLjU5ICAgICBjLTAuODEtMC41Mi0xLjc2LTAuNzktMi43Mi0wLjc1Yy0wLjMxLDAtMC42MiwwLjAzLTAuOTIsMC4wOWMtMC4yOSwwLjA2LTAuNTcsMC4xNy0wLjgyLDAuMzJjLTAuMjMsMC4xNC0wLjQzLDAuMzMtMC41OCwwLjU2ICAgICBjLTAuMTYsMC4yNS0wLjI0LDAuNTQtMC4yMywwLjgzYy0wLjAxLDAuMjgsMC4wNSwwLjU1LDAuMTcsMC44YzAuMTMsMC4yNCwwLjMsMC40NCwwLjUxLDAuNjFjMC4yNSwwLjIsMC41MiwwLjM4LDAuODEsMC41MyAgICAgYzAuMzIsMC4xNywwLjY5LDAuMzYsMS4xMSwwLjU3YzAuNDIsMC4yLDAuODMsMC40MywxLjIzLDAuNjdjMC4zNiwwLjIxLDAuNywwLjQ2LDEuMDEsMC43NWMwLjI4LDAuMjcsMC41MiwwLjU5LDAuNjksMC45NCAgICAgYzAuMTcsMC4zNywwLjI2LDAuNzgsMC4yNSwxLjE5YzAuMDIsMC41Mi0wLjEsMS4wNC0wLjM0LDEuNWMtMC4yMywwLjQtMC41NSwwLjc0LTAuOTQsMC45OWMtMC40MiwwLjI3LTAuODgsMC40Ni0xLjM2LDAuNTYgICAgIGMtMC41MywwLjEyLTEuMDgsMC4xNy0xLjYyLDAuMTdjLTAuMjMsMC0wLjQ3LTAuMDEtMC43LTAuMDRDMiw1OC40OSwxLjcxLDU4LjQ0LDEuNDIsNTguMzhjLTAuMjgtMC4wNi0wLjU1LTAuMTMtMC44Mi0wLjIyICAgICBDMC4zOSw1OC4xLDAuMTksNTguMDEsMCw1Ny45eiIvPiYjeGE7CQk8L2c+JiN4YTsJCTxnIGlkPSJzaGFwZTEwMjUtMTgiIHRyYW5zZm9ybT0idHJhbnNsYXRlKDM2LjI2MjUsLTMwLjAzNzUpIj4mI3hhOwkJCTx0aXRsZSBpZD0idGl0bGUxMTYxOTUiPnBhdGg3MTk2PC90aXRsZT4mI3hhOwkJCTxwYXRoIGlkPSJwYXRoMTE2MTk3IiBpbmtzY2FwZTpjb25uZWN0b3ItY3VydmF0dXJlPSIwIiBzdHlsZT0iZmlsbDojRkZGRkZGOyIgZD0iTTEuNCw1NC4wNnY0LjVIMHYtMTJoMy4yOSAgICAgYzEuMDgtMC4wNywyLjE1LDAuMjYsMywwLjk0YzAuNzMsMC42OCwxLjEyLDEuNjUsMS4wNiwyLjY0YzAuMDMsMS4wNi0wLjQsMi4wOC0xLjE4LDIuNzlDNS4yOSw1My42OSw0LjE2LDU0LjA4LDMsNTQuMDIgICAgIEwxLjQsNTQuMDZ6IE0xLjQsNDcuODd2NC45MmgxLjVjMC44MSwwLjA2LDEuNjEtMC4xOCwyLjI1LTAuNjdjMC41Mi0wLjQ4LDAuOC0xLjE3LDAuNzUtMS44OGMwLTEuNTgtMC45My0yLjM3LTIuOC0yLjM3SDEuNHoiLz4mI3hhOwkJPC9nPiYjeGE7CTwvZz4mI3hhOzwvZz4mI3hhOzwvc3ZnPg==;" parent="1" vertex="1">
          <mxGeometry x="456" y="570.22" width="47" height="47" as="geometry" />
        </mxCell>
        <mxCell id="S3-eN4drHJ-bPGYd0D6c-47" value="" style="shape=image;verticalLabelPosition=bottom;verticalAlign=top;aspect=fixed;imageAspect=0;image=data:image/svg+xml,PHN2ZyB4bWxuczpjYz0iaHR0cDovL2NyZWF0aXZlY29tbW9ucy5vcmcvbnMjIiB4bWxuczpkYz0iaHR0cDovL3B1cmwub3JnL2RjL2VsZW1lbnRzLzEuMS8iIHhtbG5zOmlua3NjYXBlPSJodHRwOi8vd3d3Lmlua3NjYXBlLm9yZy9uYW1lc3BhY2VzL2lua3NjYXBlIiB4bWxuczpyZGY9Imh0dHA6Ly93d3cudzMub3JnLzE5OTkvMDIvMjItcmRmLXN5bnRheC1ucyMiIHhtbG5zOnNvZGlwb2RpPSJodHRwOi8vc29kaXBvZGkuc291cmNlZm9yZ2UubmV0L0RURC9zb2RpcG9kaS0wLmR0ZCIgeG1sbnM6c3ZnPSJodHRwOi8vd3d3LnczLm9yZy8yMDAwL3N2ZyIgeG1sbnM9Imh0dHA6Ly93d3cudzMub3JnLzIwMDAvc3ZnIiB4bWxuczp4bGluaz0iaHR0cDovL3d3dy53My5vcmcvMTk5OS94bGluayIgdmVyc2lvbj0iMS4xIiBpZD0ic3ZnMzg3MjcwIiBpbmtzY2FwZTp2ZXJzaW9uPSIwLjkyLjMgKDI0MDU1NDYsIDIwMTgtMDMtMTEpIiBzb2RpcG9kaTpkb2NuYW1lPSJ1c2VyX2dlbmVyaWMuc3ZnIiB4PSIwcHgiIHk9IjBweCIgdmlld0JveD0iMCAwIDMwLjUyIDM0LjExIiBzdHlsZT0iZW5hYmxlLWJhY2tncm91bmQ6bmV3IDAgMCAzMC41MiAzNC4xMTsiIHhtbDpzcGFjZT0icHJlc2VydmUiPiYjeGE7PHNvZGlwb2RpOm5hbWVkdmlldyBib3JkZXJjb2xvcj0iIzY2NjY2NiIgYm9yZGVyb3BhY2l0eT0iMSIgZml0LW1hcmdpbi1ib3R0b209IjAiIGZpdC1tYXJnaW4tbGVmdD0iMCIgZml0LW1hcmdpbi1yaWdodD0iMCIgZml0LW1hcmdpbi10b3A9IjAiIGdyaWR0b2xlcmFuY2U9IjEwIiBndWlkZXRvbGVyYW5jZT0iMTAiIGlkPSJuYW1lZHZpZXczODcyNzIiIGlua3NjYXBlOmN1cnJlbnQtbGF5ZXI9InN2ZzM4NzI3MCIgaW5rc2NhcGU6Y3g9IjIwLjM0MzczMiIgaW5rc2NhcGU6Y3k9IjIyLjczOTk4NSIgaW5rc2NhcGU6cGFnZW9wYWNpdHk9IjAiIGlua3NjYXBlOnBhZ2VzaGFkb3c9IjIiIGlua3NjYXBlOndpbmRvdy1oZWlnaHQ9IjEwMTciIGlua3NjYXBlOndpbmRvdy1tYXhpbWl6ZWQ9IjEiIGlua3NjYXBlOndpbmRvdy13aWR0aD0iMTkyMCIgaW5rc2NhcGU6d2luZG93LXg9Ii04IiBpbmtzY2FwZTp3aW5kb3cteT0iLTgiIGlua3NjYXBlOnpvb209IjE4LjI2MDMzMiIgb2JqZWN0dG9sZXJhbmNlPSIxMCIgcGFnZWNvbG9yPSIjZmZmZmZmIiBzaG93Z3JpZD0iZmFsc2UiPiYjeGE7CTwvc29kaXBvZGk6bmFtZWR2aWV3PiYjeGE7PGcgaWQ9ImczODcyNjgiIHRyYW5zZm9ybT0idHJhbnNsYXRlKC0wLjczNTk1NzIyLC0wLjc0OTk5ODgyKSI+JiN4YTsJPHRpdGxlIGlkPSJ0aXRsZTM4NzI1MyI+UGFnZS0xPC90aXRsZT4mI3hhOwk8ZyBpZD0iZ3JvdXA1ODc4LTEiIHRyYW5zZm9ybT0idHJhbnNsYXRlKDEuNSwtMS41KSI+JiN4YTsJCTx0aXRsZSBpZD0idGl0bGUzODcyNTUiPlVzZXIgKEdlbmVyaWMpPC90aXRsZT4mI3hhOwkJPGcgaWQ9InNoYXBlNTg3OS0yIiB0cmFuc2Zvcm09InRyYW5zbGF0ZSg1LjQzLC0xNC40OSkiPiYjeGE7CQkJPHRpdGxlIGlkPSJ0aXRsZTM4NzI1NyI+Y2lyY2xlODAxMTwvdGl0bGU+JiN4YTsJCQkmI3hhOwkJCQk8Y2lyY2xlIGlkPSJlbGxpcHNlMzg3MjU5IiBzdHlsZT0iZmlsbDojRkZGRkZGO3N0cm9rZTojNTU2QThBO3N0cm9rZS13aWR0aDoxLjU7c3Ryb2tlLWxpbmVjYXA6c3F1YXJlO3N0cm9rZS1taXRlcmxpbWl0OjM7IiBjeD0iOS4wNiIgY3k9IjI2LjU1IiByPSI5LjA2Ii8+JiN4YTsJCTwvZz4mI3hhOwkJPGcgaWQ9InNoYXBlNTg4MC00Ij4mI3hhOwkJCTx0aXRsZSBpZD0idGl0bGUzODcyNjIiPnBhdGg4MDEzPC90aXRsZT4mI3hhOwkJCSYjeGE7CQkJCTxwYXRoIGlkPSJwYXRoMzg3MjY0IiBpbmtzY2FwZTpjb25uZWN0b3ItY3VydmF0dXJlPSIwIiBzdHlsZT0iZmlsbDojRkZGRkZGO3N0cm9rZTojNTU2QThBO3N0cm9rZS13aWR0aDoxLjU7c3Ryb2tlLWxpbmVjYXA6c3F1YXJlO3N0cm9rZS1taXRlcmxpbWl0OjM7IiBkPSIgICAgIE0wLDM1LjYxYzAuMTUtOC4wMSw2Ljc2LTE0LjM3LDE0Ljc2LTE0LjIzYzcuOCwwLjE0LDE0LjA4LDYuNDMsMTQuMjMsMTQuMjNIMHoiLz4mI3hhOwkJPC9nPiYjeGE7CTwvZz4mI3hhOzwvZz4mI3hhOzwvc3ZnPg==;imageBackground=none;imageBorder=none;" parent="1" vertex="1">
          <mxGeometry x="106" y="570" width="36.47" height="40" as="geometry" />
        </mxCell>
        <mxCell id="S3-eN4drHJ-bPGYd0D6c-48" value="" style="endArrow=none;html=1;rounded=0;" parent="1" edge="1">
          <mxGeometry width="50" height="50" relative="1" as="geometry">
            <mxPoint x="421" y="760" as="sourcePoint" />
            <mxPoint x="421" y="620.22" as="targetPoint" />
          </mxGeometry>
        </mxCell>
        <mxCell id="S3-eN4drHJ-bPGYd0D6c-49" value="" style="endArrow=none;html=1;rounded=0;" parent="1" edge="1">
          <mxGeometry width="50" height="50" relative="1" as="geometry">
            <mxPoint x="776" y="760" as="sourcePoint" />
            <mxPoint x="775.71" y="620.22" as="targetPoint" />
          </mxGeometry>
        </mxCell>
        <mxCell id="S3-eN4drHJ-bPGYd0D6c-50" value="" style="endArrow=classic;html=1;rounded=0;" parent="1" edge="1">
          <mxGeometry width="50" height="50" relative="1" as="geometry">
            <mxPoint x="66" y="690" as="sourcePoint" />
            <mxPoint x="421" y="690" as="targetPoint" />
          </mxGeometry>
        </mxCell>
        <mxCell id="S3-eN4drHJ-bPGYd0D6c-51" value="&lt;font style=&quot;color: rgb(255, 102, 255);&quot;&gt;Create/Update Vault Entry Request&lt;/font&gt; &lt;font style=&quot;color: rgb(93, 93, 93);&quot;&gt;[Encrypted Payload,..]&lt;/font&gt;" style="text;html=1;align=center;verticalAlign=middle;resizable=0;points=[];autosize=1;strokeColor=none;fillColor=none;" parent="1" vertex="1">
          <mxGeometry x="66" y="660" width="330" height="30" as="geometry" />
        </mxCell>
        <mxCell id="S3-eN4drHJ-bPGYd0D6c-52" value="" style="endArrow=classic;html=1;rounded=0;" parent="1" edge="1">
          <mxGeometry width="50" height="50" relative="1" as="geometry">
            <mxPoint x="421" y="749.78" as="sourcePoint" />
            <mxPoint x="66" y="749.78" as="targetPoint" />
          </mxGeometry>
        </mxCell>
        <mxCell id="S3-eN4drHJ-bPGYd0D6c-53" value="&lt;font style=&quot;color: rgb(255, 102, 255);&quot;&gt;Create Vault Entry Response&lt;/font&gt;&amp;nbsp;&lt;font style=&quot;color: rgb(93, 93, 93);&quot;&gt;[New vault entry id]&lt;/font&gt;" style="text;html=1;align=center;verticalAlign=middle;resizable=0;points=[];autosize=1;strokeColor=none;fillColor=none;" parent="1" vertex="1">
          <mxGeometry x="141" y="719.78" width="280" height="30" as="geometry" />
        </mxCell>
        <mxCell id="S3-eN4drHJ-bPGYd0D6c-54" value="" style="endArrow=classic;html=1;rounded=0;" parent="1" edge="1">
          <mxGeometry width="50" height="50" relative="1" as="geometry">
            <mxPoint x="421" y="700" as="sourcePoint" />
            <mxPoint x="776" y="700" as="targetPoint" />
          </mxGeometry>
        </mxCell>
        <mxCell id="S3-eN4drHJ-bPGYd0D6c-55" value="Create/Update record, TDE for encrypted fields" style="text;html=1;align=center;verticalAlign=middle;resizable=0;points=[];autosize=1;strokeColor=none;fillColor=none;" parent="1" vertex="1">
          <mxGeometry x="421" y="668" width="270" height="30" as="geometry" />
        </mxCell>
        <mxCell id="S3-eN4drHJ-bPGYd0D6c-56" value="" style="endArrow=classic;html=1;rounded=0;" parent="1" edge="1">
          <mxGeometry width="50" height="50" relative="1" as="geometry">
            <mxPoint x="776" y="737.78" as="sourcePoint" />
            <mxPoint x="421" y="737.78" as="targetPoint" />
          </mxGeometry>
        </mxCell>
        <mxCell id="S3-eN4drHJ-bPGYd0D6c-57" value="&lt;font style=&quot;color: rgb(255, 145, 36);&quot;&gt;Encrypts Payload using AES Key&lt;/font&gt;&lt;div&gt;&lt;font style=&quot;color: rgb(255, 145, 36);&quot;&gt;Store Nonce and Tag alongside the Vault Entry&amp;nbsp;&lt;/font&gt;&lt;/div&gt;&lt;div&gt;&lt;font style=&quot;color: rgb(255, 145, 36);&quot;&gt;(Seperate Nonce and Tag for each entry)&lt;/font&gt;&lt;/div&gt;" style="text;html=1;align=left;verticalAlign=middle;resizable=0;points=[];autosize=1;strokeColor=none;fillColor=none;fontSize=10;container=1;" parent="1" vertex="1">
          <mxGeometry x="75" y="617.22" width="230" height="50" as="geometry" />
        </mxCell>
        <mxCell id="S3-eN4drHJ-bPGYd0D6c-59" value="Return created/updated record id" style="text;html=1;align=center;verticalAlign=middle;resizable=0;points=[];autosize=1;strokeColor=none;fillColor=none;" parent="1" vertex="1">
          <mxGeometry x="575" y="707.78" width="200" height="30" as="geometry" />
        </mxCell>
        <mxCell id="bnFmPi5lSiAIPgZsATgE-1" value="&lt;font style=&quot;font-size: 18px; color: rgb(49, 177, 153);&quot;&gt;User Flow&lt;/font&gt;" style="text;html=1;fontSize=24;fontStyle=0;verticalAlign=middle;align=center;fillColor=none;strokeColor=none;fontColor=light-dark(#10BFFF,#EDEDED);labelBorderColor=none;labelBackgroundColor=none;textShadow=0;" parent="1" vertex="1">
          <mxGeometry x="296" y="40" width="250" height="40" as="geometry" />
        </mxCell>
        <mxCell id="bnFmPi5lSiAIPgZsATgE-2" value="Client" style="rounded=0;whiteSpace=wrap;html=1;" parent="1" vertex="1">
          <mxGeometry x="6" y="99" width="120" height="30" as="geometry" />
        </mxCell>
        <mxCell id="bnFmPi5lSiAIPgZsATgE-3" value="Server" style="rounded=0;whiteSpace=wrap;html=1;" parent="1" vertex="1">
          <mxGeometry x="361" y="99" width="120" height="30" as="geometry" />
        </mxCell>
        <mxCell id="bnFmPi5lSiAIPgZsATgE-4" value="DB" style="rounded=0;whiteSpace=wrap;html=1;" parent="1" vertex="1">
          <mxGeometry x="716" y="99" width="120" height="30" as="geometry" />
        </mxCell>
        <mxCell id="bnFmPi5lSiAIPgZsATgE-5" value="" style="endArrow=none;html=1;rounded=0;" parent="1" edge="1">
          <mxGeometry width="50" height="50" relative="1" as="geometry">
            <mxPoint x="66" y="309" as="sourcePoint" />
            <mxPoint x="65.89999999999999" y="129" as="targetPoint" />
          </mxGeometry>
        </mxCell>
        <mxCell id="bnFmPi5lSiAIPgZsATgE-6" value="" style="shape=image;verticalLabelPosition=bottom;labelBackgroundColor=#ffffff;verticalAlign=top;aspect=fixed;imageAspect=0;image=data:image/svg+xml,PHN2ZyB4bWxuczpkYz0iaHR0cDovL3B1cmwub3JnL2RjL2VsZW1lbnRzLzEuMS8iIHhtbG5zOmNjPSJodHRwOi8vY3JlYXRpdmVjb21tb25zLm9yZy9ucyMiIHhtbG5zOnJkZj0iaHR0cDovL3d3dy53My5vcmcvMTk5OS8wMi8yMi1yZGYtc3ludGF4LW5zIyIgeG1sbnM6c3ZnPSJodHRwOi8vd3d3LnczLm9yZy8yMDAwL3N2ZyIgeG1sbnM9Imh0dHA6Ly93d3cudzMub3JnLzIwMDAvc3ZnIiB4bWxuczpzb2RpcG9kaT0iaHR0cDovL3NvZGlwb2RpLnNvdXJjZWZvcmdlLm5ldC9EVEQvc29kaXBvZGktMC5kdGQiIHhtbG5zOmlua3NjYXBlPSJodHRwOi8vd3d3Lmlua3NjYXBlLm9yZy9uYW1lc3BhY2VzL2lua3NjYXBlIiB2ZXJzaW9uPSIxLjEiIGlkPSJzdmcxMDQ1NzIiIGlua3NjYXBlOnZlcnNpb249IjAuOTIuMyAoMjQwNTU0NiwgMjAxOC0wMy0xMSkiIHNvZGlwb2RpOmRvY25hbWU9InNxbC5zdmciIHg9IjBweCIgeT0iMHB4IiB2aWV3Qm94PSIwIDAgNDYuMDMgNjEuMDIiIHhtbDpzcGFjZT0icHJlc2VydmUiIHdpZHRoPSI0Ni4wMjk5OTkiIGhlaWdodD0iNjEuMDIiPjxtZXRhZGF0YSBpZD0ibWV0YWRhdGExMDQ4Ij48cmRmOlJERj48Y2M6V29yayByZGY6YWJvdXQ9IiI+PGRjOmZvcm1hdD5pbWFnZS9zdmcreG1sPC9kYzpmb3JtYXQ+PGRjOnR5cGUgcmRmOnJlc291cmNlPSJodHRwOi8vcHVybC5vcmcvZGMvZGNtaXR5cGUvU3RpbGxJbWFnZSIvPjxkYzp0aXRsZS8+PC9jYzpXb3JrPjwvcmRmOlJERj48L21ldGFkYXRhPjxkZWZzIGlkPSJkZWZzMTA0NiI+JiN4YTsJJiN4YTsmI3hhOwkmI3hhOyYjeGE7CSYjeGE7JiN4YTsJJiN4YTsmI3hhOwkmI3hhOyYjeGE7CSYjeGE7JiN4YTsJJiN4YTsmI3hhOwkmI3hhOyYjeGE7CSYjeGE7JiN4YTsJCSYjeGE7CSYjeGE7CQkmI3hhOwkmI3hhOwkJJiN4YTsJJiN4YTsJCSYjeGE7CSYjeGE7CQkmI3hhOwkmI3hhOwkJJiN4YTsJJiN4YTsJCSYjeGE7CSYjeGE7CQkmI3hhOwk8L2RlZnM+JiN4YTs8ZmlsdGVyIGlkPSJmaWx0ZXJfMiI+JiN4YTsJPGZlR2F1c3NpYW5CbHVyIGlkPSJmZUdhdXNzaWFuQmx1cjEwNDQ4OSIgc3RkRGV2aWF0aW9uPSIyIi8+JiN4YTs8L2ZpbHRlcj4mI3hhOzxzb2RpcG9kaTpuYW1lZHZpZXcgYm9yZGVyY29sb3I9IiM2NjY2NjYiIGJvcmRlcm9wYWNpdHk9IjEiIGZpdC1tYXJnaW4tYm90dG9tPSIwIiBmaXQtbWFyZ2luLWxlZnQ9IjAiIGZpdC1tYXJnaW4tcmlnaHQ9IjAiIGZpdC1tYXJnaW4tdG9wPSIwIiBncmlkdG9sZXJhbmNlPSIxMCIgZ3VpZGV0b2xlcmFuY2U9IjEwIiBpZD0ibmFtZWR2aWV3MTA0NTc0IiBpbmtzY2FwZTpjdXJyZW50LWxheWVyPSJzdmcxMDQ1NzIiIGlua3NjYXBlOmN4PSIwLjI3NDc3MzkyIiBpbmtzY2FwZTpjeT0iMjcuOTI1ODA5IiBpbmtzY2FwZTpwYWdlb3BhY2l0eT0iMCIgaW5rc2NhcGU6cGFnZXNoYWRvdz0iMiIgaW5rc2NhcGU6d2luZG93LWhlaWdodD0iMTAxNyIgaW5rc2NhcGU6d2luZG93LW1heGltaXplZD0iMSIgaW5rc2NhcGU6d2luZG93LXdpZHRoPSIxOTIwIiBpbmtzY2FwZTp3aW5kb3cteD0iLTgiIGlua3NjYXBlOndpbmRvdy15PSItOCIgaW5rc2NhcGU6em9vbT0iNy42MDUyNjMyIiBvYmplY3R0b2xlcmFuY2U9IjEwIiBwYWdlY29sb3I9IiNmZmZmZmYiIHNob3dncmlkPSJmYWxzZSI+JiN4YTsJPC9zb2RpcG9kaTpuYW1lZHZpZXc+JiN4YTsmI3hhOzxwYXRoIGlkPSJwYXRoMTA0NTAyIiBpbmtzY2FwZTpjb25uZWN0b3ItY3VydmF0dXJlPSIwIiBzdHlsZT0iZmlsbDojMDA3MmM2IiBkPSJtIDAsOC4zNCB2IDQ0LjM0IGMgMCw0LjYxIDEwLjMxLDguMzQgMjMuMDIsOC4zNCBWIDguMzQgWiIvPiYjeGE7JiN4YTs8cGF0aCBpZD0icGF0aDEwNDUxMCIgaW5rc2NhcGU6Y29ubmVjdG9yLWN1cnZhdHVyZT0iMCIgc3R5bGU9ImZpbGw6IzAwNzJjNiIgZD0ibSAyMi43LDYxLjAyIGggMC4zMiBjIDEyLjcxLDAgMjMuMDEsLTMuNzMgMjMuMDEsLTguMzQgViA4LjM0IEggMjIuNyBaIi8+JiN4YTsmI3hhOzxwYXRoIGlkPSJwYXRoMTA0NTE4IiBpbmtzY2FwZTpjb25uZWN0b3ItY3VydmF0dXJlPSIwIiBzdHlsZT0iZmlsbDojZmZmZmZmO2ZpbGwtb3BhY2l0eTowLjE1IiBkPSJtIDIyLjcsNjEuMDIgaCAwLjMyIGMgMTIuNzEsMCAyMy4wMSwtMy43MyAyMy4wMSwtOC4zNCBWIDguMzQgSCAyMi43IFoiLz4mI3hhOyYjeGE7PHBhdGggaWQ9InBhdGgxMDQ1MjYiIGlua3NjYXBlOmNvbm5lY3Rvci1jdXJ2YXR1cmU9IjAiIHN0eWxlPSJmaWxsOiNmZmZmZmYiIGQ9Im0gNDYuMDMsOC4zMyBjIDAsNC42MSAtMTAuMyw4LjM0IC0yMy4wMSw4LjM0IEMgMTAuMzEsMTYuNjcgMCwxMi45NCAwLDguMzMgMCwzLjczIDEwLjMxLDAgMjMuMDIsMCAzNS43MywwIDQ2LjAzLDMuNzMgNDYuMDMsOC4zMyBaIi8+JiN4YTsmI3hhOzxwYXRoIGlkPSJwYXRoMTA0NTM0IiBpbmtzY2FwZTpjb25uZWN0b3ItY3VydmF0dXJlPSIwIiBzdHlsZT0iZmlsbDojN2ZiYTAwIiBkPSJtIDQxLjMyLDcuODUgYyAwLDMuMDQgLTguMTksNS41IC0xOC4zMSw1LjUgLTEwLjExLDAgLTE4LjMxLC0yLjQ2IC0xOC4zMSwtNS41IDAsLTMuMDQgOC4yLC01LjUgMTguMzEsLTUuNSAxMC4xMiwwIDE4LjMxLDIuNDYgMTguMzEsNS41IHoiLz4mI3hhOyYjeGE7PHBhdGggaWQ9InBhdGgxMDQ1NDIiIGlua3NjYXBlOmNvbm5lY3Rvci1jdXJ2YXR1cmU9IjAiIHN0eWxlPSJmaWxsOiNiOGQ0MzIiIGQ9Im0gMzcuNSwxMS4yMSBjIDIuMzksLTAuOTMgMy44MywtMi4wOSAzLjgzLC0zLjM2IDAsLTMuMDQgLTguMTksLTUuNSAtMTguMzEsLTUuNSAtMTAuMTEsMCAtMTguMzEsMi40NiAtMTguMzEsNS41IDAsMS4yNyAxLjQ0LDIuNDMgMy44NCwzLjM2IDMuMzUsLTEuMyA4LjU4LC0yLjE0IDE0LjQ3LC0yLjE0IDUuOSwwIDExLjEzLDAuODQgMTQuNDgsMi4xNCB6Ii8+JiN4YTsmI3hhOzxwYXRoIGlkPSJwYXRoMTA0NTUwIiBpbmtzY2FwZTpjb25uZWN0b3ItY3VydmF0dXJlPSIwIiBzdHlsZT0iZmlsbDojZmZmZmZmIiBkPSJtIDE1LjcxLDM5LjExIGMgMCwxLjM4IC0wLjUsMi40NSAtMS41LDMuMjEgLTEsMC43NSAtMi4zOCwxLjEzIC00LjE0LDEuMTMgLTEuNSwwIC0yLjc1LC0wLjI3IC0zLjc2LC0wLjgxIFYgMzkuNCBjIDEuMTYsMC45OCAyLjQ0LDEuNDggMy44NCwxLjQ4IDAuNjcsMCAxLjIsLTAuMTQgMS41NiwtMC40MSAwLjM3LC0wLjI3IDAuNTYsLTAuNjMgMC41NiwtMS4wNyAwLC0wLjQ0IC0wLjE4LC0wLjgyIC0wLjUzLC0xLjE1IEMgMTEuMzgsMzcuOTMgMTAuNjYsMzcuNTEgOS41NywzNyA3LjM2LDM1Ljk2IDYuMjUsMzQuNTQgNi4yNSwzMi43NCBjIDAsLTEuMyAwLjQ4LC0yLjM1IDEuNDUsLTMuMTMgMC45NiwtMC43OSAyLjI1LC0xLjE4IDMuODUsLTEuMTggMS40MiwwIDIuNTksMC4xOCAzLjUyLDAuNTUgdiAzLjAzIEMgMTQuMDksMzEuMzQgMTIuOTgsMzEgMTEuNzMsMzEgYyAtMC42MywwIC0xLjEyLDAuMTMgLTEuNDksMC40IC0wLjM2LDAuMjcgLTAuNTQsMC42MiAtMC41NCwxLjA3IDAsMC40NiAwLjE0LDAuODMgMC40NCwxLjEzIDAuMjksMC4yOSAwLjg5LDAuNjUgMS44LDEuMDkgMS4zNiwwLjY0IDIuMzMsMS4yOSAyLjkxLDEuOTUgMC41NywwLjY2IDAuODYsMS40OSAwLjg2LDIuNDcgeiIvPiYjeGE7JiN4YTs8cGF0aCBpZD0icGF0aDEwNDU1OCIgaW5rc2NhcGU6Y29ubmVjdG9yLWN1cnZhdHVyZT0iMCIgc3R5bGU9ImZpbGw6I2ZmZmZmZiIgZD0ibSAzMS4zMywzNS44NCBjIDAsMS43MSAtMC4zOSwzLjE5IC0xLjE2LDQuNDUgLTAuNzgsMS4yNSAtMS44NywyLjEzIC0zLjI4LDIuNjQgbCA0LjIxLDMuOSBoIC00LjI1IGwgLTMuMDEsLTMuMzcgYyAtMS4yOSwtMC4wNSAtMi40NiwtMC4zOSAtMy40OSwtMS4wMyAtMS4wNCwtMC42MyAtMS44NCwtMS41IC0yLjQsLTIuNjEgLTAuNTcsLTEuMSAtMC44NSwtMi4zMyAtMC44NSwtMy42OSAwLC0xLjUgMC4zMSwtMi44NSAwLjkyLC00LjAyIDAuNjEsLTEuMTggMS40NywtMi4wOSAyLjU3LC0yLjcyIDEuMTEsLTAuNjQgMi4zOCwtMC45NiAzLjgxLC0wLjk2IDEuMzQsMCAyLjU0LDAuMzEgMy41OSwwLjkzIDEuMDYsMC42MSAxLjg4LDEuNDggMi40NywyLjYyIDAuNTgsMS4xMyAwLjg3LDIuNDIgMC44NywzLjg2IHogbSAtMy40NCwwLjE4IGMgMCwtMS40NyAtMC4zMiwtMi42MyAtMC45NiwtMy40OSAtMC42NSwtMC44NSAtMS41MiwtMS4yOCAtMi42NCwtMS4yOCAtMS4xMywwIC0yLjA0LDAuNDMgLTIuNzIsMS4yOSAtMC42OCwwLjg1IC0xLjAzLDEuOTkgLTEuMDMsMy40MiAwLDEuNDIgMC4zNCwyLjU1IDEuMDEsMy40IDAuNjcsMC44NCAxLjU1LDEuMjcgMi42NiwxLjI3IDEuMTMsMCAyLjAyLC0wLjQxIDIuNjgsLTEuMjMgMC42NywtMC44MiAxLC0xLjk1IDEsLTMuMzggeiIvPiYjeGE7JiN4YTs8cGF0aCBpZD0icGF0aDEwNDU2NiIgaW5rc2NhcGU6Y29ubmVjdG9yLWN1cnZhdHVyZT0iMCIgc3R5bGU9ImZpbGw6I2ZmZmZmZiIgZD0iTSA0Mi4zOSw0My4yIEggMzMuNzQgViAyOC42NyBoIDMuMjcgdiAxMS44OCBoIDUuMzggeiIvPiYjeGE7PC9zdmc+;" parent="1" vertex="1">
          <mxGeometry x="814" y="80" width="30" height="39.78" as="geometry" />
        </mxCell>
        <mxCell id="bnFmPi5lSiAIPgZsATgE-7" value="" style="shape=image;verticalLabelPosition=bottom;labelBackgroundColor=#ffffff;verticalAlign=top;aspect=fixed;imageAspect=0;image=data:image/svg+xml,PHN2ZyB4bWxuczpjYz0iaHR0cDovL2NyZWF0aXZlY29tbW9ucy5vcmcvbnMjIiB4bWxuczpkYz0iaHR0cDovL3B1cmwub3JnL2RjL2VsZW1lbnRzLzEuMS8iIHhtbG5zOmlua3NjYXBlPSJodHRwOi8vd3d3Lmlua3NjYXBlLm9yZy9uYW1lc3BhY2VzL2lua3NjYXBlIiB4bWxuczpyZGY9Imh0dHA6Ly93d3cudzMub3JnLzE5OTkvMDIvMjItcmRmLXN5bnRheC1ucyMiIHhtbG5zOnNvZGlwb2RpPSJodHRwOi8vc29kaXBvZGkuc291cmNlZm9yZ2UubmV0L0RURC9zb2RpcG9kaS0wLmR0ZCIgeG1sbnM6c3ZnPSJodHRwOi8vd3d3LnczLm9yZy8yMDAwL3N2ZyIgeG1sbnM9Imh0dHA6Ly93d3cudzMub3JnLzIwMDAvc3ZnIiB4bWxuczp4bGluaz0iaHR0cDovL3d3dy53My5vcmcvMTk5OS94bGluayIgdmVyc2lvbj0iMS4xIiBpZD0ic3ZnMTE2MjAzIiBpbmtzY2FwZTp2ZXJzaW9uPSIwLjkyLjMgKDI0MDU1NDYsIDIwMTgtMDMtMTEpIiBzb2RpcG9kaTpkb2NuYW1lPSJhc3BfbmV0LnN2ZyIgeD0iMHB4IiB5PSIwcHgiIHZpZXdCb3g9IjAgMCA1Ny4wNiA1Ny4wNiIgc3R5bGU9ImVuYWJsZS1iYWNrZ3JvdW5kOm5ldyAwIDAgNTcuMDYgNTcuMDY7IiB4bWw6c3BhY2U9InByZXNlcnZlIj4mI3hhOzxzb2RpcG9kaTpuYW1lZHZpZXcgYm9yZGVyY29sb3I9IiM2NjY2NjYiIGJvcmRlcm9wYWNpdHk9IjEiIGZpdC1tYXJnaW4tYm90dG9tPSIwIiBmaXQtbWFyZ2luLWxlZnQ9IjAiIGZpdC1tYXJnaW4tcmlnaHQ9IjAiIGZpdC1tYXJnaW4tdG9wPSIwIiBncmlkdG9sZXJhbmNlPSIxMCIgZ3VpZGV0b2xlcmFuY2U9IjEwIiBpZD0ibmFtZWR2aWV3MTE2MjA1IiBpbmtzY2FwZTpjdXJyZW50LWxheWVyPSJzdmcxMTYyMDMiIGlua3NjYXBlOmN4PSIzOC4wMzk5ODMiIGlua3NjYXBlOmN5PSIzOC4wMzk5ODMiIGlua3NjYXBlOnBhZ2VvcGFjaXR5PSIwIiBpbmtzY2FwZTpwYWdlc2hhZG93PSIyIiBpbmtzY2FwZTp3aW5kb3ctaGVpZ2h0PSIxMDE3IiBpbmtzY2FwZTp3aW5kb3ctbWF4aW1pemVkPSIxIiBpbmtzY2FwZTp3aW5kb3ctd2lkdGg9IjE5MjAiIGlua3NjYXBlOndpbmRvdy14PSItOCIgaW5rc2NhcGU6d2luZG93LXk9Ii04IiBpbmtzY2FwZTp6b29tPSIxMS4xMDQwMDEiIG9iamVjdHRvbGVyYW5jZT0iMTAiIHBhZ2Vjb2xvcj0iI2ZmZmZmZiIgc2hvd2dyaWQ9ImZhbHNlIj4mI3hhOwk8L3NvZGlwb2RpOm5hbWVkdmlldz4mI3hhOzxnIGlkPSJnMTE2MjAxIiB0cmFuc2Zvcm09InRyYW5zbGF0ZSgtMC43NSwtMC43NSkiPiYjeGE7CTx0aXRsZSBpZD0idGl0bGUxMTYxNTEiPlBhZ2UtMTwvdGl0bGU+JiN4YTsJPGcgaWQ9Imdyb3VwMTAxNi0xIiB0cmFuc2Zvcm09InRyYW5zbGF0ZSgwLjc1LC0wLjc1KSI+JiN4YTsJCTx0aXRsZSBpZD0idGl0bGUxMTYxNTMiPkFTUC5ORVQ8L3RpdGxlPiYjeGE7CQk8ZyBpZD0ic2hhcGUxMDE3LTIiPiYjeGE7CQkJPHRpdGxlIGlkPSJ0aXRsZTExNjE1NSI+Y2lyY2xlNzE4MDwvdGl0bGU+JiN4YTsJCQk8Y2lyY2xlIGlkPSJlbGxpcHNlMTE2MTU3IiBzdHlsZT0iZmlsbDojNjMzQkEzOyIgY3g9IjI4LjUzIiBjeT0iMzAuMDMiIHI9IjI4LjUzIi8+JiN4YTsJCTwvZz4mI3hhOwkJPGcgaWQ9InNoYXBlMTAxOC00IiB0cmFuc2Zvcm09InRyYW5zbGF0ZSg4Ljc1NzE3LC04LjczNDY3KSI+JiN4YTsJCQk8dGl0bGUgaWQ9InRpdGxlMTE2MTYwIj5wYXRoNzE4MjwvdGl0bGU+JiN4YTsJCQk8cGF0aCBpZD0icGF0aDExNjE2MiIgaW5rc2NhcGU6Y29ubmVjdG9yLWN1cnZhdHVyZT0iMCIgc3R5bGU9ImZpbGw6IzVDMkQ5MTsiIGQ9Ik0wLDE4LjIzYy0xMS4xNCwxMS4xNC0xMS4xNCwyOS4xOSwwLDQwLjMzICAgICBzMjkuMTksMTEuMTQsNDAuMzMsMGwwLDBMMCwxOC4yM3oiLz4mI3hhOwkJPC9nPiYjeGE7CQk8ZyBpZD0ic2hhcGUxMDE5LTYiIHRyYW5zZm9ybT0idHJhbnNsYXRlKDExLjg4LC0xNC40KSI+JiN4YTsJCQk8dGl0bGUgaWQ9InRpdGxlMTE2MTY1Ij5wYXRoNzE4NDwvdGl0bGU+JiN4YTsJCQk8cGF0aCBpZD0icGF0aDExNjE2NyIgaW5rc2NhcGU6Y29ubmVjdG9yLWN1cnZhdHVyZT0iMCIgc3R5bGU9ImZpbGw6I0ZGRkZGRjsiIGQ9Ik0wLjkzLDU4LjU2Yy0wLjI1LDAtMC40OS0wLjEtMC42Ni0wLjI4ICAgICBDMC4wOSw1OC4xMSwwLDU3Ljg3LDAsNTcuNjJjMC0wLjI1LDAuMDktMC40OSwwLjI3LTAuNjdjMC4xNy0wLjE4LDAuNDEtMC4yOCwwLjY2LTAuMjhjMC4yNSwwLDAuNDksMC4xLDAuNjcsMC4yOCAgICAgYzAuMTgsMC4xNywwLjI4LDAuNDIsMC4yOCwwLjY3QzEuODcsNTguMTQsMS40NSw1OC41NiwwLjkzLDU4LjU2eiIvPiYjeGE7CQk8L2c+JiN4YTsJCTxnIGlkPSJzaGFwZTEwMjAtOCIgdHJhbnNmb3JtPSJ0cmFuc2xhdGUoMTUuMjAyNSwtMTQuNTY1KSI+JiN4YTsJCQk8dGl0bGUgaWQ9InRpdGxlMTE2MTcwIj5wYXRoNzE4NjwvdGl0bGU+JiN4YTsJCQk8cGF0aCBpZD0icGF0aDExNjE3MiIgaW5rc2NhcGU6Y29ubmVjdG9yLWN1cnZhdHVyZT0iMCIgc3R5bGU9ImZpbGw6I0ZGRkZGRjsiIGQ9Ik05LjY2LDU4LjU2SDcuOTNsLTYuMTYtOS41NyAgICAgYy0wLjE1LTAuMjQtMC4yOC0wLjQ5LTAuMzgtMC43NUgxLjMzYzAuMDYsMC41NCwwLjA4LDEuMDksMC4wNywxLjY0djguNjhIMHYtMTJoMS44Mmw2LDkuNDFjMC4yNSwwLjM5LDAuNDEsMC42NSwwLjQ5LDAuOCAgICAgYy0wLjA3LTAuNTgtMC4wOS0xLjE3LTAuMDgtMS43NnYtOC40NWgxLjRMOS42Niw1OC41NnoiLz4mI3hhOwkJPC9nPiYjeGE7CQk8ZyBpZD0ic2hhcGUxMDIxLTEwIiB0cmFuc2Zvcm09InRyYW5zbGF0ZSgyNi44MDUsLTE0LjU2NSkiPiYjeGE7CQkJPHRpdGxlIGlkPSJ0aXRsZTExNjE3NSI+cGF0aDcxODg8L3RpdGxlPiYjeGE7CQkJPHBhdGggaWQ9InBhdGgxMTYxNzciIGlua3NjYXBlOmNvbm5lY3Rvci1jdXJ2YXR1cmU9IjAiIHN0eWxlPSJmaWxsOiNGRkZGRkY7IiBkPSJNNi4zNSw1OC41Nkgwdi0xMmg2LjA4djEuMjdIMS40djMuOThoNC4zMyAgICAgdjEuMjZIMS40djQuMTloNC45NVY1OC41NnoiLz4mI3hhOwkJPC9nPiYjeGE7CQk8ZyBpZD0ic2hhcGUxMDIyLTEyIiB0cmFuc2Zvcm09InRyYW5zbGF0ZSgzNC4yMzc1LC0xNC41NjUpIj4mI3hhOwkJCTx0aXRsZSBpZD0idGl0bGUxMTYxODAiPnBhdGg3MTkwPC90aXRsZT4mI3hhOwkJCTxwYXRoIGlkPSJwYXRoMTE2MTgyIiBpbmtzY2FwZTpjb25uZWN0b3ItY3VydmF0dXJlPSIwIiBzdHlsZT0iZmlsbDojRkZGRkZGOyIgZD0iTTguMzEsNDcuODNINC44NXYxMC43M2gtMS40VjQ3LjgzSDB2LTEuMjcgICAgIGg4LjMyTDguMzEsNDcuODN6Ii8+JiN4YTsJCTwvZz4mI3hhOwkJPGcgaWQ9InNoYXBlMTAyMy0xNCIgdHJhbnNmb3JtPSJ0cmFuc2xhdGUoMTUuNDIsLTMwLjAwNzUpIj4mI3hhOwkJCTx0aXRsZSBpZD0idGl0bGUxMTYxODUiPnBhdGg3MTkyPC90aXRsZT4mI3hhOwkJCTxwYXRoIGlkPSJwYXRoMTE2MTg3IiBpbmtzY2FwZTpjb25uZWN0b3ItY3VydmF0dXJlPSIwIiBzdHlsZT0iZmlsbDojRkZGRkZGOyIgZD0iTTEwLjY2LDU4LjU2SDkuMTFsLTEuMy0zLjM2SDIuNzZsLTEuMTksMy4zNkgwICAgICBsNC42LTEyaDEuNDVMMTAuNjYsNTguNTZ6IE03LjM4LDUzLjk0TDUuNSw0OC44M2MtMC4wOS0wLjI2LTAuMTUtMC41My0wLjE5LTAuOGMtMC4wNCwwLjI3LTAuMTEsMC41NC0wLjIsMC44bC0xLjg2LDUuMTEgICAgIEw3LjM4LDUzLjk0eiIvPiYjeGE7CQk8L2c+JiN4YTsJCTxnIGlkPSJzaGFwZTEwMjQtMTYiIHRyYW5zZm9ybT0idHJhbnNsYXRlKDI3LjI5MjUsLTI5LjgzNSkiPiYjeGE7CQkJPHRpdGxlIGlkPSJ0aXRsZTExNjE5MCI+cGF0aDcxOTQ8L3RpdGxlPiYjeGE7CQkJPHBhdGggaWQ9InBhdGgxMTYxOTIiIGlua3NjYXBlOmNvbm5lY3Rvci1jdXJ2YXR1cmU9IjAiIHN0eWxlPSJmaWxsOiNGRkZGRkY7IiBkPSJNMCw1Ny45di0xLjY1YzAuMjEsMC4xOCwwLjQ0LDAuMzMsMC42OCwwLjQ1ICAgICBjMC4yNywwLjE0LDAuNTQsMC4yNSwwLjgzLDAuMzRDMS44LDU3LjEzLDIuMSw1Ny4yLDIuNCw1Ny4yNWMwLjI3LDAuMDUsMC41NSwwLjA3LDAuODIsMC4wN2MwLjY4LDAuMDUsMS4zNS0wLjEyLDEuOTMtMC40OCAgICAgYzAuNjYtMC41NSwwLjg0LTEuNDksMC40My0yLjI1Yy0wLjE2LTAuMjUtMC4zNi0wLjQ3LTAuNTktMC42NWMtMC4yOC0wLjIyLTAuNTgtMC40MS0wLjktMC41N2wtMS4xLTAuNTQgICAgIGMtMC40Mi0wLjIxLTAuODEtMC40Mi0xLjE3LTAuNjRjLTAuMzQtMC4yMS0wLjY2LTAuNDYtMC45NC0wLjc1Yy0wLjI2LTAuMjUtMC40Ny0wLjU0LTAuNjMtMC44NmMtMC4zNS0wLjg0LTAuMy0xLjc5LDAuMTItMi41OSAgICAgYzAuMjQtMC40LDAuNTYtMC43NCwwLjk1LTAuOTljMC40MS0wLjI3LDAuODYtMC40NywxLjMzLTAuNTljMC40OS0wLjEyLDAuOTktMC4xOSwxLjUtMC4xOWMwLjg4LTAuMDYsMS43NiwwLjA5LDIuNTgsMC40MnYxLjU5ICAgICBjLTAuODEtMC41Mi0xLjc2LTAuNzktMi43Mi0wLjc1Yy0wLjMxLDAtMC42MiwwLjAzLTAuOTIsMC4wOWMtMC4yOSwwLjA2LTAuNTcsMC4xNy0wLjgyLDAuMzJjLTAuMjMsMC4xNC0wLjQzLDAuMzMtMC41OCwwLjU2ICAgICBjLTAuMTYsMC4yNS0wLjI0LDAuNTQtMC4yMywwLjgzYy0wLjAxLDAuMjgsMC4wNSwwLjU1LDAuMTcsMC44YzAuMTMsMC4yNCwwLjMsMC40NCwwLjUxLDAuNjFjMC4yNSwwLjIsMC41MiwwLjM4LDAuODEsMC41MyAgICAgYzAuMzIsMC4xNywwLjY5LDAuMzYsMS4xMSwwLjU3YzAuNDIsMC4yLDAuODMsMC40MywxLjIzLDAuNjdjMC4zNiwwLjIxLDAuNywwLjQ2LDEuMDEsMC43NWMwLjI4LDAuMjcsMC41MiwwLjU5LDAuNjksMC45NCAgICAgYzAuMTcsMC4zNywwLjI2LDAuNzgsMC4yNSwxLjE5YzAuMDIsMC41Mi0wLjEsMS4wNC0wLjM0LDEuNWMtMC4yMywwLjQtMC41NSwwLjc0LTAuOTQsMC45OWMtMC40MiwwLjI3LTAuODgsMC40Ni0xLjM2LDAuNTYgICAgIGMtMC41MywwLjEyLTEuMDgsMC4xNy0xLjYyLDAuMTdjLTAuMjMsMC0wLjQ3LTAuMDEtMC43LTAuMDRDMiw1OC40OSwxLjcxLDU4LjQ0LDEuNDIsNTguMzhjLTAuMjgtMC4wNi0wLjU1LTAuMTMtMC44Mi0wLjIyICAgICBDMC4zOSw1OC4xLDAuMTksNTguMDEsMCw1Ny45eiIvPiYjeGE7CQk8L2c+JiN4YTsJCTxnIGlkPSJzaGFwZTEwMjUtMTgiIHRyYW5zZm9ybT0idHJhbnNsYXRlKDM2LjI2MjUsLTMwLjAzNzUpIj4mI3hhOwkJCTx0aXRsZSBpZD0idGl0bGUxMTYxOTUiPnBhdGg3MTk2PC90aXRsZT4mI3hhOwkJCTxwYXRoIGlkPSJwYXRoMTE2MTk3IiBpbmtzY2FwZTpjb25uZWN0b3ItY3VydmF0dXJlPSIwIiBzdHlsZT0iZmlsbDojRkZGRkZGOyIgZD0iTTEuNCw1NC4wNnY0LjVIMHYtMTJoMy4yOSAgICAgYzEuMDgtMC4wNywyLjE1LDAuMjYsMywwLjk0YzAuNzMsMC42OCwxLjEyLDEuNjUsMS4wNiwyLjY0YzAuMDMsMS4wNi0wLjQsMi4wOC0xLjE4LDIuNzlDNS4yOSw1My42OSw0LjE2LDU0LjA4LDMsNTQuMDIgICAgIEwxLjQsNTQuMDZ6IE0xLjQsNDcuODd2NC45MmgxLjVjMC44MSwwLjA2LDEuNjEtMC4xOCwyLjI1LTAuNjdjMC41Mi0wLjQ4LDAuOC0xLjE3LDAuNzUtMS44OGMwLTEuNTgtMC45My0yLjM3LTIuOC0yLjM3SDEuNHoiLz4mI3hhOwkJPC9nPiYjeGE7CTwvZz4mI3hhOzwvZz4mI3hhOzwvc3ZnPg==;" parent="1" vertex="1">
          <mxGeometry x="456" y="79" width="47" height="47" as="geometry" />
        </mxCell>
        <mxCell id="bnFmPi5lSiAIPgZsATgE-8" value="" style="shape=image;verticalLabelPosition=bottom;verticalAlign=top;aspect=fixed;imageAspect=0;image=data:image/svg+xml,PHN2ZyB4bWxuczpjYz0iaHR0cDovL2NyZWF0aXZlY29tbW9ucy5vcmcvbnMjIiB4bWxuczpkYz0iaHR0cDovL3B1cmwub3JnL2RjL2VsZW1lbnRzLzEuMS8iIHhtbG5zOmlua3NjYXBlPSJodHRwOi8vd3d3Lmlua3NjYXBlLm9yZy9uYW1lc3BhY2VzL2lua3NjYXBlIiB4bWxuczpyZGY9Imh0dHA6Ly93d3cudzMub3JnLzE5OTkvMDIvMjItcmRmLXN5bnRheC1ucyMiIHhtbG5zOnNvZGlwb2RpPSJodHRwOi8vc29kaXBvZGkuc291cmNlZm9yZ2UubmV0L0RURC9zb2RpcG9kaS0wLmR0ZCIgeG1sbnM6c3ZnPSJodHRwOi8vd3d3LnczLm9yZy8yMDAwL3N2ZyIgeG1sbnM9Imh0dHA6Ly93d3cudzMub3JnLzIwMDAvc3ZnIiB4bWxuczp4bGluaz0iaHR0cDovL3d3dy53My5vcmcvMTk5OS94bGluayIgdmVyc2lvbj0iMS4xIiBpZD0ic3ZnMzg3MjcwIiBpbmtzY2FwZTp2ZXJzaW9uPSIwLjkyLjMgKDI0MDU1NDYsIDIwMTgtMDMtMTEpIiBzb2RpcG9kaTpkb2NuYW1lPSJ1c2VyX2dlbmVyaWMuc3ZnIiB4PSIwcHgiIHk9IjBweCIgdmlld0JveD0iMCAwIDMwLjUyIDM0LjExIiBzdHlsZT0iZW5hYmxlLWJhY2tncm91bmQ6bmV3IDAgMCAzMC41MiAzNC4xMTsiIHhtbDpzcGFjZT0icHJlc2VydmUiPiYjeGE7PHNvZGlwb2RpOm5hbWVkdmlldyBib3JkZXJjb2xvcj0iIzY2NjY2NiIgYm9yZGVyb3BhY2l0eT0iMSIgZml0LW1hcmdpbi1ib3R0b209IjAiIGZpdC1tYXJnaW4tbGVmdD0iMCIgZml0LW1hcmdpbi1yaWdodD0iMCIgZml0LW1hcmdpbi10b3A9IjAiIGdyaWR0b2xlcmFuY2U9IjEwIiBndWlkZXRvbGVyYW5jZT0iMTAiIGlkPSJuYW1lZHZpZXczODcyNzIiIGlua3NjYXBlOmN1cnJlbnQtbGF5ZXI9InN2ZzM4NzI3MCIgaW5rc2NhcGU6Y3g9IjIwLjM0MzczMiIgaW5rc2NhcGU6Y3k9IjIyLjczOTk4NSIgaW5rc2NhcGU6cGFnZW9wYWNpdHk9IjAiIGlua3NjYXBlOnBhZ2VzaGFkb3c9IjIiIGlua3NjYXBlOndpbmRvdy1oZWlnaHQ9IjEwMTciIGlua3NjYXBlOndpbmRvdy1tYXhpbWl6ZWQ9IjEiIGlua3NjYXBlOndpbmRvdy13aWR0aD0iMTkyMCIgaW5rc2NhcGU6d2luZG93LXg9Ii04IiBpbmtzY2FwZTp3aW5kb3cteT0iLTgiIGlua3NjYXBlOnpvb209IjE4LjI2MDMzMiIgb2JqZWN0dG9sZXJhbmNlPSIxMCIgcGFnZWNvbG9yPSIjZmZmZmZmIiBzaG93Z3JpZD0iZmFsc2UiPiYjeGE7CTwvc29kaXBvZGk6bmFtZWR2aWV3PiYjeGE7PGcgaWQ9ImczODcyNjgiIHRyYW5zZm9ybT0idHJhbnNsYXRlKC0wLjczNTk1NzIyLC0wLjc0OTk5ODgyKSI+JiN4YTsJPHRpdGxlIGlkPSJ0aXRsZTM4NzI1MyI+UGFnZS0xPC90aXRsZT4mI3hhOwk8ZyBpZD0iZ3JvdXA1ODc4LTEiIHRyYW5zZm9ybT0idHJhbnNsYXRlKDEuNSwtMS41KSI+JiN4YTsJCTx0aXRsZSBpZD0idGl0bGUzODcyNTUiPlVzZXIgKEdlbmVyaWMpPC90aXRsZT4mI3hhOwkJPGcgaWQ9InNoYXBlNTg3OS0yIiB0cmFuc2Zvcm09InRyYW5zbGF0ZSg1LjQzLC0xNC40OSkiPiYjeGE7CQkJPHRpdGxlIGlkPSJ0aXRsZTM4NzI1NyI+Y2lyY2xlODAxMTwvdGl0bGU+JiN4YTsJCQkmI3hhOwkJCQk8Y2lyY2xlIGlkPSJlbGxpcHNlMzg3MjU5IiBzdHlsZT0iZmlsbDojRkZGRkZGO3N0cm9rZTojNTU2QThBO3N0cm9rZS13aWR0aDoxLjU7c3Ryb2tlLWxpbmVjYXA6c3F1YXJlO3N0cm9rZS1taXRlcmxpbWl0OjM7IiBjeD0iOS4wNiIgY3k9IjI2LjU1IiByPSI5LjA2Ii8+JiN4YTsJCTwvZz4mI3hhOwkJPGcgaWQ9InNoYXBlNTg4MC00Ij4mI3hhOwkJCTx0aXRsZSBpZD0idGl0bGUzODcyNjIiPnBhdGg4MDEzPC90aXRsZT4mI3hhOwkJCSYjeGE7CQkJCTxwYXRoIGlkPSJwYXRoMzg3MjY0IiBpbmtzY2FwZTpjb25uZWN0b3ItY3VydmF0dXJlPSIwIiBzdHlsZT0iZmlsbDojRkZGRkZGO3N0cm9rZTojNTU2QThBO3N0cm9rZS13aWR0aDoxLjU7c3Ryb2tlLWxpbmVjYXA6c3F1YXJlO3N0cm9rZS1taXRlcmxpbWl0OjM7IiBkPSIgICAgIE0wLDM1LjYxYzAuMTUtOC4wMSw2Ljc2LTE0LjM3LDE0Ljc2LTE0LjIzYzcuOCwwLjE0LDE0LjA4LDYuNDMsMTQuMjMsMTQuMjNIMHoiLz4mI3hhOwkJPC9nPiYjeGE7CTwvZz4mI3hhOzwvZz4mI3hhOzwvc3ZnPg==;imageBackground=none;imageBorder=none;" parent="1" vertex="1">
          <mxGeometry x="106" y="78.77999999999997" width="36.47" height="40" as="geometry" />
        </mxCell>
        <mxCell id="bnFmPi5lSiAIPgZsATgE-9" value="" style="endArrow=none;html=1;rounded=0;" parent="1" edge="1">
          <mxGeometry width="50" height="50" relative="1" as="geometry">
            <mxPoint x="420" y="309" as="sourcePoint" />
            <mxPoint x="421" y="129" as="targetPoint" />
          </mxGeometry>
        </mxCell>
        <mxCell id="bnFmPi5lSiAIPgZsATgE-10" value="" style="endArrow=none;html=1;rounded=0;" parent="1" edge="1">
          <mxGeometry width="50" height="50" relative="1" as="geometry">
            <mxPoint x="776" y="309" as="sourcePoint" />
            <mxPoint x="775.71" y="129" as="targetPoint" />
          </mxGeometry>
        </mxCell>
        <mxCell id="bnFmPi5lSiAIPgZsATgE-11" value="" style="endArrow=classic;html=1;rounded=0;" parent="1" edge="1">
          <mxGeometry width="50" height="50" relative="1" as="geometry">
            <mxPoint x="66" y="189" as="sourcePoint" />
            <mxPoint x="421" y="189" as="targetPoint" />
          </mxGeometry>
        </mxCell>
        <mxCell id="bnFmPi5lSiAIPgZsATgE-12" value="&lt;font color=&quot;#ff66ff&quot;&gt;Sign In Request&lt;/font&gt;&amp;nbsp;&lt;font style=&quot;color: rgb(93, 93, 93);&quot;&gt;[Username, PasswordHash, Public Key..]&lt;/font&gt;" style="text;html=1;align=center;verticalAlign=middle;resizable=0;points=[];autosize=1;strokeColor=none;fillColor=none;" parent="1" vertex="1">
          <mxGeometry x="65" y="159" width="330" height="30" as="geometry" />
        </mxCell>
        <mxCell id="bnFmPi5lSiAIPgZsATgE-13" value="" style="endArrow=classic;html=1;rounded=0;" parent="1" edge="1">
          <mxGeometry width="50" height="50" relative="1" as="geometry">
            <mxPoint x="421" y="249.00000000000003" as="sourcePoint" />
            <mxPoint x="66" y="249.00000000000003" as="targetPoint" />
          </mxGeometry>
        </mxCell>
        <mxCell id="bnFmPi5lSiAIPgZsATgE-14" value="&lt;font style=&quot;color: rgb(255, 102, 255);&quot;&gt;Sign In Response&lt;/font&gt;&amp;nbsp;&lt;font style=&quot;color: rgb(93, 93, 93);&quot;&gt;[New user id, Auth Token]&lt;/font&gt;" style="text;html=1;align=center;verticalAlign=middle;resizable=0;points=[];autosize=1;strokeColor=none;fillColor=none;" parent="1" vertex="1">
          <mxGeometry x="161" y="219" width="260" height="30" as="geometry" />
        </mxCell>
        <mxCell id="bnFmPi5lSiAIPgZsATgE-15" value="" style="endArrow=classic;html=1;rounded=0;" parent="1" edge="1">
          <mxGeometry width="50" height="50" relative="1" as="geometry">
            <mxPoint x="421" y="199" as="sourcePoint" />
            <mxPoint x="776" y="199" as="targetPoint" />
          </mxGeometry>
        </mxCell>
        <mxCell id="bnFmPi5lSiAIPgZsATgE-16" value="Create new User record" style="text;html=1;align=center;verticalAlign=middle;resizable=0;points=[];autosize=1;strokeColor=none;fillColor=none;" parent="1" vertex="1">
          <mxGeometry x="421" y="169" width="150" height="30" as="geometry" />
        </mxCell>
        <mxCell id="bnFmPi5lSiAIPgZsATgE-17" value="" style="endArrow=classic;html=1;rounded=0;" parent="1" edge="1">
          <mxGeometry width="50" height="50" relative="1" as="geometry">
            <mxPoint x="776" y="239" as="sourcePoint" />
            <mxPoint x="421" y="239" as="targetPoint" />
          </mxGeometry>
        </mxCell>
        <mxCell id="bnFmPi5lSiAIPgZsATgE-18" value="Return record id" style="text;html=1;align=center;verticalAlign=middle;resizable=0;points=[];autosize=1;strokeColor=none;fillColor=none;" parent="1" vertex="1">
          <mxGeometry x="665" y="209" width="110" height="30" as="geometry" />
        </mxCell>
        <mxCell id="bnFmPi5lSiAIPgZsATgE-19" value="&lt;font style=&quot;color: rgb(255, 145, 36);&quot;&gt;Public/Private KeyPair must be generated on client&lt;/font&gt;&lt;div&gt;&lt;font style=&quot;color: rgb(255, 145, 36);&quot;&gt;Private key is saved on client, public key is saved in db&lt;/font&gt;&lt;/div&gt;" style="text;html=1;align=left;verticalAlign=middle;resizable=0;points=[];autosize=1;strokeColor=none;fillColor=none;fontSize=10;" parent="1" vertex="1">
          <mxGeometry x="77" y="126" width="270" height="40" as="geometry" />
        </mxCell>
        <mxCell id="7aBlFhqk2-kX7xU5mFht-1" value="As seen, all sensitive data is ONLY encrypted/decrypted by the client. This means the server has no cryptographic information of the vault entries&lt;div&gt;besides the used initialization vector and authentication tag (Zero knowledge Architecture)&lt;div&gt;Several other requests like creating/updating/deleting a Vault, User Management through an Admin etc.&amp;nbsp;&lt;span style=&quot;background-color: transparent; color: light-dark(rgb(0, 204, 0), rgb(237, 237, 237));&quot;&gt;are not additionally encrypted&lt;/span&gt;&lt;/div&gt;&lt;/div&gt;" style="text;html=1;align=left;verticalAlign=middle;resizable=0;points=[];autosize=1;strokeColor=none;fillColor=none;fontColor=light-dark(#00CC00,#EDEDED);" parent="1" vertex="1">
          <mxGeometry x="54" y="1010" width="790" height="60" as="geometry" />
        </mxCell>
        <mxCell id="7aBlFhqk2-kX7xU5mFht-2" value="" style="shape=image;verticalLabelPosition=bottom;verticalAlign=top;imageAspect=0;aspect=fixed;image=data:image/svg+xml,PHN2ZyB4bWxucz0iaHR0cDovL3d3dy53My5vcmcvMjAwMC9zdmciIHZlcnNpb249IjEiIHZpZXdCb3g9IjAgMCA0OCA0OCIgZW5hYmxlLWJhY2tncm91bmQ9Im5ldyAwIDAgNDggNDgiPiYjeGE7ICAgIDxjaXJjbGUgZmlsbD0iIzIxOTZGMyIgY3g9IjI0IiBjeT0iMjQiIHI9IjIxIi8+JiN4YTsgICAgPHJlY3QgeD0iMjIiIHk9IjIyIiBmaWxsPSIjZmZmIiB3aWR0aD0iNCIgaGVpZ2h0PSIxMSIvPiYjeGE7ICAgIDxjaXJjbGUgZmlsbD0iI2ZmZiIgY3g9IjI0IiBjeT0iMTYuNSIgcj0iMi41Ii8+JiN4YTs8L3N2Zz4=;" parent="1" vertex="1">
          <mxGeometry x="6" y="1020" width="40" height="40" as="geometry" />
        </mxCell>
        <mxCell id="7aBlFhqk2-kX7xU5mFht-3" value="&lt;font color=&quot;#31b199&quot;&gt;&lt;span style=&quot;font-size: 18px;&quot;&gt;VaultEntry Read Flow&lt;/span&gt;&lt;/font&gt;" style="text;html=1;fontSize=24;fontStyle=0;verticalAlign=middle;align=center;fillColor=none;strokeColor=none;fontColor=light-dark(#10BFFF,#EDEDED);labelBorderColor=none;labelBackgroundColor=none;textShadow=0;" parent="1" vertex="1">
          <mxGeometry x="292" y="770" width="250" height="40" as="geometry" />
        </mxCell>
        <mxCell id="7aBlFhqk2-kX7xU5mFht-4" value="Client" style="rounded=0;whiteSpace=wrap;html=1;" parent="1" vertex="1">
          <mxGeometry x="2" y="830.22" width="120" height="30" as="geometry" />
        </mxCell>
        <mxCell id="7aBlFhqk2-kX7xU5mFht-5" value="Server" style="rounded=0;whiteSpace=wrap;html=1;" parent="1" vertex="1">
          <mxGeometry x="357" y="830.22" width="120" height="30" as="geometry" />
        </mxCell>
        <mxCell id="7aBlFhqk2-kX7xU5mFht-6" value="DB" style="rounded=0;whiteSpace=wrap;html=1;" parent="1" vertex="1">
          <mxGeometry x="712" y="830.22" width="120" height="30" as="geometry" />
        </mxCell>
        <mxCell id="7aBlFhqk2-kX7xU5mFht-7" value="" style="endArrow=none;html=1;rounded=0;" parent="1" edge="1">
          <mxGeometry width="50" height="50" relative="1" as="geometry">
            <mxPoint x="62" y="990.22" as="sourcePoint" />
            <mxPoint x="61.89999999999999" y="860.22" as="targetPoint" />
          </mxGeometry>
        </mxCell>
        <mxCell id="7aBlFhqk2-kX7xU5mFht-8" value="" style="shape=image;verticalLabelPosition=bottom;labelBackgroundColor=#ffffff;verticalAlign=top;aspect=fixed;imageAspect=0;image=data:image/svg+xml,PHN2ZyB4bWxuczpkYz0iaHR0cDovL3B1cmwub3JnL2RjL2VsZW1lbnRzLzEuMS8iIHhtbG5zOmNjPSJodHRwOi8vY3JlYXRpdmVjb21tb25zLm9yZy9ucyMiIHhtbG5zOnJkZj0iaHR0cDovL3d3dy53My5vcmcvMTk5OS8wMi8yMi1yZGYtc3ludGF4LW5zIyIgeG1sbnM6c3ZnPSJodHRwOi8vd3d3LnczLm9yZy8yMDAwL3N2ZyIgeG1sbnM9Imh0dHA6Ly93d3cudzMub3JnLzIwMDAvc3ZnIiB4bWxuczpzb2RpcG9kaT0iaHR0cDovL3NvZGlwb2RpLnNvdXJjZWZvcmdlLm5ldC9EVEQvc29kaXBvZGktMC5kdGQiIHhtbG5zOmlua3NjYXBlPSJodHRwOi8vd3d3Lmlua3NjYXBlLm9yZy9uYW1lc3BhY2VzL2lua3NjYXBlIiB2ZXJzaW9uPSIxLjEiIGlkPSJzdmcxMDQ1NzIiIGlua3NjYXBlOnZlcnNpb249IjAuOTIuMyAoMjQwNTU0NiwgMjAxOC0wMy0xMSkiIHNvZGlwb2RpOmRvY25hbWU9InNxbC5zdmciIHg9IjBweCIgeT0iMHB4IiB2aWV3Qm94PSIwIDAgNDYuMDMgNjEuMDIiIHhtbDpzcGFjZT0icHJlc2VydmUiIHdpZHRoPSI0Ni4wMjk5OTkiIGhlaWdodD0iNjEuMDIiPjxtZXRhZGF0YSBpZD0ibWV0YWRhdGExMDQ4Ij48cmRmOlJERj48Y2M6V29yayByZGY6YWJvdXQ9IiI+PGRjOmZvcm1hdD5pbWFnZS9zdmcreG1sPC9kYzpmb3JtYXQ+PGRjOnR5cGUgcmRmOnJlc291cmNlPSJodHRwOi8vcHVybC5vcmcvZGMvZGNtaXR5cGUvU3RpbGxJbWFnZSIvPjxkYzp0aXRsZS8+PC9jYzpXb3JrPjwvcmRmOlJERj48L21ldGFkYXRhPjxkZWZzIGlkPSJkZWZzMTA0NiI+JiN4YTsJJiN4YTsmI3hhOwkmI3hhOyYjeGE7CSYjeGE7JiN4YTsJJiN4YTsmI3hhOwkmI3hhOyYjeGE7CSYjeGE7JiN4YTsJJiN4YTsmI3hhOwkmI3hhOyYjeGE7CSYjeGE7JiN4YTsJCSYjeGE7CSYjeGE7CQkmI3hhOwkmI3hhOwkJJiN4YTsJJiN4YTsJCSYjeGE7CSYjeGE7CQkmI3hhOwkmI3hhOwkJJiN4YTsJJiN4YTsJCSYjeGE7CSYjeGE7CQkmI3hhOwk8L2RlZnM+JiN4YTs8ZmlsdGVyIGlkPSJmaWx0ZXJfMiI+JiN4YTsJPGZlR2F1c3NpYW5CbHVyIGlkPSJmZUdhdXNzaWFuQmx1cjEwNDQ4OSIgc3RkRGV2aWF0aW9uPSIyIi8+JiN4YTs8L2ZpbHRlcj4mI3hhOzxzb2RpcG9kaTpuYW1lZHZpZXcgYm9yZGVyY29sb3I9IiM2NjY2NjYiIGJvcmRlcm9wYWNpdHk9IjEiIGZpdC1tYXJnaW4tYm90dG9tPSIwIiBmaXQtbWFyZ2luLWxlZnQ9IjAiIGZpdC1tYXJnaW4tcmlnaHQ9IjAiIGZpdC1tYXJnaW4tdG9wPSIwIiBncmlkdG9sZXJhbmNlPSIxMCIgZ3VpZGV0b2xlcmFuY2U9IjEwIiBpZD0ibmFtZWR2aWV3MTA0NTc0IiBpbmtzY2FwZTpjdXJyZW50LWxheWVyPSJzdmcxMDQ1NzIiIGlua3NjYXBlOmN4PSIwLjI3NDc3MzkyIiBpbmtzY2FwZTpjeT0iMjcuOTI1ODA5IiBpbmtzY2FwZTpwYWdlb3BhY2l0eT0iMCIgaW5rc2NhcGU6cGFnZXNoYWRvdz0iMiIgaW5rc2NhcGU6d2luZG93LWhlaWdodD0iMTAxNyIgaW5rc2NhcGU6d2luZG93LW1heGltaXplZD0iMSIgaW5rc2NhcGU6d2luZG93LXdpZHRoPSIxOTIwIiBpbmtzY2FwZTp3aW5kb3cteD0iLTgiIGlua3NjYXBlOndpbmRvdy15PSItOCIgaW5rc2NhcGU6em9vbT0iNy42MDUyNjMyIiBvYmplY3R0b2xlcmFuY2U9IjEwIiBwYWdlY29sb3I9IiNmZmZmZmYiIHNob3dncmlkPSJmYWxzZSI+JiN4YTsJPC9zb2RpcG9kaTpuYW1lZHZpZXc+JiN4YTsmI3hhOzxwYXRoIGlkPSJwYXRoMTA0NTAyIiBpbmtzY2FwZTpjb25uZWN0b3ItY3VydmF0dXJlPSIwIiBzdHlsZT0iZmlsbDojMDA3MmM2IiBkPSJtIDAsOC4zNCB2IDQ0LjM0IGMgMCw0LjYxIDEwLjMxLDguMzQgMjMuMDIsOC4zNCBWIDguMzQgWiIvPiYjeGE7JiN4YTs8cGF0aCBpZD0icGF0aDEwNDUxMCIgaW5rc2NhcGU6Y29ubmVjdG9yLWN1cnZhdHVyZT0iMCIgc3R5bGU9ImZpbGw6IzAwNzJjNiIgZD0ibSAyMi43LDYxLjAyIGggMC4zMiBjIDEyLjcxLDAgMjMuMDEsLTMuNzMgMjMuMDEsLTguMzQgViA4LjM0IEggMjIuNyBaIi8+JiN4YTsmI3hhOzxwYXRoIGlkPSJwYXRoMTA0NTE4IiBpbmtzY2FwZTpjb25uZWN0b3ItY3VydmF0dXJlPSIwIiBzdHlsZT0iZmlsbDojZmZmZmZmO2ZpbGwtb3BhY2l0eTowLjE1IiBkPSJtIDIyLjcsNjEuMDIgaCAwLjMyIGMgMTIuNzEsMCAyMy4wMSwtMy43MyAyMy4wMSwtOC4zNCBWIDguMzQgSCAyMi43IFoiLz4mI3hhOyYjeGE7PHBhdGggaWQ9InBhdGgxMDQ1MjYiIGlua3NjYXBlOmNvbm5lY3Rvci1jdXJ2YXR1cmU9IjAiIHN0eWxlPSJmaWxsOiNmZmZmZmYiIGQ9Im0gNDYuMDMsOC4zMyBjIDAsNC42MSAtMTAuMyw4LjM0IC0yMy4wMSw4LjM0IEMgMTAuMzEsMTYuNjcgMCwxMi45NCAwLDguMzMgMCwzLjczIDEwLjMxLDAgMjMuMDIsMCAzNS43MywwIDQ2LjAzLDMuNzMgNDYuMDMsOC4zMyBaIi8+JiN4YTsmI3hhOzxwYXRoIGlkPSJwYXRoMTA0NTM0IiBpbmtzY2FwZTpjb25uZWN0b3ItY3VydmF0dXJlPSIwIiBzdHlsZT0iZmlsbDojN2ZiYTAwIiBkPSJtIDQxLjMyLDcuODUgYyAwLDMuMDQgLTguMTksNS41IC0xOC4zMSw1LjUgLTEwLjExLDAgLTE4LjMxLC0yLjQ2IC0xOC4zMSwtNS41IDAsLTMuMDQgOC4yLC01LjUgMTguMzEsLTUuNSAxMC4xMiwwIDE4LjMxLDIuNDYgMTguMzEsNS41IHoiLz4mI3hhOyYjeGE7PHBhdGggaWQ9InBhdGgxMDQ1NDIiIGlua3NjYXBlOmNvbm5lY3Rvci1jdXJ2YXR1cmU9IjAiIHN0eWxlPSJmaWxsOiNiOGQ0MzIiIGQ9Im0gMzcuNSwxMS4yMSBjIDIuMzksLTAuOTMgMy44MywtMi4wOSAzLjgzLC0zLjM2IDAsLTMuMDQgLTguMTksLTUuNSAtMTguMzEsLTUuNSAtMTAuMTEsMCAtMTguMzEsMi40NiAtMTguMzEsNS41IDAsMS4yNyAxLjQ0LDIuNDMgMy44NCwzLjM2IDMuMzUsLTEuMyA4LjU4LC0yLjE0IDE0LjQ3LC0yLjE0IDUuOSwwIDExLjEzLDAuODQgMTQuNDgsMi4xNCB6Ii8+JiN4YTsmI3hhOzxwYXRoIGlkPSJwYXRoMTA0NTUwIiBpbmtzY2FwZTpjb25uZWN0b3ItY3VydmF0dXJlPSIwIiBzdHlsZT0iZmlsbDojZmZmZmZmIiBkPSJtIDE1LjcxLDM5LjExIGMgMCwxLjM4IC0wLjUsMi40NSAtMS41LDMuMjEgLTEsMC43NSAtMi4zOCwxLjEzIC00LjE0LDEuMTMgLTEuNSwwIC0yLjc1LC0wLjI3IC0zLjc2LC0wLjgxIFYgMzkuNCBjIDEuMTYsMC45OCAyLjQ0LDEuNDggMy44NCwxLjQ4IDAuNjcsMCAxLjIsLTAuMTQgMS41NiwtMC40MSAwLjM3LC0wLjI3IDAuNTYsLTAuNjMgMC41NiwtMS4wNyAwLC0wLjQ0IC0wLjE4LC0wLjgyIC0wLjUzLC0xLjE1IEMgMTEuMzgsMzcuOTMgMTAuNjYsMzcuNTEgOS41NywzNyA3LjM2LDM1Ljk2IDYuMjUsMzQuNTQgNi4yNSwzMi43NCBjIDAsLTEuMyAwLjQ4LC0yLjM1IDEuNDUsLTMuMTMgMC45NiwtMC43OSAyLjI1LC0xLjE4IDMuODUsLTEuMTggMS40MiwwIDIuNTksMC4xOCAzLjUyLDAuNTUgdiAzLjAzIEMgMTQuMDksMzEuMzQgMTIuOTgsMzEgMTEuNzMsMzEgYyAtMC42MywwIC0xLjEyLDAuMTMgLTEuNDksMC40IC0wLjM2LDAuMjcgLTAuNTQsMC42MiAtMC41NCwxLjA3IDAsMC40NiAwLjE0LDAuODMgMC40NCwxLjEzIDAuMjksMC4yOSAwLjg5LDAuNjUgMS44LDEuMDkgMS4zNiwwLjY0IDIuMzMsMS4yOSAyLjkxLDEuOTUgMC41NywwLjY2IDAuODYsMS40OSAwLjg2LDIuNDcgeiIvPiYjeGE7JiN4YTs8cGF0aCBpZD0icGF0aDEwNDU1OCIgaW5rc2NhcGU6Y29ubmVjdG9yLWN1cnZhdHVyZT0iMCIgc3R5bGU9ImZpbGw6I2ZmZmZmZiIgZD0ibSAzMS4zMywzNS44NCBjIDAsMS43MSAtMC4zOSwzLjE5IC0xLjE2LDQuNDUgLTAuNzgsMS4yNSAtMS44NywyLjEzIC0zLjI4LDIuNjQgbCA0LjIxLDMuOSBoIC00LjI1IGwgLTMuMDEsLTMuMzcgYyAtMS4yOSwtMC4wNSAtMi40NiwtMC4zOSAtMy40OSwtMS4wMyAtMS4wNCwtMC42MyAtMS44NCwtMS41IC0yLjQsLTIuNjEgLTAuNTcsLTEuMSAtMC44NSwtMi4zMyAtMC44NSwtMy42OSAwLC0xLjUgMC4zMSwtMi44NSAwLjkyLC00LjAyIDAuNjEsLTEuMTggMS40NywtMi4wOSAyLjU3LC0yLjcyIDEuMTEsLTAuNjQgMi4zOCwtMC45NiAzLjgxLC0wLjk2IDEuMzQsMCAyLjU0LDAuMzEgMy41OSwwLjkzIDEuMDYsMC42MSAxLjg4LDEuNDggMi40NywyLjYyIDAuNTgsMS4xMyAwLjg3LDIuNDIgMC44NywzLjg2IHogbSAtMy40NCwwLjE4IGMgMCwtMS40NyAtMC4zMiwtMi42MyAtMC45NiwtMy40OSAtMC42NSwtMC44NSAtMS41MiwtMS4yOCAtMi42NCwtMS4yOCAtMS4xMywwIC0yLjA0LDAuNDMgLTIuNzIsMS4yOSAtMC42OCwwLjg1IC0xLjAzLDEuOTkgLTEuMDMsMy40MiAwLDEuNDIgMC4zNCwyLjU1IDEuMDEsMy40IDAuNjcsMC44NCAxLjU1LDEuMjcgMi42NiwxLjI3IDEuMTMsMCAyLjAyLC0wLjQxIDIuNjgsLTEuMjMgMC42NywtMC44MiAxLC0xLjk1IDEsLTMuMzggeiIvPiYjeGE7JiN4YTs8cGF0aCBpZD0icGF0aDEwNDU2NiIgaW5rc2NhcGU6Y29ubmVjdG9yLWN1cnZhdHVyZT0iMCIgc3R5bGU9ImZpbGw6I2ZmZmZmZiIgZD0iTSA0Mi4zOSw0My4yIEggMzMuNzQgViAyOC42NyBoIDMuMjcgdiAxMS44OCBoIDUuMzggeiIvPiYjeGE7PC9zdmc+;" parent="1" vertex="1">
          <mxGeometry x="810" y="811.22" width="30" height="39.78" as="geometry" />
        </mxCell>
        <mxCell id="7aBlFhqk2-kX7xU5mFht-9" value="" style="shape=image;verticalLabelPosition=bottom;labelBackgroundColor=#ffffff;verticalAlign=top;aspect=fixed;imageAspect=0;image=data:image/svg+xml,PHN2ZyB4bWxuczpjYz0iaHR0cDovL2NyZWF0aXZlY29tbW9ucy5vcmcvbnMjIiB4bWxuczpkYz0iaHR0cDovL3B1cmwub3JnL2RjL2VsZW1lbnRzLzEuMS8iIHhtbG5zOmlua3NjYXBlPSJodHRwOi8vd3d3Lmlua3NjYXBlLm9yZy9uYW1lc3BhY2VzL2lua3NjYXBlIiB4bWxuczpyZGY9Imh0dHA6Ly93d3cudzMub3JnLzE5OTkvMDIvMjItcmRmLXN5bnRheC1ucyMiIHhtbG5zOnNvZGlwb2RpPSJodHRwOi8vc29kaXBvZGkuc291cmNlZm9yZ2UubmV0L0RURC9zb2RpcG9kaS0wLmR0ZCIgeG1sbnM6c3ZnPSJodHRwOi8vd3d3LnczLm9yZy8yMDAwL3N2ZyIgeG1sbnM9Imh0dHA6Ly93d3cudzMub3JnLzIwMDAvc3ZnIiB4bWxuczp4bGluaz0iaHR0cDovL3d3dy53My5vcmcvMTk5OS94bGluayIgdmVyc2lvbj0iMS4xIiBpZD0ic3ZnMTE2MjAzIiBpbmtzY2FwZTp2ZXJzaW9uPSIwLjkyLjMgKDI0MDU1NDYsIDIwMTgtMDMtMTEpIiBzb2RpcG9kaTpkb2NuYW1lPSJhc3BfbmV0LnN2ZyIgeD0iMHB4IiB5PSIwcHgiIHZpZXdCb3g9IjAgMCA1Ny4wNiA1Ny4wNiIgc3R5bGU9ImVuYWJsZS1iYWNrZ3JvdW5kOm5ldyAwIDAgNTcuMDYgNTcuMDY7IiB4bWw6c3BhY2U9InByZXNlcnZlIj4mI3hhOzxzb2RpcG9kaTpuYW1lZHZpZXcgYm9yZGVyY29sb3I9IiM2NjY2NjYiIGJvcmRlcm9wYWNpdHk9IjEiIGZpdC1tYXJnaW4tYm90dG9tPSIwIiBmaXQtbWFyZ2luLWxlZnQ9IjAiIGZpdC1tYXJnaW4tcmlnaHQ9IjAiIGZpdC1tYXJnaW4tdG9wPSIwIiBncmlkdG9sZXJhbmNlPSIxMCIgZ3VpZGV0b2xlcmFuY2U9IjEwIiBpZD0ibmFtZWR2aWV3MTE2MjA1IiBpbmtzY2FwZTpjdXJyZW50LWxheWVyPSJzdmcxMTYyMDMiIGlua3NjYXBlOmN4PSIzOC4wMzk5ODMiIGlua3NjYXBlOmN5PSIzOC4wMzk5ODMiIGlua3NjYXBlOnBhZ2VvcGFjaXR5PSIwIiBpbmtzY2FwZTpwYWdlc2hhZG93PSIyIiBpbmtzY2FwZTp3aW5kb3ctaGVpZ2h0PSIxMDE3IiBpbmtzY2FwZTp3aW5kb3ctbWF4aW1pemVkPSIxIiBpbmtzY2FwZTp3aW5kb3ctd2lkdGg9IjE5MjAiIGlua3NjYXBlOndpbmRvdy14PSItOCIgaW5rc2NhcGU6d2luZG93LXk9Ii04IiBpbmtzY2FwZTp6b29tPSIxMS4xMDQwMDEiIG9iamVjdHRvbGVyYW5jZT0iMTAiIHBhZ2Vjb2xvcj0iI2ZmZmZmZiIgc2hvd2dyaWQ9ImZhbHNlIj4mI3hhOwk8L3NvZGlwb2RpOm5hbWVkdmlldz4mI3hhOzxnIGlkPSJnMTE2MjAxIiB0cmFuc2Zvcm09InRyYW5zbGF0ZSgtMC43NSwtMC43NSkiPiYjeGE7CTx0aXRsZSBpZD0idGl0bGUxMTYxNTEiPlBhZ2UtMTwvdGl0bGU+JiN4YTsJPGcgaWQ9Imdyb3VwMTAxNi0xIiB0cmFuc2Zvcm09InRyYW5zbGF0ZSgwLjc1LC0wLjc1KSI+JiN4YTsJCTx0aXRsZSBpZD0idGl0bGUxMTYxNTMiPkFTUC5ORVQ8L3RpdGxlPiYjeGE7CQk8ZyBpZD0ic2hhcGUxMDE3LTIiPiYjeGE7CQkJPHRpdGxlIGlkPSJ0aXRsZTExNjE1NSI+Y2lyY2xlNzE4MDwvdGl0bGU+JiN4YTsJCQk8Y2lyY2xlIGlkPSJlbGxpcHNlMTE2MTU3IiBzdHlsZT0iZmlsbDojNjMzQkEzOyIgY3g9IjI4LjUzIiBjeT0iMzAuMDMiIHI9IjI4LjUzIi8+JiN4YTsJCTwvZz4mI3hhOwkJPGcgaWQ9InNoYXBlMTAxOC00IiB0cmFuc2Zvcm09InRyYW5zbGF0ZSg4Ljc1NzE3LC04LjczNDY3KSI+JiN4YTsJCQk8dGl0bGUgaWQ9InRpdGxlMTE2MTYwIj5wYXRoNzE4MjwvdGl0bGU+JiN4YTsJCQk8cGF0aCBpZD0icGF0aDExNjE2MiIgaW5rc2NhcGU6Y29ubmVjdG9yLWN1cnZhdHVyZT0iMCIgc3R5bGU9ImZpbGw6IzVDMkQ5MTsiIGQ9Ik0wLDE4LjIzYy0xMS4xNCwxMS4xNC0xMS4xNCwyOS4xOSwwLDQwLjMzICAgICBzMjkuMTksMTEuMTQsNDAuMzMsMGwwLDBMMCwxOC4yM3oiLz4mI3hhOwkJPC9nPiYjeGE7CQk8ZyBpZD0ic2hhcGUxMDE5LTYiIHRyYW5zZm9ybT0idHJhbnNsYXRlKDExLjg4LC0xNC40KSI+JiN4YTsJCQk8dGl0bGUgaWQ9InRpdGxlMTE2MTY1Ij5wYXRoNzE4NDwvdGl0bGU+JiN4YTsJCQk8cGF0aCBpZD0icGF0aDExNjE2NyIgaW5rc2NhcGU6Y29ubmVjdG9yLWN1cnZhdHVyZT0iMCIgc3R5bGU9ImZpbGw6I0ZGRkZGRjsiIGQ9Ik0wLjkzLDU4LjU2Yy0wLjI1LDAtMC40OS0wLjEtMC42Ni0wLjI4ICAgICBDMC4wOSw1OC4xMSwwLDU3Ljg3LDAsNTcuNjJjMC0wLjI1LDAuMDktMC40OSwwLjI3LTAuNjdjMC4xNy0wLjE4LDAuNDEtMC4yOCwwLjY2LTAuMjhjMC4yNSwwLDAuNDksMC4xLDAuNjcsMC4yOCAgICAgYzAuMTgsMC4xNywwLjI4LDAuNDIsMC4yOCwwLjY3QzEuODcsNTguMTQsMS40NSw1OC41NiwwLjkzLDU4LjU2eiIvPiYjeGE7CQk8L2c+JiN4YTsJCTxnIGlkPSJzaGFwZTEwMjAtOCIgdHJhbnNmb3JtPSJ0cmFuc2xhdGUoMTUuMjAyNSwtMTQuNTY1KSI+JiN4YTsJCQk8dGl0bGUgaWQ9InRpdGxlMTE2MTcwIj5wYXRoNzE4NjwvdGl0bGU+JiN4YTsJCQk8cGF0aCBpZD0icGF0aDExNjE3MiIgaW5rc2NhcGU6Y29ubmVjdG9yLWN1cnZhdHVyZT0iMCIgc3R5bGU9ImZpbGw6I0ZGRkZGRjsiIGQ9Ik05LjY2LDU4LjU2SDcuOTNsLTYuMTYtOS41NyAgICAgYy0wLjE1LTAuMjQtMC4yOC0wLjQ5LTAuMzgtMC43NUgxLjMzYzAuMDYsMC41NCwwLjA4LDEuMDksMC4wNywxLjY0djguNjhIMHYtMTJoMS44Mmw2LDkuNDFjMC4yNSwwLjM5LDAuNDEsMC42NSwwLjQ5LDAuOCAgICAgYy0wLjA3LTAuNTgtMC4wOS0xLjE3LTAuMDgtMS43NnYtOC40NWgxLjRMOS42Niw1OC41NnoiLz4mI3hhOwkJPC9nPiYjeGE7CQk8ZyBpZD0ic2hhcGUxMDIxLTEwIiB0cmFuc2Zvcm09InRyYW5zbGF0ZSgyNi44MDUsLTE0LjU2NSkiPiYjeGE7CQkJPHRpdGxlIGlkPSJ0aXRsZTExNjE3NSI+cGF0aDcxODg8L3RpdGxlPiYjeGE7CQkJPHBhdGggaWQ9InBhdGgxMTYxNzciIGlua3NjYXBlOmNvbm5lY3Rvci1jdXJ2YXR1cmU9IjAiIHN0eWxlPSJmaWxsOiNGRkZGRkY7IiBkPSJNNi4zNSw1OC41Nkgwdi0xMmg2LjA4djEuMjdIMS40djMuOThoNC4zMyAgICAgdjEuMjZIMS40djQuMTloNC45NVY1OC41NnoiLz4mI3hhOwkJPC9nPiYjeGE7CQk8ZyBpZD0ic2hhcGUxMDIyLTEyIiB0cmFuc2Zvcm09InRyYW5zbGF0ZSgzNC4yMzc1LC0xNC41NjUpIj4mI3hhOwkJCTx0aXRsZSBpZD0idGl0bGUxMTYxODAiPnBhdGg3MTkwPC90aXRsZT4mI3hhOwkJCTxwYXRoIGlkPSJwYXRoMTE2MTgyIiBpbmtzY2FwZTpjb25uZWN0b3ItY3VydmF0dXJlPSIwIiBzdHlsZT0iZmlsbDojRkZGRkZGOyIgZD0iTTguMzEsNDcuODNINC44NXYxMC43M2gtMS40VjQ3LjgzSDB2LTEuMjcgICAgIGg4LjMyTDguMzEsNDcuODN6Ii8+JiN4YTsJCTwvZz4mI3hhOwkJPGcgaWQ9InNoYXBlMTAyMy0xNCIgdHJhbnNmb3JtPSJ0cmFuc2xhdGUoMTUuNDIsLTMwLjAwNzUpIj4mI3hhOwkJCTx0aXRsZSBpZD0idGl0bGUxMTYxODUiPnBhdGg3MTkyPC90aXRsZT4mI3hhOwkJCTxwYXRoIGlkPSJwYXRoMTE2MTg3IiBpbmtzY2FwZTpjb25uZWN0b3ItY3VydmF0dXJlPSIwIiBzdHlsZT0iZmlsbDojRkZGRkZGOyIgZD0iTTEwLjY2LDU4LjU2SDkuMTFsLTEuMy0zLjM2SDIuNzZsLTEuMTksMy4zNkgwICAgICBsNC42LTEyaDEuNDVMMTAuNjYsNTguNTZ6IE03LjM4LDUzLjk0TDUuNSw0OC44M2MtMC4wOS0wLjI2LTAuMTUtMC41My0wLjE5LTAuOGMtMC4wNCwwLjI3LTAuMTEsMC41NC0wLjIsMC44bC0xLjg2LDUuMTEgICAgIEw3LjM4LDUzLjk0eiIvPiYjeGE7CQk8L2c+JiN4YTsJCTxnIGlkPSJzaGFwZTEwMjQtMTYiIHRyYW5zZm9ybT0idHJhbnNsYXRlKDI3LjI5MjUsLTI5LjgzNSkiPiYjeGE7CQkJPHRpdGxlIGlkPSJ0aXRsZTExNjE5MCI+cGF0aDcxOTQ8L3RpdGxlPiYjeGE7CQkJPHBhdGggaWQ9InBhdGgxMTYxOTIiIGlua3NjYXBlOmNvbm5lY3Rvci1jdXJ2YXR1cmU9IjAiIHN0eWxlPSJmaWxsOiNGRkZGRkY7IiBkPSJNMCw1Ny45di0xLjY1YzAuMjEsMC4xOCwwLjQ0LDAuMzMsMC42OCwwLjQ1ICAgICBjMC4yNywwLjE0LDAuNTQsMC4yNSwwLjgzLDAuMzRDMS44LDU3LjEzLDIuMSw1Ny4yLDIuNCw1Ny4yNWMwLjI3LDAuMDUsMC41NSwwLjA3LDAuODIsMC4wN2MwLjY4LDAuMDUsMS4zNS0wLjEyLDEuOTMtMC40OCAgICAgYzAuNjYtMC41NSwwLjg0LTEuNDksMC40My0yLjI1Yy0wLjE2LTAuMjUtMC4zNi0wLjQ3LTAuNTktMC42NWMtMC4yOC0wLjIyLTAuNTgtMC40MS0wLjktMC41N2wtMS4xLTAuNTQgICAgIGMtMC40Mi0wLjIxLTAuODEtMC40Mi0xLjE3LTAuNjRjLTAuMzQtMC4yMS0wLjY2LTAuNDYtMC45NC0wLjc1Yy0wLjI2LTAuMjUtMC40Ny0wLjU0LTAuNjMtMC44NmMtMC4zNS0wLjg0LTAuMy0xLjc5LDAuMTItMi41OSAgICAgYzAuMjQtMC40LDAuNTYtMC43NCwwLjk1LTAuOTljMC40MS0wLjI3LDAuODYtMC40NywxLjMzLTAuNTljMC40OS0wLjEyLDAuOTktMC4xOSwxLjUtMC4xOWMwLjg4LTAuMDYsMS43NiwwLjA5LDIuNTgsMC40MnYxLjU5ICAgICBjLTAuODEtMC41Mi0xLjc2LTAuNzktMi43Mi0wLjc1Yy0wLjMxLDAtMC42MiwwLjAzLTAuOTIsMC4wOWMtMC4yOSwwLjA2LTAuNTcsMC4xNy0wLjgyLDAuMzJjLTAuMjMsMC4xNC0wLjQzLDAuMzMtMC41OCwwLjU2ICAgICBjLTAuMTYsMC4yNS0wLjI0LDAuNTQtMC4yMywwLjgzYy0wLjAxLDAuMjgsMC4wNSwwLjU1LDAuMTcsMC44YzAuMTMsMC4yNCwwLjMsMC40NCwwLjUxLDAuNjFjMC4yNSwwLjIsMC41MiwwLjM4LDAuODEsMC41MyAgICAgYzAuMzIsMC4xNywwLjY5LDAuMzYsMS4xMSwwLjU3YzAuNDIsMC4yLDAuODMsMC40MywxLjIzLDAuNjdjMC4zNiwwLjIxLDAuNywwLjQ2LDEuMDEsMC43NWMwLjI4LDAuMjcsMC41MiwwLjU5LDAuNjksMC45NCAgICAgYzAuMTcsMC4zNywwLjI2LDAuNzgsMC4yNSwxLjE5YzAuMDIsMC41Mi0wLjEsMS4wNC0wLjM0LDEuNWMtMC4yMywwLjQtMC41NSwwLjc0LTAuOTQsMC45OWMtMC40MiwwLjI3LTAuODgsMC40Ni0xLjM2LDAuNTYgICAgIGMtMC41MywwLjEyLTEuMDgsMC4xNy0xLjYyLDAuMTdjLTAuMjMsMC0wLjQ3LTAuMDEtMC43LTAuMDRDMiw1OC40OSwxLjcxLDU4LjQ0LDEuNDIsNTguMzhjLTAuMjgtMC4wNi0wLjU1LTAuMTMtMC44Mi0wLjIyICAgICBDMC4zOSw1OC4xLDAuMTksNTguMDEsMCw1Ny45eiIvPiYjeGE7CQk8L2c+JiN4YTsJCTxnIGlkPSJzaGFwZTEwMjUtMTgiIHRyYW5zZm9ybT0idHJhbnNsYXRlKDM2LjI2MjUsLTMwLjAzNzUpIj4mI3hhOwkJCTx0aXRsZSBpZD0idGl0bGUxMTYxOTUiPnBhdGg3MTk2PC90aXRsZT4mI3hhOwkJCTxwYXRoIGlkPSJwYXRoMTE2MTk3IiBpbmtzY2FwZTpjb25uZWN0b3ItY3VydmF0dXJlPSIwIiBzdHlsZT0iZmlsbDojRkZGRkZGOyIgZD0iTTEuNCw1NC4wNnY0LjVIMHYtMTJoMy4yOSAgICAgYzEuMDgtMC4wNywyLjE1LDAuMjYsMywwLjk0YzAuNzMsMC42OCwxLjEyLDEuNjUsMS4wNiwyLjY0YzAuMDMsMS4wNi0wLjQsMi4wOC0xLjE4LDIuNzlDNS4yOSw1My42OSw0LjE2LDU0LjA4LDMsNTQuMDIgICAgIEwxLjQsNTQuMDZ6IE0xLjQsNDcuODd2NC45MmgxLjVjMC44MSwwLjA2LDEuNjEtMC4xOCwyLjI1LTAuNjdjMC41Mi0wLjQ4LDAuOC0xLjE3LDAuNzUtMS44OGMwLTEuNTgtMC45My0yLjM3LTIuOC0yLjM3SDEuNHoiLz4mI3hhOwkJPC9nPiYjeGE7CTwvZz4mI3hhOzwvZz4mI3hhOzwvc3ZnPg==;" parent="1" vertex="1">
          <mxGeometry x="452" y="810.22" width="47" height="47" as="geometry" />
        </mxCell>
        <mxCell id="7aBlFhqk2-kX7xU5mFht-10" value="" style="shape=image;verticalLabelPosition=bottom;verticalAlign=top;aspect=fixed;imageAspect=0;image=data:image/svg+xml,PHN2ZyB4bWxuczpjYz0iaHR0cDovL2NyZWF0aXZlY29tbW9ucy5vcmcvbnMjIiB4bWxuczpkYz0iaHR0cDovL3B1cmwub3JnL2RjL2VsZW1lbnRzLzEuMS8iIHhtbG5zOmlua3NjYXBlPSJodHRwOi8vd3d3Lmlua3NjYXBlLm9yZy9uYW1lc3BhY2VzL2lua3NjYXBlIiB4bWxuczpyZGY9Imh0dHA6Ly93d3cudzMub3JnLzE5OTkvMDIvMjItcmRmLXN5bnRheC1ucyMiIHhtbG5zOnNvZGlwb2RpPSJodHRwOi8vc29kaXBvZGkuc291cmNlZm9yZ2UubmV0L0RURC9zb2RpcG9kaS0wLmR0ZCIgeG1sbnM6c3ZnPSJodHRwOi8vd3d3LnczLm9yZy8yMDAwL3N2ZyIgeG1sbnM9Imh0dHA6Ly93d3cudzMub3JnLzIwMDAvc3ZnIiB4bWxuczp4bGluaz0iaHR0cDovL3d3dy53My5vcmcvMTk5OS94bGluayIgdmVyc2lvbj0iMS4xIiBpZD0ic3ZnMzg3MjcwIiBpbmtzY2FwZTp2ZXJzaW9uPSIwLjkyLjMgKDI0MDU1NDYsIDIwMTgtMDMtMTEpIiBzb2RpcG9kaTpkb2NuYW1lPSJ1c2VyX2dlbmVyaWMuc3ZnIiB4PSIwcHgiIHk9IjBweCIgdmlld0JveD0iMCAwIDMwLjUyIDM0LjExIiBzdHlsZT0iZW5hYmxlLWJhY2tncm91bmQ6bmV3IDAgMCAzMC41MiAzNC4xMTsiIHhtbDpzcGFjZT0icHJlc2VydmUiPiYjeGE7PHNvZGlwb2RpOm5hbWVkdmlldyBib3JkZXJjb2xvcj0iIzY2NjY2NiIgYm9yZGVyb3BhY2l0eT0iMSIgZml0LW1hcmdpbi1ib3R0b209IjAiIGZpdC1tYXJnaW4tbGVmdD0iMCIgZml0LW1hcmdpbi1yaWdodD0iMCIgZml0LW1hcmdpbi10b3A9IjAiIGdyaWR0b2xlcmFuY2U9IjEwIiBndWlkZXRvbGVyYW5jZT0iMTAiIGlkPSJuYW1lZHZpZXczODcyNzIiIGlua3NjYXBlOmN1cnJlbnQtbGF5ZXI9InN2ZzM4NzI3MCIgaW5rc2NhcGU6Y3g9IjIwLjM0MzczMiIgaW5rc2NhcGU6Y3k9IjIyLjczOTk4NSIgaW5rc2NhcGU6cGFnZW9wYWNpdHk9IjAiIGlua3NjYXBlOnBhZ2VzaGFkb3c9IjIiIGlua3NjYXBlOndpbmRvdy1oZWlnaHQ9IjEwMTciIGlua3NjYXBlOndpbmRvdy1tYXhpbWl6ZWQ9IjEiIGlua3NjYXBlOndpbmRvdy13aWR0aD0iMTkyMCIgaW5rc2NhcGU6d2luZG93LXg9Ii04IiBpbmtzY2FwZTp3aW5kb3cteT0iLTgiIGlua3NjYXBlOnpvb209IjE4LjI2MDMzMiIgb2JqZWN0dG9sZXJhbmNlPSIxMCIgcGFnZWNvbG9yPSIjZmZmZmZmIiBzaG93Z3JpZD0iZmFsc2UiPiYjeGE7CTwvc29kaXBvZGk6bmFtZWR2aWV3PiYjeGE7PGcgaWQ9ImczODcyNjgiIHRyYW5zZm9ybT0idHJhbnNsYXRlKC0wLjczNTk1NzIyLC0wLjc0OTk5ODgyKSI+JiN4YTsJPHRpdGxlIGlkPSJ0aXRsZTM4NzI1MyI+UGFnZS0xPC90aXRsZT4mI3hhOwk8ZyBpZD0iZ3JvdXA1ODc4LTEiIHRyYW5zZm9ybT0idHJhbnNsYXRlKDEuNSwtMS41KSI+JiN4YTsJCTx0aXRsZSBpZD0idGl0bGUzODcyNTUiPlVzZXIgKEdlbmVyaWMpPC90aXRsZT4mI3hhOwkJPGcgaWQ9InNoYXBlNTg3OS0yIiB0cmFuc2Zvcm09InRyYW5zbGF0ZSg1LjQzLC0xNC40OSkiPiYjeGE7CQkJPHRpdGxlIGlkPSJ0aXRsZTM4NzI1NyI+Y2lyY2xlODAxMTwvdGl0bGU+JiN4YTsJCQkmI3hhOwkJCQk8Y2lyY2xlIGlkPSJlbGxpcHNlMzg3MjU5IiBzdHlsZT0iZmlsbDojRkZGRkZGO3N0cm9rZTojNTU2QThBO3N0cm9rZS13aWR0aDoxLjU7c3Ryb2tlLWxpbmVjYXA6c3F1YXJlO3N0cm9rZS1taXRlcmxpbWl0OjM7IiBjeD0iOS4wNiIgY3k9IjI2LjU1IiByPSI5LjA2Ii8+JiN4YTsJCTwvZz4mI3hhOwkJPGcgaWQ9InNoYXBlNTg4MC00Ij4mI3hhOwkJCTx0aXRsZSBpZD0idGl0bGUzODcyNjIiPnBhdGg4MDEzPC90aXRsZT4mI3hhOwkJCSYjeGE7CQkJCTxwYXRoIGlkPSJwYXRoMzg3MjY0IiBpbmtzY2FwZTpjb25uZWN0b3ItY3VydmF0dXJlPSIwIiBzdHlsZT0iZmlsbDojRkZGRkZGO3N0cm9rZTojNTU2QThBO3N0cm9rZS13aWR0aDoxLjU7c3Ryb2tlLWxpbmVjYXA6c3F1YXJlO3N0cm9rZS1taXRlcmxpbWl0OjM7IiBkPSIgICAgIE0wLDM1LjYxYzAuMTUtOC4wMSw2Ljc2LTE0LjM3LDE0Ljc2LTE0LjIzYzcuOCwwLjE0LDE0LjA4LDYuNDMsMTQuMjMsMTQuMjNIMHoiLz4mI3hhOwkJPC9nPiYjeGE7CTwvZz4mI3hhOzwvZz4mI3hhOzwvc3ZnPg==;imageBackground=none;imageBorder=none;" parent="1" vertex="1">
          <mxGeometry x="102" y="810" width="36.47" height="40" as="geometry" />
        </mxCell>
        <mxCell id="7aBlFhqk2-kX7xU5mFht-11" value="" style="endArrow=none;html=1;rounded=0;" parent="1" edge="1">
          <mxGeometry width="50" height="50" relative="1" as="geometry">
            <mxPoint x="417" y="990.22" as="sourcePoint" />
            <mxPoint x="417" y="860.22" as="targetPoint" />
          </mxGeometry>
        </mxCell>
        <mxCell id="7aBlFhqk2-kX7xU5mFht-12" value="" style="endArrow=none;html=1;rounded=0;" parent="1" edge="1">
          <mxGeometry width="50" height="50" relative="1" as="geometry">
            <mxPoint x="772" y="990.22" as="sourcePoint" />
            <mxPoint x="771.71" y="860.22" as="targetPoint" />
          </mxGeometry>
        </mxCell>
        <mxCell id="7aBlFhqk2-kX7xU5mFht-13" value="" style="endArrow=classic;html=1;rounded=0;" parent="1" edge="1">
          <mxGeometry width="50" height="50" relative="1" as="geometry">
            <mxPoint x="61" y="897.53" as="sourcePoint" />
            <mxPoint x="416" y="897.53" as="targetPoint" />
          </mxGeometry>
        </mxCell>
        <mxCell id="7aBlFhqk2-kX7xU5mFht-14" value="&lt;font style=&quot;color: rgb(255, 102, 255);&quot;&gt;Read Vault Entry Request&lt;/font&gt; &lt;font style=&quot;color: rgb(93, 93, 93);&quot;&gt;[Vault Entry Identifier]&lt;/font&gt;" style="text;html=1;align=center;verticalAlign=middle;resizable=0;points=[];autosize=1;strokeColor=none;fillColor=none;" parent="1" vertex="1">
          <mxGeometry x="62" y="867.53" width="280" height="30" as="geometry" />
        </mxCell>
        <mxCell id="7aBlFhqk2-kX7xU5mFht-15" value="" style="endArrow=classic;html=1;rounded=0;" parent="1" edge="1">
          <mxGeometry width="50" height="50" relative="1" as="geometry">
            <mxPoint x="417" y="940" as="sourcePoint" />
            <mxPoint x="62" y="940" as="targetPoint" />
          </mxGeometry>
        </mxCell>
        <mxCell id="7aBlFhqk2-kX7xU5mFht-16" value="&lt;font style=&quot;color: rgb(255, 102, 255);&quot;&gt;Read Vault Entry Response&lt;/font&gt;&amp;nbsp;&lt;font style=&quot;color: rgb(93, 93, 93);&quot;&gt;[Encrypted Vault Entry]&lt;/font&gt;" style="text;html=1;align=center;verticalAlign=middle;resizable=0;points=[];autosize=1;strokeColor=none;fillColor=none;" parent="1" vertex="1">
          <mxGeometry x="117" y="910" width="300" height="30" as="geometry" />
        </mxCell>
        <mxCell id="7aBlFhqk2-kX7xU5mFht-17" value="" style="endArrow=classic;html=1;rounded=0;" parent="1" edge="1">
          <mxGeometry width="50" height="50" relative="1" as="geometry">
            <mxPoint x="416" y="910" as="sourcePoint" />
            <mxPoint x="771" y="910" as="targetPoint" />
          </mxGeometry>
        </mxCell>
        <mxCell id="7aBlFhqk2-kX7xU5mFht-18" value="Fetch vault entry by identifier" style="text;html=1;align=center;verticalAlign=middle;resizable=0;points=[];autosize=1;strokeColor=none;fillColor=none;" parent="1" vertex="1">
          <mxGeometry x="506" y="880" width="180" height="30" as="geometry" />
        </mxCell>
        <mxCell id="7aBlFhqk2-kX7xU5mFht-19" value="" style="endArrow=classic;html=1;rounded=0;" parent="1" edge="1">
          <mxGeometry width="50" height="50" relative="1" as="geometry">
            <mxPoint x="771" y="920" as="sourcePoint" />
            <mxPoint x="416" y="920" as="targetPoint" />
          </mxGeometry>
        </mxCell>
        <mxCell id="7aBlFhqk2-kX7xU5mFht-22" value="&lt;font style=&quot;color: rgb(255, 145, 36);&quot;&gt;Decrypts Payload using AES Key&lt;/font&gt;" style="text;html=1;align=center;verticalAlign=middle;resizable=0;points=[];autosize=1;strokeColor=none;fillColor=none;fontSize=10;container=1;" parent="1" vertex="1">
          <mxGeometry x="62" y="940" width="170" height="30" as="geometry" />
        </mxCell>
        <mxCell id="WK60Pz9tpR1LT17RZS87-1" value="&lt;font color=&quot;#31b199&quot;&gt;&lt;span style=&quot;font-size: 18px;&quot;&gt;Shared Access Key Flow&lt;/span&gt;&lt;/font&gt;" style="text;html=1;fontSize=24;fontStyle=0;verticalAlign=middle;align=center;fillColor=none;strokeColor=none;fontColor=light-dark(#10BFFF,#EDEDED);labelBorderColor=none;labelBackgroundColor=none;textShadow=0;" parent="1" vertex="1">
          <mxGeometry x="296" y="1120" width="250" height="40" as="geometry" />
        </mxCell>
        <mxCell id="WK60Pz9tpR1LT17RZS87-2" value="Client A" style="rounded=0;whiteSpace=wrap;html=1;" parent="1" vertex="1">
          <mxGeometry x="6" y="1180.22" width="120" height="30" as="geometry" />
        </mxCell>
        <mxCell id="WK60Pz9tpR1LT17RZS87-3" value="Server" style="rounded=0;whiteSpace=wrap;html=1;" parent="1" vertex="1">
          <mxGeometry x="361" y="1180.22" width="120" height="30" as="geometry" />
        </mxCell>
        <mxCell id="WK60Pz9tpR1LT17RZS87-4" value="DB" style="rounded=0;whiteSpace=wrap;html=1;" parent="1" vertex="1">
          <mxGeometry x="716" y="1180.22" width="120" height="30" as="geometry" />
        </mxCell>
        <mxCell id="WK60Pz9tpR1LT17RZS87-5" value="" style="endArrow=none;html=1;rounded=0;" parent="1" edge="1">
          <mxGeometry width="50" height="50" relative="1" as="geometry">
            <mxPoint x="66" y="1460" as="sourcePoint" />
            <mxPoint x="65.89999999999999" y="1210.22" as="targetPoint" />
          </mxGeometry>
        </mxCell>
        <mxCell id="WK60Pz9tpR1LT17RZS87-6" value="" style="shape=image;verticalLabelPosition=bottom;labelBackgroundColor=#ffffff;verticalAlign=top;aspect=fixed;imageAspect=0;image=data:image/svg+xml,PHN2ZyB4bWxuczpkYz0iaHR0cDovL3B1cmwub3JnL2RjL2VsZW1lbnRzLzEuMS8iIHhtbG5zOmNjPSJodHRwOi8vY3JlYXRpdmVjb21tb25zLm9yZy9ucyMiIHhtbG5zOnJkZj0iaHR0cDovL3d3dy53My5vcmcvMTk5OS8wMi8yMi1yZGYtc3ludGF4LW5zIyIgeG1sbnM6c3ZnPSJodHRwOi8vd3d3LnczLm9yZy8yMDAwL3N2ZyIgeG1sbnM9Imh0dHA6Ly93d3cudzMub3JnLzIwMDAvc3ZnIiB4bWxuczpzb2RpcG9kaT0iaHR0cDovL3NvZGlwb2RpLnNvdXJjZWZvcmdlLm5ldC9EVEQvc29kaXBvZGktMC5kdGQiIHhtbG5zOmlua3NjYXBlPSJodHRwOi8vd3d3Lmlua3NjYXBlLm9yZy9uYW1lc3BhY2VzL2lua3NjYXBlIiB2ZXJzaW9uPSIxLjEiIGlkPSJzdmcxMDQ1NzIiIGlua3NjYXBlOnZlcnNpb249IjAuOTIuMyAoMjQwNTU0NiwgMjAxOC0wMy0xMSkiIHNvZGlwb2RpOmRvY25hbWU9InNxbC5zdmciIHg9IjBweCIgeT0iMHB4IiB2aWV3Qm94PSIwIDAgNDYuMDMgNjEuMDIiIHhtbDpzcGFjZT0icHJlc2VydmUiIHdpZHRoPSI0Ni4wMjk5OTkiIGhlaWdodD0iNjEuMDIiPjxtZXRhZGF0YSBpZD0ibWV0YWRhdGExMDQ4Ij48cmRmOlJERj48Y2M6V29yayByZGY6YWJvdXQ9IiI+PGRjOmZvcm1hdD5pbWFnZS9zdmcreG1sPC9kYzpmb3JtYXQ+PGRjOnR5cGUgcmRmOnJlc291cmNlPSJodHRwOi8vcHVybC5vcmcvZGMvZGNtaXR5cGUvU3RpbGxJbWFnZSIvPjxkYzp0aXRsZS8+PC9jYzpXb3JrPjwvcmRmOlJERj48L21ldGFkYXRhPjxkZWZzIGlkPSJkZWZzMTA0NiI+JiN4YTsJJiN4YTsmI3hhOwkmI3hhOyYjeGE7CSYjeGE7JiN4YTsJJiN4YTsmI3hhOwkmI3hhOyYjeGE7CSYjeGE7JiN4YTsJJiN4YTsmI3hhOwkmI3hhOyYjeGE7CSYjeGE7JiN4YTsJCSYjeGE7CSYjeGE7CQkmI3hhOwkmI3hhOwkJJiN4YTsJJiN4YTsJCSYjeGE7CSYjeGE7CQkmI3hhOwkmI3hhOwkJJiN4YTsJJiN4YTsJCSYjeGE7CSYjeGE7CQkmI3hhOwk8L2RlZnM+JiN4YTs8ZmlsdGVyIGlkPSJmaWx0ZXJfMiI+JiN4YTsJPGZlR2F1c3NpYW5CbHVyIGlkPSJmZUdhdXNzaWFuQmx1cjEwNDQ4OSIgc3RkRGV2aWF0aW9uPSIyIi8+JiN4YTs8L2ZpbHRlcj4mI3hhOzxzb2RpcG9kaTpuYW1lZHZpZXcgYm9yZGVyY29sb3I9IiM2NjY2NjYiIGJvcmRlcm9wYWNpdHk9IjEiIGZpdC1tYXJnaW4tYm90dG9tPSIwIiBmaXQtbWFyZ2luLWxlZnQ9IjAiIGZpdC1tYXJnaW4tcmlnaHQ9IjAiIGZpdC1tYXJnaW4tdG9wPSIwIiBncmlkdG9sZXJhbmNlPSIxMCIgZ3VpZGV0b2xlcmFuY2U9IjEwIiBpZD0ibmFtZWR2aWV3MTA0NTc0IiBpbmtzY2FwZTpjdXJyZW50LWxheWVyPSJzdmcxMDQ1NzIiIGlua3NjYXBlOmN4PSIwLjI3NDc3MzkyIiBpbmtzY2FwZTpjeT0iMjcuOTI1ODA5IiBpbmtzY2FwZTpwYWdlb3BhY2l0eT0iMCIgaW5rc2NhcGU6cGFnZXNoYWRvdz0iMiIgaW5rc2NhcGU6d2luZG93LWhlaWdodD0iMTAxNyIgaW5rc2NhcGU6d2luZG93LW1heGltaXplZD0iMSIgaW5rc2NhcGU6d2luZG93LXdpZHRoPSIxOTIwIiBpbmtzY2FwZTp3aW5kb3cteD0iLTgiIGlua3NjYXBlOndpbmRvdy15PSItOCIgaW5rc2NhcGU6em9vbT0iNy42MDUyNjMyIiBvYmplY3R0b2xlcmFuY2U9IjEwIiBwYWdlY29sb3I9IiNmZmZmZmYiIHNob3dncmlkPSJmYWxzZSI+JiN4YTsJPC9zb2RpcG9kaTpuYW1lZHZpZXc+JiN4YTsmI3hhOzxwYXRoIGlkPSJwYXRoMTA0NTAyIiBpbmtzY2FwZTpjb25uZWN0b3ItY3VydmF0dXJlPSIwIiBzdHlsZT0iZmlsbDojMDA3MmM2IiBkPSJtIDAsOC4zNCB2IDQ0LjM0IGMgMCw0LjYxIDEwLjMxLDguMzQgMjMuMDIsOC4zNCBWIDguMzQgWiIvPiYjeGE7JiN4YTs8cGF0aCBpZD0icGF0aDEwNDUxMCIgaW5rc2NhcGU6Y29ubmVjdG9yLWN1cnZhdHVyZT0iMCIgc3R5bGU9ImZpbGw6IzAwNzJjNiIgZD0ibSAyMi43LDYxLjAyIGggMC4zMiBjIDEyLjcxLDAgMjMuMDEsLTMuNzMgMjMuMDEsLTguMzQgViA4LjM0IEggMjIuNyBaIi8+JiN4YTsmI3hhOzxwYXRoIGlkPSJwYXRoMTA0NTE4IiBpbmtzY2FwZTpjb25uZWN0b3ItY3VydmF0dXJlPSIwIiBzdHlsZT0iZmlsbDojZmZmZmZmO2ZpbGwtb3BhY2l0eTowLjE1IiBkPSJtIDIyLjcsNjEuMDIgaCAwLjMyIGMgMTIuNzEsMCAyMy4wMSwtMy43MyAyMy4wMSwtOC4zNCBWIDguMzQgSCAyMi43IFoiLz4mI3hhOyYjeGE7PHBhdGggaWQ9InBhdGgxMDQ1MjYiIGlua3NjYXBlOmNvbm5lY3Rvci1jdXJ2YXR1cmU9IjAiIHN0eWxlPSJmaWxsOiNmZmZmZmYiIGQ9Im0gNDYuMDMsOC4zMyBjIDAsNC42MSAtMTAuMyw4LjM0IC0yMy4wMSw4LjM0IEMgMTAuMzEsMTYuNjcgMCwxMi45NCAwLDguMzMgMCwzLjczIDEwLjMxLDAgMjMuMDIsMCAzNS43MywwIDQ2LjAzLDMuNzMgNDYuMDMsOC4zMyBaIi8+JiN4YTsmI3hhOzxwYXRoIGlkPSJwYXRoMTA0NTM0IiBpbmtzY2FwZTpjb25uZWN0b3ItY3VydmF0dXJlPSIwIiBzdHlsZT0iZmlsbDojN2ZiYTAwIiBkPSJtIDQxLjMyLDcuODUgYyAwLDMuMDQgLTguMTksNS41IC0xOC4zMSw1LjUgLTEwLjExLDAgLTE4LjMxLC0yLjQ2IC0xOC4zMSwtNS41IDAsLTMuMDQgOC4yLC01LjUgMTguMzEsLTUuNSAxMC4xMiwwIDE4LjMxLDIuNDYgMTguMzEsNS41IHoiLz4mI3hhOyYjeGE7PHBhdGggaWQ9InBhdGgxMDQ1NDIiIGlua3NjYXBlOmNvbm5lY3Rvci1jdXJ2YXR1cmU9IjAiIHN0eWxlPSJmaWxsOiNiOGQ0MzIiIGQ9Im0gMzcuNSwxMS4yMSBjIDIuMzksLTAuOTMgMy44MywtMi4wOSAzLjgzLC0zLjM2IDAsLTMuMDQgLTguMTksLTUuNSAtMTguMzEsLTUuNSAtMTAuMTEsMCAtMTguMzEsMi40NiAtMTguMzEsNS41IDAsMS4yNyAxLjQ0LDIuNDMgMy44NCwzLjM2IDMuMzUsLTEuMyA4LjU4LC0yLjE0IDE0LjQ3LC0yLjE0IDUuOSwwIDExLjEzLDAuODQgMTQuNDgsMi4xNCB6Ii8+JiN4YTsmI3hhOzxwYXRoIGlkPSJwYXRoMTA0NTUwIiBpbmtzY2FwZTpjb25uZWN0b3ItY3VydmF0dXJlPSIwIiBzdHlsZT0iZmlsbDojZmZmZmZmIiBkPSJtIDE1LjcxLDM5LjExIGMgMCwxLjM4IC0wLjUsMi40NSAtMS41LDMuMjEgLTEsMC43NSAtMi4zOCwxLjEzIC00LjE0LDEuMTMgLTEuNSwwIC0yLjc1LC0wLjI3IC0zLjc2LC0wLjgxIFYgMzkuNCBjIDEuMTYsMC45OCAyLjQ0LDEuNDggMy44NCwxLjQ4IDAuNjcsMCAxLjIsLTAuMTQgMS41NiwtMC40MSAwLjM3LC0wLjI3IDAuNTYsLTAuNjMgMC41NiwtMS4wNyAwLC0wLjQ0IC0wLjE4LC0wLjgyIC0wLjUzLC0xLjE1IEMgMTEuMzgsMzcuOTMgMTAuNjYsMzcuNTEgOS41NywzNyA3LjM2LDM1Ljk2IDYuMjUsMzQuNTQgNi4yNSwzMi43NCBjIDAsLTEuMyAwLjQ4LC0yLjM1IDEuNDUsLTMuMTMgMC45NiwtMC43OSAyLjI1LC0xLjE4IDMuODUsLTEuMTggMS40MiwwIDIuNTksMC4xOCAzLjUyLDAuNTUgdiAzLjAzIEMgMTQuMDksMzEuMzQgMTIuOTgsMzEgMTEuNzMsMzEgYyAtMC42MywwIC0xLjEyLDAuMTMgLTEuNDksMC40IC0wLjM2LDAuMjcgLTAuNTQsMC42MiAtMC41NCwxLjA3IDAsMC40NiAwLjE0LDAuODMgMC40NCwxLjEzIDAuMjksMC4yOSAwLjg5LDAuNjUgMS44LDEuMDkgMS4zNiwwLjY0IDIuMzMsMS4yOSAyLjkxLDEuOTUgMC41NywwLjY2IDAuODYsMS40OSAwLjg2LDIuNDcgeiIvPiYjeGE7JiN4YTs8cGF0aCBpZD0icGF0aDEwNDU1OCIgaW5rc2NhcGU6Y29ubmVjdG9yLWN1cnZhdHVyZT0iMCIgc3R5bGU9ImZpbGw6I2ZmZmZmZiIgZD0ibSAzMS4zMywzNS44NCBjIDAsMS43MSAtMC4zOSwzLjE5IC0xLjE2LDQuNDUgLTAuNzgsMS4yNSAtMS44NywyLjEzIC0zLjI4LDIuNjQgbCA0LjIxLDMuOSBoIC00LjI1IGwgLTMuMDEsLTMuMzcgYyAtMS4yOSwtMC4wNSAtMi40NiwtMC4zOSAtMy40OSwtMS4wMyAtMS4wNCwtMC42MyAtMS44NCwtMS41IC0yLjQsLTIuNjEgLTAuNTcsLTEuMSAtMC44NSwtMi4zMyAtMC44NSwtMy42OSAwLC0xLjUgMC4zMSwtMi44NSAwLjkyLC00LjAyIDAuNjEsLTEuMTggMS40NywtMi4wOSAyLjU3LC0yLjcyIDEuMTEsLTAuNjQgMi4zOCwtMC45NiAzLjgxLC0wLjk2IDEuMzQsMCAyLjU0LDAuMzEgMy41OSwwLjkzIDEuMDYsMC42MSAxLjg4LDEuNDggMi40NywyLjYyIDAuNTgsMS4xMyAwLjg3LDIuNDIgMC44NywzLjg2IHogbSAtMy40NCwwLjE4IGMgMCwtMS40NyAtMC4zMiwtMi42MyAtMC45NiwtMy40OSAtMC42NSwtMC44NSAtMS41MiwtMS4yOCAtMi42NCwtMS4yOCAtMS4xMywwIC0yLjA0LDAuNDMgLTIuNzIsMS4yOSAtMC42OCwwLjg1IC0xLjAzLDEuOTkgLTEuMDMsMy40MiAwLDEuNDIgMC4zNCwyLjU1IDEuMDEsMy40IDAuNjcsMC44NCAxLjU1LDEuMjcgMi42NiwxLjI3IDEuMTMsMCAyLjAyLC0wLjQxIDIuNjgsLTEuMjMgMC42NywtMC44MiAxLC0xLjk1IDEsLTMuMzggeiIvPiYjeGE7JiN4YTs8cGF0aCBpZD0icGF0aDEwNDU2NiIgaW5rc2NhcGU6Y29ubmVjdG9yLWN1cnZhdHVyZT0iMCIgc3R5bGU9ImZpbGw6I2ZmZmZmZiIgZD0iTSA0Mi4zOSw0My4yIEggMzMuNzQgViAyOC42NyBoIDMuMjcgdiAxMS44OCBoIDUuMzggeiIvPiYjeGE7PC9zdmc+;" parent="1" vertex="1">
          <mxGeometry x="814" y="1161.22" width="30" height="39.78" as="geometry" />
        </mxCell>
        <mxCell id="WK60Pz9tpR1LT17RZS87-7" value="" style="shape=image;verticalLabelPosition=bottom;labelBackgroundColor=#ffffff;verticalAlign=top;aspect=fixed;imageAspect=0;image=data:image/svg+xml,PHN2ZyB4bWxuczpjYz0iaHR0cDovL2NyZWF0aXZlY29tbW9ucy5vcmcvbnMjIiB4bWxuczpkYz0iaHR0cDovL3B1cmwub3JnL2RjL2VsZW1lbnRzLzEuMS8iIHhtbG5zOmlua3NjYXBlPSJodHRwOi8vd3d3Lmlua3NjYXBlLm9yZy9uYW1lc3BhY2VzL2lua3NjYXBlIiB4bWxuczpyZGY9Imh0dHA6Ly93d3cudzMub3JnLzE5OTkvMDIvMjItcmRmLXN5bnRheC1ucyMiIHhtbG5zOnNvZGlwb2RpPSJodHRwOi8vc29kaXBvZGkuc291cmNlZm9yZ2UubmV0L0RURC9zb2RpcG9kaS0wLmR0ZCIgeG1sbnM6c3ZnPSJodHRwOi8vd3d3LnczLm9yZy8yMDAwL3N2ZyIgeG1sbnM9Imh0dHA6Ly93d3cudzMub3JnLzIwMDAvc3ZnIiB4bWxuczp4bGluaz0iaHR0cDovL3d3dy53My5vcmcvMTk5OS94bGluayIgdmVyc2lvbj0iMS4xIiBpZD0ic3ZnMTE2MjAzIiBpbmtzY2FwZTp2ZXJzaW9uPSIwLjkyLjMgKDI0MDU1NDYsIDIwMTgtMDMtMTEpIiBzb2RpcG9kaTpkb2NuYW1lPSJhc3BfbmV0LnN2ZyIgeD0iMHB4IiB5PSIwcHgiIHZpZXdCb3g9IjAgMCA1Ny4wNiA1Ny4wNiIgc3R5bGU9ImVuYWJsZS1iYWNrZ3JvdW5kOm5ldyAwIDAgNTcuMDYgNTcuMDY7IiB4bWw6c3BhY2U9InByZXNlcnZlIj4mI3hhOzxzb2RpcG9kaTpuYW1lZHZpZXcgYm9yZGVyY29sb3I9IiM2NjY2NjYiIGJvcmRlcm9wYWNpdHk9IjEiIGZpdC1tYXJnaW4tYm90dG9tPSIwIiBmaXQtbWFyZ2luLWxlZnQ9IjAiIGZpdC1tYXJnaW4tcmlnaHQ9IjAiIGZpdC1tYXJnaW4tdG9wPSIwIiBncmlkdG9sZXJhbmNlPSIxMCIgZ3VpZGV0b2xlcmFuY2U9IjEwIiBpZD0ibmFtZWR2aWV3MTE2MjA1IiBpbmtzY2FwZTpjdXJyZW50LWxheWVyPSJzdmcxMTYyMDMiIGlua3NjYXBlOmN4PSIzOC4wMzk5ODMiIGlua3NjYXBlOmN5PSIzOC4wMzk5ODMiIGlua3NjYXBlOnBhZ2VvcGFjaXR5PSIwIiBpbmtzY2FwZTpwYWdlc2hhZG93PSIyIiBpbmtzY2FwZTp3aW5kb3ctaGVpZ2h0PSIxMDE3IiBpbmtzY2FwZTp3aW5kb3ctbWF4aW1pemVkPSIxIiBpbmtzY2FwZTp3aW5kb3ctd2lkdGg9IjE5MjAiIGlua3NjYXBlOndpbmRvdy14PSItOCIgaW5rc2NhcGU6d2luZG93LXk9Ii04IiBpbmtzY2FwZTp6b29tPSIxMS4xMDQwMDEiIG9iamVjdHRvbGVyYW5jZT0iMTAiIHBhZ2Vjb2xvcj0iI2ZmZmZmZiIgc2hvd2dyaWQ9ImZhbHNlIj4mI3hhOwk8L3NvZGlwb2RpOm5hbWVkdmlldz4mI3hhOzxnIGlkPSJnMTE2MjAxIiB0cmFuc2Zvcm09InRyYW5zbGF0ZSgtMC43NSwtMC43NSkiPiYjeGE7CTx0aXRsZSBpZD0idGl0bGUxMTYxNTEiPlBhZ2UtMTwvdGl0bGU+JiN4YTsJPGcgaWQ9Imdyb3VwMTAxNi0xIiB0cmFuc2Zvcm09InRyYW5zbGF0ZSgwLjc1LC0wLjc1KSI+JiN4YTsJCTx0aXRsZSBpZD0idGl0bGUxMTYxNTMiPkFTUC5ORVQ8L3RpdGxlPiYjeGE7CQk8ZyBpZD0ic2hhcGUxMDE3LTIiPiYjeGE7CQkJPHRpdGxlIGlkPSJ0aXRsZTExNjE1NSI+Y2lyY2xlNzE4MDwvdGl0bGU+JiN4YTsJCQk8Y2lyY2xlIGlkPSJlbGxpcHNlMTE2MTU3IiBzdHlsZT0iZmlsbDojNjMzQkEzOyIgY3g9IjI4LjUzIiBjeT0iMzAuMDMiIHI9IjI4LjUzIi8+JiN4YTsJCTwvZz4mI3hhOwkJPGcgaWQ9InNoYXBlMTAxOC00IiB0cmFuc2Zvcm09InRyYW5zbGF0ZSg4Ljc1NzE3LC04LjczNDY3KSI+JiN4YTsJCQk8dGl0bGUgaWQ9InRpdGxlMTE2MTYwIj5wYXRoNzE4MjwvdGl0bGU+JiN4YTsJCQk8cGF0aCBpZD0icGF0aDExNjE2MiIgaW5rc2NhcGU6Y29ubmVjdG9yLWN1cnZhdHVyZT0iMCIgc3R5bGU9ImZpbGw6IzVDMkQ5MTsiIGQ9Ik0wLDE4LjIzYy0xMS4xNCwxMS4xNC0xMS4xNCwyOS4xOSwwLDQwLjMzICAgICBzMjkuMTksMTEuMTQsNDAuMzMsMGwwLDBMMCwxOC4yM3oiLz4mI3hhOwkJPC9nPiYjeGE7CQk8ZyBpZD0ic2hhcGUxMDE5LTYiIHRyYW5zZm9ybT0idHJhbnNsYXRlKDExLjg4LC0xNC40KSI+JiN4YTsJCQk8dGl0bGUgaWQ9InRpdGxlMTE2MTY1Ij5wYXRoNzE4NDwvdGl0bGU+JiN4YTsJCQk8cGF0aCBpZD0icGF0aDExNjE2NyIgaW5rc2NhcGU6Y29ubmVjdG9yLWN1cnZhdHVyZT0iMCIgc3R5bGU9ImZpbGw6I0ZGRkZGRjsiIGQ9Ik0wLjkzLDU4LjU2Yy0wLjI1LDAtMC40OS0wLjEtMC42Ni0wLjI4ICAgICBDMC4wOSw1OC4xMSwwLDU3Ljg3LDAsNTcuNjJjMC0wLjI1LDAuMDktMC40OSwwLjI3LTAuNjdjMC4xNy0wLjE4LDAuNDEtMC4yOCwwLjY2LTAuMjhjMC4yNSwwLDAuNDksMC4xLDAuNjcsMC4yOCAgICAgYzAuMTgsMC4xNywwLjI4LDAuNDIsMC4yOCwwLjY3QzEuODcsNTguMTQsMS40NSw1OC41NiwwLjkzLDU4LjU2eiIvPiYjeGE7CQk8L2c+JiN4YTsJCTxnIGlkPSJzaGFwZTEwMjAtOCIgdHJhbnNmb3JtPSJ0cmFuc2xhdGUoMTUuMjAyNSwtMTQuNTY1KSI+JiN4YTsJCQk8dGl0bGUgaWQ9InRpdGxlMTE2MTcwIj5wYXRoNzE4NjwvdGl0bGU+JiN4YTsJCQk8cGF0aCBpZD0icGF0aDExNjE3MiIgaW5rc2NhcGU6Y29ubmVjdG9yLWN1cnZhdHVyZT0iMCIgc3R5bGU9ImZpbGw6I0ZGRkZGRjsiIGQ9Ik05LjY2LDU4LjU2SDcuOTNsLTYuMTYtOS41NyAgICAgYy0wLjE1LTAuMjQtMC4yOC0wLjQ5LTAuMzgtMC43NUgxLjMzYzAuMDYsMC41NCwwLjA4LDEuMDksMC4wNywxLjY0djguNjhIMHYtMTJoMS44Mmw2LDkuNDFjMC4yNSwwLjM5LDAuNDEsMC42NSwwLjQ5LDAuOCAgICAgYy0wLjA3LTAuNTgtMC4wOS0xLjE3LTAuMDgtMS43NnYtOC40NWgxLjRMOS42Niw1OC41NnoiLz4mI3hhOwkJPC9nPiYjeGE7CQk8ZyBpZD0ic2hhcGUxMDIxLTEwIiB0cmFuc2Zvcm09InRyYW5zbGF0ZSgyNi44MDUsLTE0LjU2NSkiPiYjeGE7CQkJPHRpdGxlIGlkPSJ0aXRsZTExNjE3NSI+cGF0aDcxODg8L3RpdGxlPiYjeGE7CQkJPHBhdGggaWQ9InBhdGgxMTYxNzciIGlua3NjYXBlOmNvbm5lY3Rvci1jdXJ2YXR1cmU9IjAiIHN0eWxlPSJmaWxsOiNGRkZGRkY7IiBkPSJNNi4zNSw1OC41Nkgwdi0xMmg2LjA4djEuMjdIMS40djMuOThoNC4zMyAgICAgdjEuMjZIMS40djQuMTloNC45NVY1OC41NnoiLz4mI3hhOwkJPC9nPiYjeGE7CQk8ZyBpZD0ic2hhcGUxMDIyLTEyIiB0cmFuc2Zvcm09InRyYW5zbGF0ZSgzNC4yMzc1LC0xNC41NjUpIj4mI3hhOwkJCTx0aXRsZSBpZD0idGl0bGUxMTYxODAiPnBhdGg3MTkwPC90aXRsZT4mI3hhOwkJCTxwYXRoIGlkPSJwYXRoMTE2MTgyIiBpbmtzY2FwZTpjb25uZWN0b3ItY3VydmF0dXJlPSIwIiBzdHlsZT0iZmlsbDojRkZGRkZGOyIgZD0iTTguMzEsNDcuODNINC44NXYxMC43M2gtMS40VjQ3LjgzSDB2LTEuMjcgICAgIGg4LjMyTDguMzEsNDcuODN6Ii8+JiN4YTsJCTwvZz4mI3hhOwkJPGcgaWQ9InNoYXBlMTAyMy0xNCIgdHJhbnNmb3JtPSJ0cmFuc2xhdGUoMTUuNDIsLTMwLjAwNzUpIj4mI3hhOwkJCTx0aXRsZSBpZD0idGl0bGUxMTYxODUiPnBhdGg3MTkyPC90aXRsZT4mI3hhOwkJCTxwYXRoIGlkPSJwYXRoMTE2MTg3IiBpbmtzY2FwZTpjb25uZWN0b3ItY3VydmF0dXJlPSIwIiBzdHlsZT0iZmlsbDojRkZGRkZGOyIgZD0iTTEwLjY2LDU4LjU2SDkuMTFsLTEuMy0zLjM2SDIuNzZsLTEuMTksMy4zNkgwICAgICBsNC42LTEyaDEuNDVMMTAuNjYsNTguNTZ6IE03LjM4LDUzLjk0TDUuNSw0OC44M2MtMC4wOS0wLjI2LTAuMTUtMC41My0wLjE5LTAuOGMtMC4wNCwwLjI3LTAuMTEsMC41NC0wLjIsMC44bC0xLjg2LDUuMTEgICAgIEw3LjM4LDUzLjk0eiIvPiYjeGE7CQk8L2c+JiN4YTsJCTxnIGlkPSJzaGFwZTEwMjQtMTYiIHRyYW5zZm9ybT0idHJhbnNsYXRlKDI3LjI5MjUsLTI5LjgzNSkiPiYjeGE7CQkJPHRpdGxlIGlkPSJ0aXRsZTExNjE5MCI+cGF0aDcxOTQ8L3RpdGxlPiYjeGE7CQkJPHBhdGggaWQ9InBhdGgxMTYxOTIiIGlua3NjYXBlOmNvbm5lY3Rvci1jdXJ2YXR1cmU9IjAiIHN0eWxlPSJmaWxsOiNGRkZGRkY7IiBkPSJNMCw1Ny45di0xLjY1YzAuMjEsMC4xOCwwLjQ0LDAuMzMsMC42OCwwLjQ1ICAgICBjMC4yNywwLjE0LDAuNTQsMC4yNSwwLjgzLDAuMzRDMS44LDU3LjEzLDIuMSw1Ny4yLDIuNCw1Ny4yNWMwLjI3LDAuMDUsMC41NSwwLjA3LDAuODIsMC4wN2MwLjY4LDAuMDUsMS4zNS0wLjEyLDEuOTMtMC40OCAgICAgYzAuNjYtMC41NSwwLjg0LTEuNDksMC40My0yLjI1Yy0wLjE2LTAuMjUtMC4zNi0wLjQ3LTAuNTktMC42NWMtMC4yOC0wLjIyLTAuNTgtMC40MS0wLjktMC41N2wtMS4xLTAuNTQgICAgIGMtMC40Mi0wLjIxLTAuODEtMC40Mi0xLjE3LTAuNjRjLTAuMzQtMC4yMS0wLjY2LTAuNDYtMC45NC0wLjc1Yy0wLjI2LTAuMjUtMC40Ny0wLjU0LTAuNjMtMC44NmMtMC4zNS0wLjg0LTAuMy0xLjc5LDAuMTItMi41OSAgICAgYzAuMjQtMC40LDAuNTYtMC43NCwwLjk1LTAuOTljMC40MS0wLjI3LDAuODYtMC40NywxLjMzLTAuNTljMC40OS0wLjEyLDAuOTktMC4xOSwxLjUtMC4xOWMwLjg4LTAuMDYsMS43NiwwLjA5LDIuNTgsMC40MnYxLjU5ICAgICBjLTAuODEtMC41Mi0xLjc2LTAuNzktMi43Mi0wLjc1Yy0wLjMxLDAtMC42MiwwLjAzLTAuOTIsMC4wOWMtMC4yOSwwLjA2LTAuNTcsMC4xNy0wLjgyLDAuMzJjLTAuMjMsMC4xNC0wLjQzLDAuMzMtMC41OCwwLjU2ICAgICBjLTAuMTYsMC4yNS0wLjI0LDAuNTQtMC4yMywwLjgzYy0wLjAxLDAuMjgsMC4wNSwwLjU1LDAuMTcsMC44YzAuMTMsMC4yNCwwLjMsMC40NCwwLjUxLDAuNjFjMC4yNSwwLjIsMC41MiwwLjM4LDAuODEsMC41MyAgICAgYzAuMzIsMC4xNywwLjY5LDAuMzYsMS4xMSwwLjU3YzAuNDIsMC4yLDAuODMsMC40MywxLjIzLDAuNjdjMC4zNiwwLjIxLDAuNywwLjQ2LDEuMDEsMC43NWMwLjI4LDAuMjcsMC41MiwwLjU5LDAuNjksMC45NCAgICAgYzAuMTcsMC4zNywwLjI2LDAuNzgsMC4yNSwxLjE5YzAuMDIsMC41Mi0wLjEsMS4wNC0wLjM0LDEuNWMtMC4yMywwLjQtMC41NSwwLjc0LTAuOTQsMC45OWMtMC40MiwwLjI3LTAuODgsMC40Ni0xLjM2LDAuNTYgICAgIGMtMC41MywwLjEyLTEuMDgsMC4xNy0xLjYyLDAuMTdjLTAuMjMsMC0wLjQ3LTAuMDEtMC43LTAuMDRDMiw1OC40OSwxLjcxLDU4LjQ0LDEuNDIsNTguMzhjLTAuMjgtMC4wNi0wLjU1LTAuMTMtMC44Mi0wLjIyICAgICBDMC4zOSw1OC4xLDAuMTksNTguMDEsMCw1Ny45eiIvPiYjeGE7CQk8L2c+JiN4YTsJCTxnIGlkPSJzaGFwZTEwMjUtMTgiIHRyYW5zZm9ybT0idHJhbnNsYXRlKDM2LjI2MjUsLTMwLjAzNzUpIj4mI3hhOwkJCTx0aXRsZSBpZD0idGl0bGUxMTYxOTUiPnBhdGg3MTk2PC90aXRsZT4mI3hhOwkJCTxwYXRoIGlkPSJwYXRoMTE2MTk3IiBpbmtzY2FwZTpjb25uZWN0b3ItY3VydmF0dXJlPSIwIiBzdHlsZT0iZmlsbDojRkZGRkZGOyIgZD0iTTEuNCw1NC4wNnY0LjVIMHYtMTJoMy4yOSAgICAgYzEuMDgtMC4wNywyLjE1LDAuMjYsMywwLjk0YzAuNzMsMC42OCwxLjEyLDEuNjUsMS4wNiwyLjY0YzAuMDMsMS4wNi0wLjQsMi4wOC0xLjE4LDIuNzlDNS4yOSw1My42OSw0LjE2LDU0LjA4LDMsNTQuMDIgICAgIEwxLjQsNTQuMDZ6IE0xLjQsNDcuODd2NC45MmgxLjVjMC44MSwwLjA2LDEuNjEtMC4xOCwyLjI1LTAuNjdjMC41Mi0wLjQ4LDAuOC0xLjE3LDAuNzUtMS44OGMwLTEuNTgtMC45My0yLjM3LTIuOC0yLjM3SDEuNHoiLz4mI3hhOwkJPC9nPiYjeGE7CTwvZz4mI3hhOzwvZz4mI3hhOzwvc3ZnPg==;" parent="1" vertex="1">
          <mxGeometry x="456" y="1160.22" width="47" height="47" as="geometry" />
        </mxCell>
        <mxCell id="WK60Pz9tpR1LT17RZS87-8" value="" style="shape=image;verticalLabelPosition=bottom;verticalAlign=top;aspect=fixed;imageAspect=0;image=data:image/svg+xml,PHN2ZyB4bWxuczpjYz0iaHR0cDovL2NyZWF0aXZlY29tbW9ucy5vcmcvbnMjIiB4bWxuczpkYz0iaHR0cDovL3B1cmwub3JnL2RjL2VsZW1lbnRzLzEuMS8iIHhtbG5zOmlua3NjYXBlPSJodHRwOi8vd3d3Lmlua3NjYXBlLm9yZy9uYW1lc3BhY2VzL2lua3NjYXBlIiB4bWxuczpyZGY9Imh0dHA6Ly93d3cudzMub3JnLzE5OTkvMDIvMjItcmRmLXN5bnRheC1ucyMiIHhtbG5zOnNvZGlwb2RpPSJodHRwOi8vc29kaXBvZGkuc291cmNlZm9yZ2UubmV0L0RURC9zb2RpcG9kaS0wLmR0ZCIgeG1sbnM6c3ZnPSJodHRwOi8vd3d3LnczLm9yZy8yMDAwL3N2ZyIgeG1sbnM9Imh0dHA6Ly93d3cudzMub3JnLzIwMDAvc3ZnIiB4bWxuczp4bGluaz0iaHR0cDovL3d3dy53My5vcmcvMTk5OS94bGluayIgdmVyc2lvbj0iMS4xIiBpZD0ic3ZnMzg3MjcwIiBpbmtzY2FwZTp2ZXJzaW9uPSIwLjkyLjMgKDI0MDU1NDYsIDIwMTgtMDMtMTEpIiBzb2RpcG9kaTpkb2NuYW1lPSJ1c2VyX2dlbmVyaWMuc3ZnIiB4PSIwcHgiIHk9IjBweCIgdmlld0JveD0iMCAwIDMwLjUyIDM0LjExIiBzdHlsZT0iZW5hYmxlLWJhY2tncm91bmQ6bmV3IDAgMCAzMC41MiAzNC4xMTsiIHhtbDpzcGFjZT0icHJlc2VydmUiPiYjeGE7PHNvZGlwb2RpOm5hbWVkdmlldyBib3JkZXJjb2xvcj0iIzY2NjY2NiIgYm9yZGVyb3BhY2l0eT0iMSIgZml0LW1hcmdpbi1ib3R0b209IjAiIGZpdC1tYXJnaW4tbGVmdD0iMCIgZml0LW1hcmdpbi1yaWdodD0iMCIgZml0LW1hcmdpbi10b3A9IjAiIGdyaWR0b2xlcmFuY2U9IjEwIiBndWlkZXRvbGVyYW5jZT0iMTAiIGlkPSJuYW1lZHZpZXczODcyNzIiIGlua3NjYXBlOmN1cnJlbnQtbGF5ZXI9InN2ZzM4NzI3MCIgaW5rc2NhcGU6Y3g9IjIwLjM0MzczMiIgaW5rc2NhcGU6Y3k9IjIyLjczOTk4NSIgaW5rc2NhcGU6cGFnZW9wYWNpdHk9IjAiIGlua3NjYXBlOnBhZ2VzaGFkb3c9IjIiIGlua3NjYXBlOndpbmRvdy1oZWlnaHQ9IjEwMTciIGlua3NjYXBlOndpbmRvdy1tYXhpbWl6ZWQ9IjEiIGlua3NjYXBlOndpbmRvdy13aWR0aD0iMTkyMCIgaW5rc2NhcGU6d2luZG93LXg9Ii04IiBpbmtzY2FwZTp3aW5kb3cteT0iLTgiIGlua3NjYXBlOnpvb209IjE4LjI2MDMzMiIgb2JqZWN0dG9sZXJhbmNlPSIxMCIgcGFnZWNvbG9yPSIjZmZmZmZmIiBzaG93Z3JpZD0iZmFsc2UiPiYjeGE7CTwvc29kaXBvZGk6bmFtZWR2aWV3PiYjeGE7PGcgaWQ9ImczODcyNjgiIHRyYW5zZm9ybT0idHJhbnNsYXRlKC0wLjczNTk1NzIyLC0wLjc0OTk5ODgyKSI+JiN4YTsJPHRpdGxlIGlkPSJ0aXRsZTM4NzI1MyI+UGFnZS0xPC90aXRsZT4mI3hhOwk8ZyBpZD0iZ3JvdXA1ODc4LTEiIHRyYW5zZm9ybT0idHJhbnNsYXRlKDEuNSwtMS41KSI+JiN4YTsJCTx0aXRsZSBpZD0idGl0bGUzODcyNTUiPlVzZXIgKEdlbmVyaWMpPC90aXRsZT4mI3hhOwkJPGcgaWQ9InNoYXBlNTg3OS0yIiB0cmFuc2Zvcm09InRyYW5zbGF0ZSg1LjQzLC0xNC40OSkiPiYjeGE7CQkJPHRpdGxlIGlkPSJ0aXRsZTM4NzI1NyI+Y2lyY2xlODAxMTwvdGl0bGU+JiN4YTsJCQkmI3hhOwkJCQk8Y2lyY2xlIGlkPSJlbGxpcHNlMzg3MjU5IiBzdHlsZT0iZmlsbDojRkZGRkZGO3N0cm9rZTojNTU2QThBO3N0cm9rZS13aWR0aDoxLjU7c3Ryb2tlLWxpbmVjYXA6c3F1YXJlO3N0cm9rZS1taXRlcmxpbWl0OjM7IiBjeD0iOS4wNiIgY3k9IjI2LjU1IiByPSI5LjA2Ii8+JiN4YTsJCTwvZz4mI3hhOwkJPGcgaWQ9InNoYXBlNTg4MC00Ij4mI3hhOwkJCTx0aXRsZSBpZD0idGl0bGUzODcyNjIiPnBhdGg4MDEzPC90aXRsZT4mI3hhOwkJCSYjeGE7CQkJCTxwYXRoIGlkPSJwYXRoMzg3MjY0IiBpbmtzY2FwZTpjb25uZWN0b3ItY3VydmF0dXJlPSIwIiBzdHlsZT0iZmlsbDojRkZGRkZGO3N0cm9rZTojNTU2QThBO3N0cm9rZS13aWR0aDoxLjU7c3Ryb2tlLWxpbmVjYXA6c3F1YXJlO3N0cm9rZS1taXRlcmxpbWl0OjM7IiBkPSIgICAgIE0wLDM1LjYxYzAuMTUtOC4wMSw2Ljc2LTE0LjM3LDE0Ljc2LTE0LjIzYzcuOCwwLjE0LDE0LjA4LDYuNDMsMTQuMjMsMTQuMjNIMHoiLz4mI3hhOwkJPC9nPiYjeGE7CTwvZz4mI3hhOzwvZz4mI3hhOzwvc3ZnPg==;imageBackground=none;imageBorder=none;" parent="1" vertex="1">
          <mxGeometry x="106" y="1160" width="36.47" height="40" as="geometry" />
        </mxCell>
        <mxCell id="WK60Pz9tpR1LT17RZS87-9" value="" style="endArrow=none;html=1;rounded=0;" parent="1" edge="1">
          <mxGeometry width="50" height="50" relative="1" as="geometry">
            <mxPoint x="421" y="1460" as="sourcePoint" />
            <mxPoint x="421" y="1210.22" as="targetPoint" />
          </mxGeometry>
        </mxCell>
        <mxCell id="WK60Pz9tpR1LT17RZS87-10" value="" style="endArrow=none;html=1;rounded=0;" parent="1" edge="1">
          <mxGeometry width="50" height="50" relative="1" as="geometry">
            <mxPoint x="776" y="1460" as="sourcePoint" />
            <mxPoint x="775.71" y="1210.22" as="targetPoint" />
          </mxGeometry>
        </mxCell>
        <mxCell id="WK60Pz9tpR1LT17RZS87-11" value="" style="endArrow=classic;html=1;rounded=0;" parent="1" edge="1">
          <mxGeometry width="50" height="50" relative="1" as="geometry">
            <mxPoint x="66" y="1280.22" as="sourcePoint" />
            <mxPoint x="421" y="1280.22" as="targetPoint" />
          </mxGeometry>
        </mxCell>
        <mxCell id="WK60Pz9tpR1LT17RZS87-12" value="&lt;font style=&quot;color: rgb(255, 102, 255);&quot;&gt;Store Shared Key Request&lt;/font&gt; &lt;font style=&quot;color: rgb(93, 93, 93);&quot;&gt;[SharedKey, ..]&lt;/font&gt;" style="text;html=1;align=center;verticalAlign=middle;resizable=0;points=[];autosize=1;strokeColor=none;fillColor=none;" parent="1" vertex="1">
          <mxGeometry x="90" y="1360" width="250" height="30" as="geometry" />
        </mxCell>
        <mxCell id="WK60Pz9tpR1LT17RZS87-13" value="" style="endArrow=classic;html=1;rounded=0;" parent="1" edge="1">
          <mxGeometry width="50" height="50" relative="1" as="geometry">
            <mxPoint x="421" y="1320" as="sourcePoint" />
            <mxPoint x="66" y="1320" as="targetPoint" />
          </mxGeometry>
        </mxCell>
        <mxCell id="WK60Pz9tpR1LT17RZS87-14" value="&lt;font style=&quot;color: rgb(255, 102, 255);&quot;&gt;Store Shared Key Response&lt;/font&gt;&amp;nbsp;&lt;font style=&quot;color: rgb(93, 93, 93);&quot;&gt;[Created SharedVautlAccess&lt;/font&gt;&lt;span style=&quot;color: rgb(93, 93, 93); background-color: transparent;&quot;&gt;]&lt;/span&gt;" style="text;html=1;align=center;verticalAlign=middle;resizable=0;points=[];autosize=1;strokeColor=none;fillColor=none;" parent="1" vertex="1">
          <mxGeometry x="81" y="1420" width="340" height="30" as="geometry" />
        </mxCell>
        <mxCell id="WK60Pz9tpR1LT17RZS87-20" value="&lt;font style=&quot;color: rgb(255, 145, 36);&quot;&gt;Wants to share a Vault with Client B&lt;/font&gt;&lt;div style=&quot;&quot;&gt;&lt;font style=&quot;color: rgb(255, 145, 36);&quot;&gt;Generate Sharing Key (Must be same as the master&amp;nbsp;&lt;/font&gt;&lt;/div&gt;&lt;div style=&quot;&quot;&gt;&lt;font style=&quot;color: rgb(255, 145, 36);&quot;&gt;aes key used for the vault)&lt;/font&gt;&lt;/div&gt;" style="text;html=1;align=left;verticalAlign=middle;resizable=0;points=[];autosize=1;strokeColor=none;fillColor=none;fontSize=10;" parent="1" vertex="1">
          <mxGeometry x="75" y="1210" width="260" height="50" as="geometry" />
        </mxCell>
        <mxCell id="WK60Pz9tpR1LT17RZS87-22" value="Client B" style="rounded=0;whiteSpace=wrap;html=1;" parent="1" vertex="1">
          <mxGeometry x="6" y="1500.22" width="120" height="30" as="geometry" />
        </mxCell>
        <mxCell id="WK60Pz9tpR1LT17RZS87-23" value="Server" style="rounded=0;whiteSpace=wrap;html=1;" parent="1" vertex="1">
          <mxGeometry x="361" y="1500.22" width="120" height="30" as="geometry" />
        </mxCell>
        <mxCell id="WK60Pz9tpR1LT17RZS87-24" value="DB" style="rounded=0;whiteSpace=wrap;html=1;" parent="1" vertex="1">
          <mxGeometry x="716" y="1500.22" width="120" height="30" as="geometry" />
        </mxCell>
        <mxCell id="WK60Pz9tpR1LT17RZS87-25" value="" style="endArrow=none;html=1;rounded=0;" parent="1" edge="1">
          <mxGeometry width="50" height="50" relative="1" as="geometry">
            <mxPoint x="66" y="1680" as="sourcePoint" />
            <mxPoint x="65.89999999999999" y="1530.22" as="targetPoint" />
          </mxGeometry>
        </mxCell>
        <mxCell id="WK60Pz9tpR1LT17RZS87-26" value="" style="shape=image;verticalLabelPosition=bottom;labelBackgroundColor=#ffffff;verticalAlign=top;aspect=fixed;imageAspect=0;image=data:image/svg+xml,PHN2ZyB4bWxuczpkYz0iaHR0cDovL3B1cmwub3JnL2RjL2VsZW1lbnRzLzEuMS8iIHhtbG5zOmNjPSJodHRwOi8vY3JlYXRpdmVjb21tb25zLm9yZy9ucyMiIHhtbG5zOnJkZj0iaHR0cDovL3d3dy53My5vcmcvMTk5OS8wMi8yMi1yZGYtc3ludGF4LW5zIyIgeG1sbnM6c3ZnPSJodHRwOi8vd3d3LnczLm9yZy8yMDAwL3N2ZyIgeG1sbnM9Imh0dHA6Ly93d3cudzMub3JnLzIwMDAvc3ZnIiB4bWxuczpzb2RpcG9kaT0iaHR0cDovL3NvZGlwb2RpLnNvdXJjZWZvcmdlLm5ldC9EVEQvc29kaXBvZGktMC5kdGQiIHhtbG5zOmlua3NjYXBlPSJodHRwOi8vd3d3Lmlua3NjYXBlLm9yZy9uYW1lc3BhY2VzL2lua3NjYXBlIiB2ZXJzaW9uPSIxLjEiIGlkPSJzdmcxMDQ1NzIiIGlua3NjYXBlOnZlcnNpb249IjAuOTIuMyAoMjQwNTU0NiwgMjAxOC0wMy0xMSkiIHNvZGlwb2RpOmRvY25hbWU9InNxbC5zdmciIHg9IjBweCIgeT0iMHB4IiB2aWV3Qm94PSIwIDAgNDYuMDMgNjEuMDIiIHhtbDpzcGFjZT0icHJlc2VydmUiIHdpZHRoPSI0Ni4wMjk5OTkiIGhlaWdodD0iNjEuMDIiPjxtZXRhZGF0YSBpZD0ibWV0YWRhdGExMDQ4Ij48cmRmOlJERj48Y2M6V29yayByZGY6YWJvdXQ9IiI+PGRjOmZvcm1hdD5pbWFnZS9zdmcreG1sPC9kYzpmb3JtYXQ+PGRjOnR5cGUgcmRmOnJlc291cmNlPSJodHRwOi8vcHVybC5vcmcvZGMvZGNtaXR5cGUvU3RpbGxJbWFnZSIvPjxkYzp0aXRsZS8+PC9jYzpXb3JrPjwvcmRmOlJERj48L21ldGFkYXRhPjxkZWZzIGlkPSJkZWZzMTA0NiI+JiN4YTsJJiN4YTsmI3hhOwkmI3hhOyYjeGE7CSYjeGE7JiN4YTsJJiN4YTsmI3hhOwkmI3hhOyYjeGE7CSYjeGE7JiN4YTsJJiN4YTsmI3hhOwkmI3hhOyYjeGE7CSYjeGE7JiN4YTsJCSYjeGE7CSYjeGE7CQkmI3hhOwkmI3hhOwkJJiN4YTsJJiN4YTsJCSYjeGE7CSYjeGE7CQkmI3hhOwkmI3hhOwkJJiN4YTsJJiN4YTsJCSYjeGE7CSYjeGE7CQkmI3hhOwk8L2RlZnM+JiN4YTs8ZmlsdGVyIGlkPSJmaWx0ZXJfMiI+JiN4YTsJPGZlR2F1c3NpYW5CbHVyIGlkPSJmZUdhdXNzaWFuQmx1cjEwNDQ4OSIgc3RkRGV2aWF0aW9uPSIyIi8+JiN4YTs8L2ZpbHRlcj4mI3hhOzxzb2RpcG9kaTpuYW1lZHZpZXcgYm9yZGVyY29sb3I9IiM2NjY2NjYiIGJvcmRlcm9wYWNpdHk9IjEiIGZpdC1tYXJnaW4tYm90dG9tPSIwIiBmaXQtbWFyZ2luLWxlZnQ9IjAiIGZpdC1tYXJnaW4tcmlnaHQ9IjAiIGZpdC1tYXJnaW4tdG9wPSIwIiBncmlkdG9sZXJhbmNlPSIxMCIgZ3VpZGV0b2xlcmFuY2U9IjEwIiBpZD0ibmFtZWR2aWV3MTA0NTc0IiBpbmtzY2FwZTpjdXJyZW50LWxheWVyPSJzdmcxMDQ1NzIiIGlua3NjYXBlOmN4PSIwLjI3NDc3MzkyIiBpbmtzY2FwZTpjeT0iMjcuOTI1ODA5IiBpbmtzY2FwZTpwYWdlb3BhY2l0eT0iMCIgaW5rc2NhcGU6cGFnZXNoYWRvdz0iMiIgaW5rc2NhcGU6d2luZG93LWhlaWdodD0iMTAxNyIgaW5rc2NhcGU6d2luZG93LW1heGltaXplZD0iMSIgaW5rc2NhcGU6d2luZG93LXdpZHRoPSIxOTIwIiBpbmtzY2FwZTp3aW5kb3cteD0iLTgiIGlua3NjYXBlOndpbmRvdy15PSItOCIgaW5rc2NhcGU6em9vbT0iNy42MDUyNjMyIiBvYmplY3R0b2xlcmFuY2U9IjEwIiBwYWdlY29sb3I9IiNmZmZmZmYiIHNob3dncmlkPSJmYWxzZSI+JiN4YTsJPC9zb2RpcG9kaTpuYW1lZHZpZXc+JiN4YTsmI3hhOzxwYXRoIGlkPSJwYXRoMTA0NTAyIiBpbmtzY2FwZTpjb25uZWN0b3ItY3VydmF0dXJlPSIwIiBzdHlsZT0iZmlsbDojMDA3MmM2IiBkPSJtIDAsOC4zNCB2IDQ0LjM0IGMgMCw0LjYxIDEwLjMxLDguMzQgMjMuMDIsOC4zNCBWIDguMzQgWiIvPiYjeGE7JiN4YTs8cGF0aCBpZD0icGF0aDEwNDUxMCIgaW5rc2NhcGU6Y29ubmVjdG9yLWN1cnZhdHVyZT0iMCIgc3R5bGU9ImZpbGw6IzAwNzJjNiIgZD0ibSAyMi43LDYxLjAyIGggMC4zMiBjIDEyLjcxLDAgMjMuMDEsLTMuNzMgMjMuMDEsLTguMzQgViA4LjM0IEggMjIuNyBaIi8+JiN4YTsmI3hhOzxwYXRoIGlkPSJwYXRoMTA0NTE4IiBpbmtzY2FwZTpjb25uZWN0b3ItY3VydmF0dXJlPSIwIiBzdHlsZT0iZmlsbDojZmZmZmZmO2ZpbGwtb3BhY2l0eTowLjE1IiBkPSJtIDIyLjcsNjEuMDIgaCAwLjMyIGMgMTIuNzEsMCAyMy4wMSwtMy43MyAyMy4wMSwtOC4zNCBWIDguMzQgSCAyMi43IFoiLz4mI3hhOyYjeGE7PHBhdGggaWQ9InBhdGgxMDQ1MjYiIGlua3NjYXBlOmNvbm5lY3Rvci1jdXJ2YXR1cmU9IjAiIHN0eWxlPSJmaWxsOiNmZmZmZmYiIGQ9Im0gNDYuMDMsOC4zMyBjIDAsNC42MSAtMTAuMyw4LjM0IC0yMy4wMSw4LjM0IEMgMTAuMzEsMTYuNjcgMCwxMi45NCAwLDguMzMgMCwzLjczIDEwLjMxLDAgMjMuMDIsMCAzNS43MywwIDQ2LjAzLDMuNzMgNDYuMDMsOC4zMyBaIi8+JiN4YTsmI3hhOzxwYXRoIGlkPSJwYXRoMTA0NTM0IiBpbmtzY2FwZTpjb25uZWN0b3ItY3VydmF0dXJlPSIwIiBzdHlsZT0iZmlsbDojN2ZiYTAwIiBkPSJtIDQxLjMyLDcuODUgYyAwLDMuMDQgLTguMTksNS41IC0xOC4zMSw1LjUgLTEwLjExLDAgLTE4LjMxLC0yLjQ2IC0xOC4zMSwtNS41IDAsLTMuMDQgOC4yLC01LjUgMTguMzEsLTUuNSAxMC4xMiwwIDE4LjMxLDIuNDYgMTguMzEsNS41IHoiLz4mI3hhOyYjeGE7PHBhdGggaWQ9InBhdGgxMDQ1NDIiIGlua3NjYXBlOmNvbm5lY3Rvci1jdXJ2YXR1cmU9IjAiIHN0eWxlPSJmaWxsOiNiOGQ0MzIiIGQ9Im0gMzcuNSwxMS4yMSBjIDIuMzksLTAuOTMgMy44MywtMi4wOSAzLjgzLC0zLjM2IDAsLTMuMDQgLTguMTksLTUuNSAtMTguMzEsLTUuNSAtMTAuMTEsMCAtMTguMzEsMi40NiAtMTguMzEsNS41IDAsMS4yNyAxLjQ0LDIuNDMgMy44NCwzLjM2IDMuMzUsLTEuMyA4LjU4LC0yLjE0IDE0LjQ3LC0yLjE0IDUuOSwwIDExLjEzLDAuODQgMTQuNDgsMi4xNCB6Ii8+JiN4YTsmI3hhOzxwYXRoIGlkPSJwYXRoMTA0NTUwIiBpbmtzY2FwZTpjb25uZWN0b3ItY3VydmF0dXJlPSIwIiBzdHlsZT0iZmlsbDojZmZmZmZmIiBkPSJtIDE1LjcxLDM5LjExIGMgMCwxLjM4IC0wLjUsMi40NSAtMS41LDMuMjEgLTEsMC43NSAtMi4zOCwxLjEzIC00LjE0LDEuMTMgLTEuNSwwIC0yLjc1LC0wLjI3IC0zLjc2LC0wLjgxIFYgMzkuNCBjIDEuMTYsMC45OCAyLjQ0LDEuNDggMy44NCwxLjQ4IDAuNjcsMCAxLjIsLTAuMTQgMS41NiwtMC40MSAwLjM3LC0wLjI3IDAuNTYsLTAuNjMgMC41NiwtMS4wNyAwLC0wLjQ0IC0wLjE4LC0wLjgyIC0wLjUzLC0xLjE1IEMgMTEuMzgsMzcuOTMgMTAuNjYsMzcuNTEgOS41NywzNyA3LjM2LDM1Ljk2IDYuMjUsMzQuNTQgNi4yNSwzMi43NCBjIDAsLTEuMyAwLjQ4LC0yLjM1IDEuNDUsLTMuMTMgMC45NiwtMC43OSAyLjI1LC0xLjE4IDMuODUsLTEuMTggMS40MiwwIDIuNTksMC4xOCAzLjUyLDAuNTUgdiAzLjAzIEMgMTQuMDksMzEuMzQgMTIuOTgsMzEgMTEuNzMsMzEgYyAtMC42MywwIC0xLjEyLDAuMTMgLTEuNDksMC40IC0wLjM2LDAuMjcgLTAuNTQsMC42MiAtMC41NCwxLjA3IDAsMC40NiAwLjE0LDAuODMgMC40NCwxLjEzIDAuMjksMC4yOSAwLjg5LDAuNjUgMS44LDEuMDkgMS4zNiwwLjY0IDIuMzMsMS4yOSAyLjkxLDEuOTUgMC41NywwLjY2IDAuODYsMS40OSAwLjg2LDIuNDcgeiIvPiYjeGE7JiN4YTs8cGF0aCBpZD0icGF0aDEwNDU1OCIgaW5rc2NhcGU6Y29ubmVjdG9yLWN1cnZhdHVyZT0iMCIgc3R5bGU9ImZpbGw6I2ZmZmZmZiIgZD0ibSAzMS4zMywzNS44NCBjIDAsMS43MSAtMC4zOSwzLjE5IC0xLjE2LDQuNDUgLTAuNzgsMS4yNSAtMS44NywyLjEzIC0zLjI4LDIuNjQgbCA0LjIxLDMuOSBoIC00LjI1IGwgLTMuMDEsLTMuMzcgYyAtMS4yOSwtMC4wNSAtMi40NiwtMC4zOSAtMy40OSwtMS4wMyAtMS4wNCwtMC42MyAtMS44NCwtMS41IC0yLjQsLTIuNjEgLTAuNTcsLTEuMSAtMC44NSwtMi4zMyAtMC44NSwtMy42OSAwLC0xLjUgMC4zMSwtMi44NSAwLjkyLC00LjAyIDAuNjEsLTEuMTggMS40NywtMi4wOSAyLjU3LC0yLjcyIDEuMTEsLTAuNjQgMi4zOCwtMC45NiAzLjgxLC0wLjk2IDEuMzQsMCAyLjU0LDAuMzEgMy41OSwwLjkzIDEuMDYsMC42MSAxLjg4LDEuNDggMi40NywyLjYyIDAuNTgsMS4xMyAwLjg3LDIuNDIgMC44NywzLjg2IHogbSAtMy40NCwwLjE4IGMgMCwtMS40NyAtMC4zMiwtMi42MyAtMC45NiwtMy40OSAtMC42NSwtMC44NSAtMS41MiwtMS4yOCAtMi42NCwtMS4yOCAtMS4xMywwIC0yLjA0LDAuNDMgLTIuNzIsMS4yOSAtMC42OCwwLjg1IC0xLjAzLDEuOTkgLTEuMDMsMy40MiAwLDEuNDIgMC4zNCwyLjU1IDEuMDEsMy40IDAuNjcsMC44NCAxLjU1LDEuMjcgMi42NiwxLjI3IDEuMTMsMCAyLjAyLC0wLjQxIDIuNjgsLTEuMjMgMC42NywtMC44MiAxLC0xLjk1IDEsLTMuMzggeiIvPiYjeGE7JiN4YTs8cGF0aCBpZD0icGF0aDEwNDU2NiIgaW5rc2NhcGU6Y29ubmVjdG9yLWN1cnZhdHVyZT0iMCIgc3R5bGU9ImZpbGw6I2ZmZmZmZiIgZD0iTSA0Mi4zOSw0My4yIEggMzMuNzQgViAyOC42NyBoIDMuMjcgdiAxMS44OCBoIDUuMzggeiIvPiYjeGE7PC9zdmc+;" parent="1" vertex="1">
          <mxGeometry x="814" y="1481.22" width="30" height="39.78" as="geometry" />
        </mxCell>
        <mxCell id="WK60Pz9tpR1LT17RZS87-27" value="" style="shape=image;verticalLabelPosition=bottom;labelBackgroundColor=#ffffff;verticalAlign=top;aspect=fixed;imageAspect=0;image=data:image/svg+xml,PHN2ZyB4bWxuczpjYz0iaHR0cDovL2NyZWF0aXZlY29tbW9ucy5vcmcvbnMjIiB4bWxuczpkYz0iaHR0cDovL3B1cmwub3JnL2RjL2VsZW1lbnRzLzEuMS8iIHhtbG5zOmlua3NjYXBlPSJodHRwOi8vd3d3Lmlua3NjYXBlLm9yZy9uYW1lc3BhY2VzL2lua3NjYXBlIiB4bWxuczpyZGY9Imh0dHA6Ly93d3cudzMub3JnLzE5OTkvMDIvMjItcmRmLXN5bnRheC1ucyMiIHhtbG5zOnNvZGlwb2RpPSJodHRwOi8vc29kaXBvZGkuc291cmNlZm9yZ2UubmV0L0RURC9zb2RpcG9kaS0wLmR0ZCIgeG1sbnM6c3ZnPSJodHRwOi8vd3d3LnczLm9yZy8yMDAwL3N2ZyIgeG1sbnM9Imh0dHA6Ly93d3cudzMub3JnLzIwMDAvc3ZnIiB4bWxuczp4bGluaz0iaHR0cDovL3d3dy53My5vcmcvMTk5OS94bGluayIgdmVyc2lvbj0iMS4xIiBpZD0ic3ZnMTE2MjAzIiBpbmtzY2FwZTp2ZXJzaW9uPSIwLjkyLjMgKDI0MDU1NDYsIDIwMTgtMDMtMTEpIiBzb2RpcG9kaTpkb2NuYW1lPSJhc3BfbmV0LnN2ZyIgeD0iMHB4IiB5PSIwcHgiIHZpZXdCb3g9IjAgMCA1Ny4wNiA1Ny4wNiIgc3R5bGU9ImVuYWJsZS1iYWNrZ3JvdW5kOm5ldyAwIDAgNTcuMDYgNTcuMDY7IiB4bWw6c3BhY2U9InByZXNlcnZlIj4mI3hhOzxzb2RpcG9kaTpuYW1lZHZpZXcgYm9yZGVyY29sb3I9IiM2NjY2NjYiIGJvcmRlcm9wYWNpdHk9IjEiIGZpdC1tYXJnaW4tYm90dG9tPSIwIiBmaXQtbWFyZ2luLWxlZnQ9IjAiIGZpdC1tYXJnaW4tcmlnaHQ9IjAiIGZpdC1tYXJnaW4tdG9wPSIwIiBncmlkdG9sZXJhbmNlPSIxMCIgZ3VpZGV0b2xlcmFuY2U9IjEwIiBpZD0ibmFtZWR2aWV3MTE2MjA1IiBpbmtzY2FwZTpjdXJyZW50LWxheWVyPSJzdmcxMTYyMDMiIGlua3NjYXBlOmN4PSIzOC4wMzk5ODMiIGlua3NjYXBlOmN5PSIzOC4wMzk5ODMiIGlua3NjYXBlOnBhZ2VvcGFjaXR5PSIwIiBpbmtzY2FwZTpwYWdlc2hhZG93PSIyIiBpbmtzY2FwZTp3aW5kb3ctaGVpZ2h0PSIxMDE3IiBpbmtzY2FwZTp3aW5kb3ctbWF4aW1pemVkPSIxIiBpbmtzY2FwZTp3aW5kb3ctd2lkdGg9IjE5MjAiIGlua3NjYXBlOndpbmRvdy14PSItOCIgaW5rc2NhcGU6d2luZG93LXk9Ii04IiBpbmtzY2FwZTp6b29tPSIxMS4xMDQwMDEiIG9iamVjdHRvbGVyYW5jZT0iMTAiIHBhZ2Vjb2xvcj0iI2ZmZmZmZiIgc2hvd2dyaWQ9ImZhbHNlIj4mI3hhOwk8L3NvZGlwb2RpOm5hbWVkdmlldz4mI3hhOzxnIGlkPSJnMTE2MjAxIiB0cmFuc2Zvcm09InRyYW5zbGF0ZSgtMC43NSwtMC43NSkiPiYjeGE7CTx0aXRsZSBpZD0idGl0bGUxMTYxNTEiPlBhZ2UtMTwvdGl0bGU+JiN4YTsJPGcgaWQ9Imdyb3VwMTAxNi0xIiB0cmFuc2Zvcm09InRyYW5zbGF0ZSgwLjc1LC0wLjc1KSI+JiN4YTsJCTx0aXRsZSBpZD0idGl0bGUxMTYxNTMiPkFTUC5ORVQ8L3RpdGxlPiYjeGE7CQk8ZyBpZD0ic2hhcGUxMDE3LTIiPiYjeGE7CQkJPHRpdGxlIGlkPSJ0aXRsZTExNjE1NSI+Y2lyY2xlNzE4MDwvdGl0bGU+JiN4YTsJCQk8Y2lyY2xlIGlkPSJlbGxpcHNlMTE2MTU3IiBzdHlsZT0iZmlsbDojNjMzQkEzOyIgY3g9IjI4LjUzIiBjeT0iMzAuMDMiIHI9IjI4LjUzIi8+JiN4YTsJCTwvZz4mI3hhOwkJPGcgaWQ9InNoYXBlMTAxOC00IiB0cmFuc2Zvcm09InRyYW5zbGF0ZSg4Ljc1NzE3LC04LjczNDY3KSI+JiN4YTsJCQk8dGl0bGUgaWQ9InRpdGxlMTE2MTYwIj5wYXRoNzE4MjwvdGl0bGU+JiN4YTsJCQk8cGF0aCBpZD0icGF0aDExNjE2MiIgaW5rc2NhcGU6Y29ubmVjdG9yLWN1cnZhdHVyZT0iMCIgc3R5bGU9ImZpbGw6IzVDMkQ5MTsiIGQ9Ik0wLDE4LjIzYy0xMS4xNCwxMS4xNC0xMS4xNCwyOS4xOSwwLDQwLjMzICAgICBzMjkuMTksMTEuMTQsNDAuMzMsMGwwLDBMMCwxOC4yM3oiLz4mI3hhOwkJPC9nPiYjeGE7CQk8ZyBpZD0ic2hhcGUxMDE5LTYiIHRyYW5zZm9ybT0idHJhbnNsYXRlKDExLjg4LC0xNC40KSI+JiN4YTsJCQk8dGl0bGUgaWQ9InRpdGxlMTE2MTY1Ij5wYXRoNzE4NDwvdGl0bGU+JiN4YTsJCQk8cGF0aCBpZD0icGF0aDExNjE2NyIgaW5rc2NhcGU6Y29ubmVjdG9yLWN1cnZhdHVyZT0iMCIgc3R5bGU9ImZpbGw6I0ZGRkZGRjsiIGQ9Ik0wLjkzLDU4LjU2Yy0wLjI1LDAtMC40OS0wLjEtMC42Ni0wLjI4ICAgICBDMC4wOSw1OC4xMSwwLDU3Ljg3LDAsNTcuNjJjMC0wLjI1LDAuMDktMC40OSwwLjI3LTAuNjdjMC4xNy0wLjE4LDAuNDEtMC4yOCwwLjY2LTAuMjhjMC4yNSwwLDAuNDksMC4xLDAuNjcsMC4yOCAgICAgYzAuMTgsMC4xNywwLjI4LDAuNDIsMC4yOCwwLjY3QzEuODcsNTguMTQsMS40NSw1OC41NiwwLjkzLDU4LjU2eiIvPiYjeGE7CQk8L2c+JiN4YTsJCTxnIGlkPSJzaGFwZTEwMjAtOCIgdHJhbnNmb3JtPSJ0cmFuc2xhdGUoMTUuMjAyNSwtMTQuNTY1KSI+JiN4YTsJCQk8dGl0bGUgaWQ9InRpdGxlMTE2MTcwIj5wYXRoNzE4NjwvdGl0bGU+JiN4YTsJCQk8cGF0aCBpZD0icGF0aDExNjE3MiIgaW5rc2NhcGU6Y29ubmVjdG9yLWN1cnZhdHVyZT0iMCIgc3R5bGU9ImZpbGw6I0ZGRkZGRjsiIGQ9Ik05LjY2LDU4LjU2SDcuOTNsLTYuMTYtOS41NyAgICAgYy0wLjE1LTAuMjQtMC4yOC0wLjQ5LTAuMzgtMC43NUgxLjMzYzAuMDYsMC41NCwwLjA4LDEuMDksMC4wNywxLjY0djguNjhIMHYtMTJoMS44Mmw2LDkuNDFjMC4yNSwwLjM5LDAuNDEsMC42NSwwLjQ5LDAuOCAgICAgYy0wLjA3LTAuNTgtMC4wOS0xLjE3LTAuMDgtMS43NnYtOC40NWgxLjRMOS42Niw1OC41NnoiLz4mI3hhOwkJPC9nPiYjeGE7CQk8ZyBpZD0ic2hhcGUxMDIxLTEwIiB0cmFuc2Zvcm09InRyYW5zbGF0ZSgyNi44MDUsLTE0LjU2NSkiPiYjeGE7CQkJPHRpdGxlIGlkPSJ0aXRsZTExNjE3NSI+cGF0aDcxODg8L3RpdGxlPiYjeGE7CQkJPHBhdGggaWQ9InBhdGgxMTYxNzciIGlua3NjYXBlOmNvbm5lY3Rvci1jdXJ2YXR1cmU9IjAiIHN0eWxlPSJmaWxsOiNGRkZGRkY7IiBkPSJNNi4zNSw1OC41Nkgwdi0xMmg2LjA4djEuMjdIMS40djMuOThoNC4zMyAgICAgdjEuMjZIMS40djQuMTloNC45NVY1OC41NnoiLz4mI3hhOwkJPC9nPiYjeGE7CQk8ZyBpZD0ic2hhcGUxMDIyLTEyIiB0cmFuc2Zvcm09InRyYW5zbGF0ZSgzNC4yMzc1LC0xNC41NjUpIj4mI3hhOwkJCTx0aXRsZSBpZD0idGl0bGUxMTYxODAiPnBhdGg3MTkwPC90aXRsZT4mI3hhOwkJCTxwYXRoIGlkPSJwYXRoMTE2MTgyIiBpbmtzY2FwZTpjb25uZWN0b3ItY3VydmF0dXJlPSIwIiBzdHlsZT0iZmlsbDojRkZGRkZGOyIgZD0iTTguMzEsNDcuODNINC44NXYxMC43M2gtMS40VjQ3LjgzSDB2LTEuMjcgICAgIGg4LjMyTDguMzEsNDcuODN6Ii8+JiN4YTsJCTwvZz4mI3hhOwkJPGcgaWQ9InNoYXBlMTAyMy0xNCIgdHJhbnNmb3JtPSJ0cmFuc2xhdGUoMTUuNDIsLTMwLjAwNzUpIj4mI3hhOwkJCTx0aXRsZSBpZD0idGl0bGUxMTYxODUiPnBhdGg3MTkyPC90aXRsZT4mI3hhOwkJCTxwYXRoIGlkPSJwYXRoMTE2MTg3IiBpbmtzY2FwZTpjb25uZWN0b3ItY3VydmF0dXJlPSIwIiBzdHlsZT0iZmlsbDojRkZGRkZGOyIgZD0iTTEwLjY2LDU4LjU2SDkuMTFsLTEuMy0zLjM2SDIuNzZsLTEuMTksMy4zNkgwICAgICBsNC42LTEyaDEuNDVMMTAuNjYsNTguNTZ6IE03LjM4LDUzLjk0TDUuNSw0OC44M2MtMC4wOS0wLjI2LTAuMTUtMC41My0wLjE5LTAuOGMtMC4wNCwwLjI3LTAuMTEsMC41NC0wLjIsMC44bC0xLjg2LDUuMTEgICAgIEw3LjM4LDUzLjk0eiIvPiYjeGE7CQk8L2c+JiN4YTsJCTxnIGlkPSJzaGFwZTEwMjQtMTYiIHRyYW5zZm9ybT0idHJhbnNsYXRlKDI3LjI5MjUsLTI5LjgzNSkiPiYjeGE7CQkJPHRpdGxlIGlkPSJ0aXRsZTExNjE5MCI+cGF0aDcxOTQ8L3RpdGxlPiYjeGE7CQkJPHBhdGggaWQ9InBhdGgxMTYxOTIiIGlua3NjYXBlOmNvbm5lY3Rvci1jdXJ2YXR1cmU9IjAiIHN0eWxlPSJmaWxsOiNGRkZGRkY7IiBkPSJNMCw1Ny45di0xLjY1YzAuMjEsMC4xOCwwLjQ0LDAuMzMsMC42OCwwLjQ1ICAgICBjMC4yNywwLjE0LDAuNTQsMC4yNSwwLjgzLDAuMzRDMS44LDU3LjEzLDIuMSw1Ny4yLDIuNCw1Ny4yNWMwLjI3LDAuMDUsMC41NSwwLjA3LDAuODIsMC4wN2MwLjY4LDAuMDUsMS4zNS0wLjEyLDEuOTMtMC40OCAgICAgYzAuNjYtMC41NSwwLjg0LTEuNDksMC40My0yLjI1Yy0wLjE2LTAuMjUtMC4zNi0wLjQ3LTAuNTktMC42NWMtMC4yOC0wLjIyLTAuNTgtMC40MS0wLjktMC41N2wtMS4xLTAuNTQgICAgIGMtMC40Mi0wLjIxLTAuODEtMC40Mi0xLjE3LTAuNjRjLTAuMzQtMC4yMS0wLjY2LTAuNDYtMC45NC0wLjc1Yy0wLjI2LTAuMjUtMC40Ny0wLjU0LTAuNjMtMC44NmMtMC4zNS0wLjg0LTAuMy0xLjc5LDAuMTItMi41OSAgICAgYzAuMjQtMC40LDAuNTYtMC43NCwwLjk1LTAuOTljMC40MS0wLjI3LDAuODYtMC40NywxLjMzLTAuNTljMC40OS0wLjEyLDAuOTktMC4xOSwxLjUtMC4xOWMwLjg4LTAuMDYsMS43NiwwLjA5LDIuNTgsMC40MnYxLjU5ICAgICBjLTAuODEtMC41Mi0xLjc2LTAuNzktMi43Mi0wLjc1Yy0wLjMxLDAtMC42MiwwLjAzLTAuOTIsMC4wOWMtMC4yOSwwLjA2LTAuNTcsMC4xNy0wLjgyLDAuMzJjLTAuMjMsMC4xNC0wLjQzLDAuMzMtMC41OCwwLjU2ICAgICBjLTAuMTYsMC4yNS0wLjI0LDAuNTQtMC4yMywwLjgzYy0wLjAxLDAuMjgsMC4wNSwwLjU1LDAuMTcsMC44YzAuMTMsMC4yNCwwLjMsMC40NCwwLjUxLDAuNjFjMC4yNSwwLjIsMC41MiwwLjM4LDAuODEsMC41MyAgICAgYzAuMzIsMC4xNywwLjY5LDAuMzYsMS4xMSwwLjU3YzAuNDIsMC4yLDAuODMsMC40MywxLjIzLDAuNjdjMC4zNiwwLjIxLDAuNywwLjQ2LDEuMDEsMC43NWMwLjI4LDAuMjcsMC41MiwwLjU5LDAuNjksMC45NCAgICAgYzAuMTcsMC4zNywwLjI2LDAuNzgsMC4yNSwxLjE5YzAuMDIsMC41Mi0wLjEsMS4wNC0wLjM0LDEuNWMtMC4yMywwLjQtMC41NSwwLjc0LTAuOTQsMC45OWMtMC40MiwwLjI3LTAuODgsMC40Ni0xLjM2LDAuNTYgICAgIGMtMC41MywwLjEyLTEuMDgsMC4xNy0xLjYyLDAuMTdjLTAuMjMsMC0wLjQ3LTAuMDEtMC43LTAuMDRDMiw1OC40OSwxLjcxLDU4LjQ0LDEuNDIsNTguMzhjLTAuMjgtMC4wNi0wLjU1LTAuMTMtMC44Mi0wLjIyICAgICBDMC4zOSw1OC4xLDAuMTksNTguMDEsMCw1Ny45eiIvPiYjeGE7CQk8L2c+JiN4YTsJCTxnIGlkPSJzaGFwZTEwMjUtMTgiIHRyYW5zZm9ybT0idHJhbnNsYXRlKDM2LjI2MjUsLTMwLjAzNzUpIj4mI3hhOwkJCTx0aXRsZSBpZD0idGl0bGUxMTYxOTUiPnBhdGg3MTk2PC90aXRsZT4mI3hhOwkJCTxwYXRoIGlkPSJwYXRoMTE2MTk3IiBpbmtzY2FwZTpjb25uZWN0b3ItY3VydmF0dXJlPSIwIiBzdHlsZT0iZmlsbDojRkZGRkZGOyIgZD0iTTEuNCw1NC4wNnY0LjVIMHYtMTJoMy4yOSAgICAgYzEuMDgtMC4wNywyLjE1LDAuMjYsMywwLjk0YzAuNzMsMC42OCwxLjEyLDEuNjUsMS4wNiwyLjY0YzAuMDMsMS4wNi0wLjQsMi4wOC0xLjE4LDIuNzlDNS4yOSw1My42OSw0LjE2LDU0LjA4LDMsNTQuMDIgICAgIEwxLjQsNTQuMDZ6IE0xLjQsNDcuODd2NC45MmgxLjVjMC44MSwwLjA2LDEuNjEtMC4xOCwyLjI1LTAuNjdjMC41Mi0wLjQ4LDAuOC0xLjE3LDAuNzUtMS44OGMwLTEuNTgtMC45My0yLjM3LTIuOC0yLjM3SDEuNHoiLz4mI3hhOwkJPC9nPiYjeGE7CTwvZz4mI3hhOzwvZz4mI3hhOzwvc3ZnPg==;" parent="1" vertex="1">
          <mxGeometry x="456" y="1480.22" width="47" height="47" as="geometry" />
        </mxCell>
        <mxCell id="WK60Pz9tpR1LT17RZS87-28" value="" style="shape=image;verticalLabelPosition=bottom;verticalAlign=top;aspect=fixed;imageAspect=0;image=data:image/svg+xml,PHN2ZyB4bWxuczpjYz0iaHR0cDovL2NyZWF0aXZlY29tbW9ucy5vcmcvbnMjIiB4bWxuczpkYz0iaHR0cDovL3B1cmwub3JnL2RjL2VsZW1lbnRzLzEuMS8iIHhtbG5zOmlua3NjYXBlPSJodHRwOi8vd3d3Lmlua3NjYXBlLm9yZy9uYW1lc3BhY2VzL2lua3NjYXBlIiB4bWxuczpyZGY9Imh0dHA6Ly93d3cudzMub3JnLzE5OTkvMDIvMjItcmRmLXN5bnRheC1ucyMiIHhtbG5zOnNvZGlwb2RpPSJodHRwOi8vc29kaXBvZGkuc291cmNlZm9yZ2UubmV0L0RURC9zb2RpcG9kaS0wLmR0ZCIgeG1sbnM6c3ZnPSJodHRwOi8vd3d3LnczLm9yZy8yMDAwL3N2ZyIgeG1sbnM9Imh0dHA6Ly93d3cudzMub3JnLzIwMDAvc3ZnIiB4bWxuczp4bGluaz0iaHR0cDovL3d3dy53My5vcmcvMTk5OS94bGluayIgdmVyc2lvbj0iMS4xIiBpZD0ic3ZnMzg3MjcwIiBpbmtzY2FwZTp2ZXJzaW9uPSIwLjkyLjMgKDI0MDU1NDYsIDIwMTgtMDMtMTEpIiBzb2RpcG9kaTpkb2NuYW1lPSJ1c2VyX2dlbmVyaWMuc3ZnIiB4PSIwcHgiIHk9IjBweCIgdmlld0JveD0iMCAwIDMwLjUyIDM0LjExIiBzdHlsZT0iZW5hYmxlLWJhY2tncm91bmQ6bmV3IDAgMCAzMC41MiAzNC4xMTsiIHhtbDpzcGFjZT0icHJlc2VydmUiPiYjeGE7PHNvZGlwb2RpOm5hbWVkdmlldyBib3JkZXJjb2xvcj0iIzY2NjY2NiIgYm9yZGVyb3BhY2l0eT0iMSIgZml0LW1hcmdpbi1ib3R0b209IjAiIGZpdC1tYXJnaW4tbGVmdD0iMCIgZml0LW1hcmdpbi1yaWdodD0iMCIgZml0LW1hcmdpbi10b3A9IjAiIGdyaWR0b2xlcmFuY2U9IjEwIiBndWlkZXRvbGVyYW5jZT0iMTAiIGlkPSJuYW1lZHZpZXczODcyNzIiIGlua3NjYXBlOmN1cnJlbnQtbGF5ZXI9InN2ZzM4NzI3MCIgaW5rc2NhcGU6Y3g9IjIwLjM0MzczMiIgaW5rc2NhcGU6Y3k9IjIyLjczOTk4NSIgaW5rc2NhcGU6cGFnZW9wYWNpdHk9IjAiIGlua3NjYXBlOnBhZ2VzaGFkb3c9IjIiIGlua3NjYXBlOndpbmRvdy1oZWlnaHQ9IjEwMTciIGlua3NjYXBlOndpbmRvdy1tYXhpbWl6ZWQ9IjEiIGlua3NjYXBlOndpbmRvdy13aWR0aD0iMTkyMCIgaW5rc2NhcGU6d2luZG93LXg9Ii04IiBpbmtzY2FwZTp3aW5kb3cteT0iLTgiIGlua3NjYXBlOnpvb209IjE4LjI2MDMzMiIgb2JqZWN0dG9sZXJhbmNlPSIxMCIgcGFnZWNvbG9yPSIjZmZmZmZmIiBzaG93Z3JpZD0iZmFsc2UiPiYjeGE7CTwvc29kaXBvZGk6bmFtZWR2aWV3PiYjeGE7PGcgaWQ9ImczODcyNjgiIHRyYW5zZm9ybT0idHJhbnNsYXRlKC0wLjczNTk1NzIyLC0wLjc0OTk5ODgyKSI+JiN4YTsJPHRpdGxlIGlkPSJ0aXRsZTM4NzI1MyI+UGFnZS0xPC90aXRsZT4mI3hhOwk8ZyBpZD0iZ3JvdXA1ODc4LTEiIHRyYW5zZm9ybT0idHJhbnNsYXRlKDEuNSwtMS41KSI+JiN4YTsJCTx0aXRsZSBpZD0idGl0bGUzODcyNTUiPlVzZXIgKEdlbmVyaWMpPC90aXRsZT4mI3hhOwkJPGcgaWQ9InNoYXBlNTg3OS0yIiB0cmFuc2Zvcm09InRyYW5zbGF0ZSg1LjQzLC0xNC40OSkiPiYjeGE7CQkJPHRpdGxlIGlkPSJ0aXRsZTM4NzI1NyI+Y2lyY2xlODAxMTwvdGl0bGU+JiN4YTsJCQkmI3hhOwkJCQk8Y2lyY2xlIGlkPSJlbGxpcHNlMzg3MjU5IiBzdHlsZT0iZmlsbDojRkZGRkZGO3N0cm9rZTojNTU2QThBO3N0cm9rZS13aWR0aDoxLjU7c3Ryb2tlLWxpbmVjYXA6c3F1YXJlO3N0cm9rZS1taXRlcmxpbWl0OjM7IiBjeD0iOS4wNiIgY3k9IjI2LjU1IiByPSI5LjA2Ii8+JiN4YTsJCTwvZz4mI3hhOwkJPGcgaWQ9InNoYXBlNTg4MC00Ij4mI3hhOwkJCTx0aXRsZSBpZD0idGl0bGUzODcyNjIiPnBhdGg4MDEzPC90aXRsZT4mI3hhOwkJCSYjeGE7CQkJCTxwYXRoIGlkPSJwYXRoMzg3MjY0IiBpbmtzY2FwZTpjb25uZWN0b3ItY3VydmF0dXJlPSIwIiBzdHlsZT0iZmlsbDojRkZGRkZGO3N0cm9rZTojNTU2QThBO3N0cm9rZS13aWR0aDoxLjU7c3Ryb2tlLWxpbmVjYXA6c3F1YXJlO3N0cm9rZS1taXRlcmxpbWl0OjM7IiBkPSIgICAgIE0wLDM1LjYxYzAuMTUtOC4wMSw2Ljc2LTE0LjM3LDE0Ljc2LTE0LjIzYzcuOCwwLjE0LDE0LjA4LDYuNDMsMTQuMjMsMTQuMjNIMHoiLz4mI3hhOwkJPC9nPiYjeGE7CTwvZz4mI3hhOzwvZz4mI3hhOzwvc3ZnPg==;imageBackground=none;imageBorder=none;" parent="1" vertex="1">
          <mxGeometry x="106" y="1480" width="36.47" height="40" as="geometry" />
        </mxCell>
        <mxCell id="WK60Pz9tpR1LT17RZS87-29" value="" style="endArrow=none;html=1;rounded=0;" parent="1" edge="1">
          <mxGeometry width="50" height="50" relative="1" as="geometry">
            <mxPoint x="420" y="1680" as="sourcePoint" />
            <mxPoint x="421" y="1530.22" as="targetPoint" />
          </mxGeometry>
        </mxCell>
        <mxCell id="WK60Pz9tpR1LT17RZS87-30" value="" style="endArrow=none;html=1;rounded=0;" parent="1" edge="1">
          <mxGeometry width="50" height="50" relative="1" as="geometry">
            <mxPoint x="776" y="1680" as="sourcePoint" />
            <mxPoint x="775.71" y="1530.22" as="targetPoint" />
          </mxGeometry>
        </mxCell>
        <mxCell id="WK60Pz9tpR1LT17RZS87-31" value="" style="endArrow=classic;html=1;rounded=0;" parent="1" edge="1">
          <mxGeometry width="50" height="50" relative="1" as="geometry">
            <mxPoint x="66" y="1590" as="sourcePoint" />
            <mxPoint x="421" y="1590" as="targetPoint" />
          </mxGeometry>
        </mxCell>
        <mxCell id="WK60Pz9tpR1LT17RZS87-32" value="&lt;font style=&quot;color: rgb(255, 102, 255);&quot;&gt;Access Vault Request&lt;/font&gt; &lt;font style=&quot;color: rgb(93, 93, 93);&quot;&gt;[ClientB UserId, VaultId]&lt;/font&gt;" style="text;html=1;align=center;verticalAlign=middle;resizable=0;points=[];autosize=1;strokeColor=none;fillColor=none;" parent="1" vertex="1">
          <mxGeometry x="65" y="1560.22" width="270" height="30" as="geometry" />
        </mxCell>
        <mxCell id="WK60Pz9tpR1LT17RZS87-33" value="" style="endArrow=classic;html=1;rounded=0;" parent="1" edge="1">
          <mxGeometry width="50" height="50" relative="1" as="geometry">
            <mxPoint x="421" y="1630" as="sourcePoint" />
            <mxPoint x="66" y="1630" as="targetPoint" />
          </mxGeometry>
        </mxCell>
        <mxCell id="WK60Pz9tpR1LT17RZS87-34" value="&lt;font style=&quot;color: rgb(255, 102, 255);&quot;&gt;Access Vault Response&lt;/font&gt;&amp;nbsp;&lt;font style=&quot;color: rgb(93, 93, 93);&quot;&gt;[SharedKey, ..]&lt;/font&gt;" style="text;html=1;align=center;verticalAlign=middle;resizable=0;points=[];autosize=1;strokeColor=none;fillColor=none;" parent="1" vertex="1">
          <mxGeometry x="191" y="1600" width="230" height="30" as="geometry" />
        </mxCell>
        <mxCell id="WK60Pz9tpR1LT17RZS87-35" value="" style="endArrow=classic;html=1;rounded=0;" parent="1" edge="1">
          <mxGeometry width="50" height="50" relative="1" as="geometry">
            <mxPoint x="421" y="1600" as="sourcePoint" />
            <mxPoint x="776" y="1600" as="targetPoint" />
          </mxGeometry>
        </mxCell>
        <mxCell id="WK60Pz9tpR1LT17RZS87-36" value="Fetch SharedVaultAccess by UserId, VaultId" style="text;html=1;align=center;verticalAlign=middle;resizable=0;points=[];autosize=1;strokeColor=none;fillColor=none;" parent="1" vertex="1">
          <mxGeometry x="471" y="1570" width="260" height="30" as="geometry" />
        </mxCell>
        <mxCell id="WK60Pz9tpR1LT17RZS87-37" value="" style="endArrow=classic;html=1;rounded=0;" parent="1" edge="1">
          <mxGeometry width="50" height="50" relative="1" as="geometry">
            <mxPoint x="776" y="1610" as="sourcePoint" />
            <mxPoint x="421" y="1610" as="targetPoint" />
          </mxGeometry>
        </mxCell>
        <mxCell id="WK60Pz9tpR1LT17RZS87-38" value="&lt;font style=&quot;color: rgb(255, 145, 36);&quot;&gt;Wants to access a Vault of Client A&lt;/font&gt;" style="text;html=1;align=center;verticalAlign=middle;resizable=0;points=[];autosize=1;strokeColor=none;fillColor=none;fontSize=10;" parent="1" vertex="1">
          <mxGeometry x="65" y="1530.22" width="180" height="30" as="geometry" />
        </mxCell>
        <mxCell id="WK60Pz9tpR1LT17RZS87-41" value="&lt;font style=&quot;color: rgb(255, 102, 255);&quot;&gt;Get User Public Key Request&lt;/font&gt; &lt;font style=&quot;color: rgb(93, 93, 93);&quot;&gt;[UserId]&lt;/font&gt;" style="text;html=1;align=center;verticalAlign=middle;resizable=0;points=[];autosize=1;strokeColor=none;fillColor=none;" parent="1" vertex="1">
          <mxGeometry x="66" y="1250.22" width="220" height="30" as="geometry" />
        </mxCell>
        <mxCell id="WK60Pz9tpR1LT17RZS87-42" value="&lt;font style=&quot;color: rgb(255, 102, 255);&quot;&gt;Get User Public Key Response&amp;nbsp;&lt;/font&gt;&lt;font style=&quot;color: rgb(93, 93, 93);&quot;&gt;[PublicKey]&lt;/font&gt;" style="text;html=1;align=center;verticalAlign=middle;resizable=0;points=[];autosize=1;strokeColor=none;fillColor=none;" parent="1" vertex="1">
          <mxGeometry x="171" y="1290" width="250" height="30" as="geometry" />
        </mxCell>
        <mxCell id="WK60Pz9tpR1LT17RZS87-43" value="" style="endArrow=classic;html=1;rounded=0;" parent="1" edge="1">
          <mxGeometry width="50" height="50" relative="1" as="geometry">
            <mxPoint x="421" y="1290" as="sourcePoint" />
            <mxPoint x="776" y="1290" as="targetPoint" />
          </mxGeometry>
        </mxCell>
        <mxCell id="WK60Pz9tpR1LT17RZS87-44" value="Fetch user&#39;s public key by user id" style="text;html=1;align=center;verticalAlign=middle;resizable=0;points=[];autosize=1;strokeColor=none;fillColor=none;" parent="1" vertex="1">
          <mxGeometry x="501" y="1260" width="200" height="30" as="geometry" />
        </mxCell>
        <mxCell id="WK60Pz9tpR1LT17RZS87-45" value="" style="endArrow=classic;html=1;rounded=0;" parent="1" edge="1">
          <mxGeometry width="50" height="50" relative="1" as="geometry">
            <mxPoint x="776" y="1300" as="sourcePoint" />
            <mxPoint x="421" y="1300" as="targetPoint" />
          </mxGeometry>
        </mxCell>
        <mxCell id="WK60Pz9tpR1LT17RZS87-46" value="&lt;font color=&quot;#ff9124&quot;&gt;Encrypt Sharing key with recipient&#39;s public key&lt;/font&gt;" style="text;html=1;align=center;verticalAlign=middle;resizable=0;points=[];autosize=1;strokeColor=none;fillColor=none;fontSize=10;" parent="1" vertex="1">
          <mxGeometry x="65" y="1330" width="230" height="30" as="geometry" />
        </mxCell>
        <mxCell id="WK60Pz9tpR1LT17RZS87-47" value="" style="endArrow=classic;html=1;rounded=0;" parent="1" edge="1">
          <mxGeometry width="50" height="50" relative="1" as="geometry">
            <mxPoint x="66" y="1390" as="sourcePoint" />
            <mxPoint x="421" y="1390" as="targetPoint" />
          </mxGeometry>
        </mxCell>
        <mxCell id="WK60Pz9tpR1LT17RZS87-48" value="" style="endArrow=classic;html=1;rounded=0;" parent="1" edge="1">
          <mxGeometry width="50" height="50" relative="1" as="geometry">
            <mxPoint x="421" y="1449.78" as="sourcePoint" />
            <mxPoint x="66" y="1449.78" as="targetPoint" />
          </mxGeometry>
        </mxCell>
        <mxCell id="WK60Pz9tpR1LT17RZS87-49" value="" style="endArrow=classic;html=1;rounded=0;" parent="1" edge="1">
          <mxGeometry width="50" height="50" relative="1" as="geometry">
            <mxPoint x="421" y="1402" as="sourcePoint" />
            <mxPoint x="776" y="1402" as="targetPoint" />
          </mxGeometry>
        </mxCell>
        <mxCell id="WK60Pz9tpR1LT17RZS87-50" value="Create SharedVaultAccess" style="text;html=1;align=center;verticalAlign=middle;resizable=0;points=[];autosize=1;strokeColor=none;fillColor=none;" parent="1" vertex="1">
          <mxGeometry x="421" y="1370" width="170" height="30" as="geometry" />
        </mxCell>
        <mxCell id="WK60Pz9tpR1LT17RZS87-51" value="" style="endArrow=classic;html=1;rounded=0;" parent="1" edge="1">
          <mxGeometry width="50" height="50" relative="1" as="geometry">
            <mxPoint x="776" y="1439.78" as="sourcePoint" />
            <mxPoint x="421" y="1439.78" as="targetPoint" />
          </mxGeometry>
        </mxCell>
        <mxCell id="WK60Pz9tpR1LT17RZS87-52" value="Return created SharedVaultAccess id" style="text;html=1;align=center;verticalAlign=middle;resizable=0;points=[];autosize=1;strokeColor=none;fillColor=none;" parent="1" vertex="1">
          <mxGeometry x="555" y="1409.78" width="220" height="30" as="geometry" />
        </mxCell>
        <mxCell id="WK60Pz9tpR1LT17RZS87-53" value="&lt;font style=&quot;color: rgb(255, 145, 36);&quot;&gt;Decrypt Sharing Key with Client B Private Key&lt;/font&gt;&lt;div style=&quot;&quot;&gt;&lt;font style=&quot;color: rgb(255, 145, 36);&quot;&gt;This key is now usable like the Client A master key&lt;/font&gt;&lt;/div&gt;" style="text;html=1;align=left;verticalAlign=middle;resizable=0;points=[];autosize=1;strokeColor=none;fillColor=none;fontSize=10;" parent="1" vertex="1">
          <mxGeometry x="77" y="1630" width="250" height="40" as="geometry" />
        </mxCell>
        <mxCell id="vwLPUlBoRTpeNpsDeMJG-1" value="For sharing a vault, a seperate SharedVaultAccess table is requried. There the Client A&#39;s aes key is encrypted with an rsa public key,&amp;nbsp;&lt;div&gt;so the zero knowledge architecture approach is still given and valid&lt;/div&gt;" style="text;html=1;align=left;verticalAlign=middle;resizable=0;points=[];autosize=1;strokeColor=none;fillColor=none;fontColor=light-dark(#00CC00,#EDEDED);" vertex="1" parent="1">
          <mxGeometry x="54" y="1710" width="730" height="40" as="geometry" />
        </mxCell>
        <mxCell id="vwLPUlBoRTpeNpsDeMJG-2" value="" style="shape=image;verticalLabelPosition=bottom;verticalAlign=top;imageAspect=0;aspect=fixed;image=data:image/svg+xml,PHN2ZyB4bWxucz0iaHR0cDovL3d3dy53My5vcmcvMjAwMC9zdmciIHZlcnNpb249IjEiIHZpZXdCb3g9IjAgMCA0OCA0OCIgZW5hYmxlLWJhY2tncm91bmQ9Im5ldyAwIDAgNDggNDgiPiYjeGE7ICAgIDxjaXJjbGUgZmlsbD0iIzIxOTZGMyIgY3g9IjI0IiBjeT0iMjQiIHI9IjIxIi8+JiN4YTsgICAgPHJlY3QgeD0iMjIiIHk9IjIyIiBmaWxsPSIjZmZmIiB3aWR0aD0iNCIgaGVpZ2h0PSIxMSIvPiYjeGE7ICAgIDxjaXJjbGUgZmlsbD0iI2ZmZiIgY3g9IjI0IiBjeT0iMTYuNSIgcj0iMi41Ii8+JiN4YTs8L3N2Zz4=;" vertex="1" parent="1">
          <mxGeometry x="6" y="1710" width="40" height="40" as="geometry" />
        </mxCell>
      </root>
    </mxGraphModel>
  </diagram>
</mxfile>
